<svg width="25" height="24" viewBox="0 0 25 24" fill="none" xmlns="http://www.w3.org/2000/svg">
<path fill-rule="evenodd" clip-rule="evenodd" d="M21.4326 8.00417C21.376 8.00083 21.3156 7.9995 21.2516 8.00017H18.7266C16.6586 8.00017 14.8896 9.62817 14.8896 11.7502C14.8896 13.8722 16.6596 15.5002 18.7266 15.5002H21.2516C21.3156 15.5008 21.3763 15.4995 21.4336 15.4962C21.8587 15.4705 22.2599 15.2913 22.5625 14.9917C22.8652 14.6922 23.0486 14.2929 23.0786 13.8682C23.0826 13.8082 23.0826 13.7432 23.0826 13.6832V9.81717C23.0826 9.75717 23.0826 9.69217 23.0786 9.63217C23.0486 9.20743 22.8652 8.8081 22.5625 8.50858C22.2599 8.20907 21.8577 8.02979 21.4326 8.00417ZM18.5056 12.7502C19.0376 12.7502 19.4686 12.3022 19.4686 11.7502C19.4686 11.1982 19.0376 10.7502 18.5056 10.7502C17.9726 10.7502 17.5416 11.1982 17.5416 11.7502C17.5416 12.3022 17.9726 12.7502 18.5056 12.7502Z" fill="#0C2647"/>
<path fill-rule="evenodd" clip-rule="evenodd" d="M21.251 17C21.2856 16.9986 21.32 17.0054 21.3514 17.0198C21.3829 17.0342 21.4105 17.0558 21.4321 17.0829C21.4536 17.11 21.4684 17.1418 21.4754 17.1757C21.4823 17.2096 21.4812 17.2446 21.472 17.278C21.272 17.99 20.953 18.598 20.442 19.108C19.693 19.858 18.744 20.189 17.572 20.347C16.432 20.5 14.977 20.5 13.139 20.5H11.027C9.18901 20.5 7.73301 20.5 6.59401 20.347C5.42201 20.189 4.47301 19.857 3.72401 19.109C2.97601 18.36 2.64401 17.411 2.48601 16.239C2.33301 15.099 2.33301 13.644 2.33301 11.806V11.694C2.33301 9.856 2.33301 8.4 2.48601 7.26C2.64401 6.088 2.97601 5.139 3.72401 4.39C4.47301 3.642 5.42201 3.31 6.59401 3.152C7.73401 3 9.18901 3 11.027 3H13.139C14.977 3 16.433 3 17.572 3.153C18.744 3.311 19.693 3.643 20.442 4.391C20.953 4.903 21.272 5.51 21.472 6.222C21.4812 6.25537 21.4823 6.29042 21.4754 6.32432C21.4684 6.35822 21.4536 6.39 21.4321 6.41708C21.4105 6.44417 21.3829 6.46579 21.3514 6.4802C21.32 6.4946 21.2856 6.50139 21.251 6.5H18.727C15.89 6.5 13.39 8.74 13.39 11.75C13.39 14.76 15.89 17 18.727 17H21.251ZM6.08301 7C5.8841 7 5.69333 7.07902 5.55268 7.21967C5.41203 7.36032 5.33301 7.55109 5.33301 7.75C5.33301 7.94891 5.41203 8.13968 5.55268 8.28033C5.69333 8.42098 5.8841 8.5 6.08301 8.5H10.083C10.2819 8.5 10.4727 8.42098 10.6133 8.28033C10.754 8.13968 10.833 7.94891 10.833 7.75C10.833 7.55109 10.754 7.36032 10.6133 7.21967C10.4727 7.07902 10.2819 7 10.083 7H6.08301Z" fill="#0C2647"/>
</svg>
