<svg width="24" height="24" viewBox="0 0 24 24" fill="none" xmlns="http://www.w3.org/2000/svg">
<path d="M6.46154 12.0004V8.35908C6.47235 7.64331 6.6243 6.93671 6.90868 6.27976C7.19306 5.62282 7.60428 5.02844 8.11878 4.53069C8.63328 4.03294 9.24094 3.64159 9.90695 3.37908C10.573 3.11657 11.2842 2.98804 12 3.00087C12.7158 2.98804 13.427 3.11657 14.093 3.37908C14.7591 3.64159 15.3667 4.03294 15.8812 4.53069C16.3957 5.02844 16.8069 5.62282 17.0913 6.27976C17.3757 6.93671 17.5276 7.64331 17.5385 8.35908V12.0004M14.7692 19.2693C15.5037 19.2693 16.208 18.9776 16.7274 18.4583C17.2467 17.939 17.5385 17.2346 17.5385 16.5002V13.385M14.7692 19.2693C14.7692 19.7283 14.5869 20.1685 14.2623 20.4931C13.9377 20.8177 13.4975 21 13.0385 21H10.9615C10.5025 21 10.0623 20.8177 9.7377 20.4931C9.41312 20.1685 9.23077 19.7283 9.23077 19.2693C9.23077 18.8103 9.41312 18.3701 9.7377 18.0455C10.0623 17.721 10.5025 17.5386 10.9615 17.5386H13.0385C13.4975 17.5386 13.9377 17.721 14.2623 18.0455C14.5869 18.3701 14.7692 18.8103 14.7692 19.2693ZM4.38462 9.92362H5.76923C5.95284 9.92362 6.12893 9.99655 6.25877 10.1264C6.3886 10.2562 6.46154 10.4323 6.46154 10.6159V14.7695C6.46154 14.9531 6.3886 15.1292 6.25877 15.259C6.12893 15.3889 5.95284 15.4618 5.76923 15.4618H4.38462C4.01739 15.4618 3.66521 15.3159 3.40554 15.0563C3.14588 14.7966 3 14.4445 3 14.0773V11.3082C3 10.941 3.14588 10.5888 3.40554 10.3291C3.66521 10.0695 4.01739 9.92362 4.38462 9.92362ZM19.6154 15.4618H18.2308C18.0472 15.4618 17.8711 15.3889 17.7412 15.259C17.6114 15.1292 17.5385 14.9531 17.5385 14.7695V10.6159C17.5385 10.4323 17.6114 10.2562 17.7412 10.1264C17.8711 9.99655 18.0472 9.92362 18.2308 9.92362H19.6154C19.9826 9.92362 20.3348 10.0695 20.5945 10.3291C20.8541 10.5888 21 10.941 21 11.3082V14.0773C21 14.4445 20.8541 14.7966 20.5945 15.0563C20.3348 15.3159 19.9826 15.4618 19.6154 15.4618Z" stroke="#FF7F33" stroke-width="1.25" stroke-linecap="round" stroke-linejoin="round"/>
</svg>
