<svg width="24" height="24" viewBox="0 0 24 24" fill="none" xmlns="http://www.w3.org/2000/svg">
<mask id="mask0_1478_7045" style="mask-type:alpha" maskUnits="userSpaceOnUse" x="0" y="0" width="24" height="24">
<rect width="24" height="24" fill="#D9D9D9"/>
</mask>
<g mask="url(#mask0_1478_7045)">
<path fill-rule="evenodd" clip-rule="evenodd" d="M1.26836 18.4103C1.61377 18.7559 2.02174 18.9287 2.49229 18.9287H14.71V15.3984C14.71 14.1558 15.7173 13.1484 16.96 13.1484H21.5204V3.99842C21.5204 3.52618 21.347 3.11675 21.0002 2.77015C20.6536 2.42338 20.2442 2.25 19.7719 2.25H2.49229C2.02174 2.25 1.61377 2.42338 1.26836 2.77015C0.922788 3.11675 0.75 3.52618 0.75 3.99842V17.1864C0.75 17.6569 0.922788 18.0649 1.26836 18.4103ZM19.7719 10.0175H2.49229V6.71862H19.7719V10.0175Z" fill="#0C2647"/>
<path d="M21.8829 21.0547C22.1287 21.0547 22.3354 20.97 22.5028 20.8005C22.6702 20.631 22.7539 20.4234 22.7539 20.1775V16.1224C22.7539 15.8889 22.6739 15.6924 22.5138 15.533C22.3537 15.3737 22.1562 15.2941 21.9213 15.2941C21.6902 15.2941 21.4962 15.3737 21.3392 15.533C21.182 15.6924 21.1034 15.8889 21.1034 16.1224V18.2189L17.9025 15.0179C17.7367 14.8522 17.5444 14.7694 17.3255 14.7694C17.1066 14.7694 16.9144 14.8526 16.7489 15.0192C16.5832 15.1858 16.5003 15.3833 16.5003 15.6117C16.5003 15.8404 16.5832 16.0375 16.7489 16.2032L19.9437 19.3981H17.8217C17.5881 19.3981 17.3916 19.4781 17.2322 19.6382C17.073 19.7985 16.9933 19.9961 16.9933 20.231C16.9933 20.4659 17.073 20.662 17.2322 20.8192C17.3916 20.9762 17.5881 21.0547 17.8217 21.0547H21.8829Z" fill="#FF7F33"/>
</g>
</svg>
