<svg width="16" height="16" viewBox="0 0 16 16" fill="none" xmlns="http://www.w3.org/2000/svg">
<path d="M4.81516 8.75405L7.6001 11.5524C7.64994 11.6025 7.67605 11.6615 7.67844 11.7294C7.68049 11.7973 7.65318 11.8595 7.59652 11.9161C7.54054 11.971 7.48029 11.999 7.41577 12C7.3516 12.0007 7.29118 11.9727 7.23451 11.9161L4.12135 8.788C4.07663 8.74273 4.04523 8.69677 4.02714 8.65012C4.00905 8.60347 4 8.55237 4 8.4968C4 8.44124 4.00905 8.39013 4.02714 8.34348C4.04523 8.29683 4.07663 8.25104 4.12135 8.20611L7.23451 5.07748C7.2823 5.02946 7.3405 5.00373 7.40911 5.0003C7.47807 4.99687 7.54071 5.0226 7.59703 5.07748C7.65335 5.13407 7.68152 5.19512 7.68152 5.26064C7.68152 5.32649 7.65335 5.38772 7.59703 5.44431L4.81464 8.23955H10.744C10.817 8.23955 10.878 8.26408 10.9268 8.31313C10.9756 8.36218 11 8.4234 11 8.4968C11 8.5702 10.9756 8.63143 10.9268 8.68048C10.878 8.72952 10.817 8.75405 10.744 8.75405H4.81516Z" fill="#AF6F22"/>
</svg>
