<svg width="33" height="32" viewBox="0 0 33 32" fill="none" xmlns="http://www.w3.org/2000/svg">
<path d="M22.4709 16H10.5351C10.3005 16.0006 10.0735 15.9154 9.89581 15.76C9.74615 15.6436 9.63156 15.487 9.56501 15.3079C9.49847 15.1288 9.48262 14.9344 9.51926 14.7467L10.5438 9.44001C10.62 9.03468 10.8331 8.66905 11.1465 8.40617C11.4598 8.14329 11.8537 7.99965 12.2602 8.00001H20.7107C21.1426 7.99868 21.5589 8.16389 21.8754 8.46223C22.1588 8.71518 22.3527 9.05556 22.4271 9.43112L23.4779 14.7378C23.5095 14.89 23.5072 15.0475 23.4712 15.1987C23.4353 15.3499 23.3666 15.4911 23.2701 15.612C23.1737 15.7329 23.0519 15.8304 22.9136 15.8975C22.7754 15.9647 22.6241 15.9997 22.4709 16Z" fill="#FFC004"/>
<path d="M21.5 8.47653L9.8838 16C9.73868 15.88 9.62757 15.7185 9.56304 15.5339C9.49852 15.3493 9.48315 15.1489 9.51867 14.9553L10.5122 9.48454C10.586 9.06669 10.7927 8.68975 11.0965 8.41873C11.4004 8.14772 11.7823 7.99963 12.1765 8.00001H20.3706C20.7895 7.99864 21.1931 8.16896 21.5 8.47653Z" fill="#FFD863"/>
<path d="M15.4709 24H3.53507C3.30048 24.0006 3.07353 23.9154 2.89581 23.76C2.74615 23.6436 2.63156 23.487 2.56501 23.3079C2.49847 23.1288 2.48262 22.9344 2.51926 22.7467L3.54383 17.44C3.62 17.0347 3.83314 16.6691 4.14647 16.4062C4.45981 16.1433 4.8537 15.9996 5.26021 16H13.7107C14.1426 15.9987 14.5589 16.1639 14.8754 16.4622C15.1588 16.7152 15.3527 17.0556 15.4271 17.4311L16.4779 22.7378C16.5095 22.89 16.5072 23.0475 16.4712 23.1987C16.4353 23.3499 16.3666 23.4911 16.2701 23.612C16.1737 23.7329 16.0519 23.8304 15.9136 23.8975C15.7754 23.9647 15.6241 23.9997 15.4709 24Z" fill="#FFA600"/>
<path d="M14.5 16.4765L2.8838 24C2.73868 23.88 2.62757 23.7185 2.56304 23.5339C2.49851 23.3493 2.48315 23.1489 2.51867 22.9553L3.51217 17.4845C3.58603 17.0667 3.79269 16.6897 4.09652 16.4187C4.40035 16.1477 4.7823 15.9996 5.17647 16H13.3706C13.7895 15.9986 14.1931 16.169 14.5 16.4765Z" fill="#FFC004"/>
<path d="M29.4709 24H17.5351C17.3005 24.0006 17.0735 23.9154 16.8958 23.76C16.7461 23.6436 16.6316 23.487 16.565 23.3079C16.4985 23.1288 16.4826 22.9344 16.5193 22.7467L17.5438 17.44C17.62 17.0347 17.8331 16.6691 18.1465 16.4062C18.4598 16.1433 18.8537 15.9996 19.2602 16H27.7107C28.1426 15.9987 28.5589 16.1639 28.8754 16.4622C29.1588 16.7152 29.3527 17.0556 29.4271 17.4311L30.4779 22.7378C30.5095 22.89 30.5072 23.0475 30.4712 23.1987C30.4353 23.3499 30.3666 23.4911 30.2701 23.612C30.1737 23.7329 30.0519 23.8304 29.9136 23.8975C29.7754 23.9647 29.6241 23.9997 29.4709 24Z" fill="#FFA600"/>
<path d="M28.5 16.4765L16.8838 24C16.7387 23.88 16.6276 23.7185 16.563 23.5339C16.4985 23.3493 16.4831 23.1489 16.5187 22.9553L17.5122 17.4845C17.586 17.0667 17.7927 16.6897 18.0965 16.4187C18.4004 16.1477 18.7823 15.9996 19.1765 16H27.3706C27.7895 15.9986 28.1931 16.169 28.5 16.4765Z" fill="#FFC004"/>
</svg>
