<svg width="24" height="24" viewBox="0 0 24 24" fill="none" xmlns="http://www.w3.org/2000/svg">
<path d="M12 5.84375C18.6705 5.84375 21.75 12.0013 21.75 12.0013C21.75 12.0013 18.6705 18.1587 12 18.1587C5.3295 18.1587 2.25 12.0013 2.25 12.0013C2.25 12.0013 5.3295 5.84375 12 5.84375Z" stroke="#515151" stroke-width="0.929" stroke-linejoin="round"/>
<path d="M14.9094 12C14.9183 12.3995 14.8474 12.7968 14.7007 13.1685C14.5539 13.5402 14.3345 13.8788 14.0551 14.1645C13.7757 14.4503 13.442 14.6773 13.0737 14.8323C12.7054 14.9872 12.3098 15.0671 11.9102 15.0671C11.5105 15.0671 11.115 14.9872 10.7466 14.8323C10.3783 14.6773 10.0446 14.4503 9.76525 14.1645C9.48586 13.8788 9.26637 13.5402 9.11965 13.1685C8.97294 12.7968 8.90197 12.3995 8.91091 12C8.91091 11.2044 9.22698 10.4413 9.78959 9.87868C10.3522 9.31607 11.1153 9 11.9109 9C12.7066 9 13.4696 9.31607 14.0322 9.87868C14.5948 10.4413 14.9109 11.2044 14.9109 12H14.9094Z" stroke="#515151" stroke-width="0.929" stroke-linejoin="round"/>
</svg>
