<svg width="16" height="16" viewBox="0 0 16 16" fill="none" xmlns="http://www.w3.org/2000/svg">
<path d="M7.7334 3C9.32543 3 10.616 4.28301 10.616 5.86602C10.6163 6.28084 10.5261 6.69075 10.3517 7.06711C10.1772 7.44347 9.92273 7.77721 9.60594 8.04503C9.74094 8.1117 9.86394 8.17886 9.97495 8.24653C10.2136 8.39153 10.462 8.57137 10.72 8.78603C10.7548 8.81491 10.7835 8.8504 10.8045 8.89044C10.8255 8.93048 10.8384 8.97428 10.8424 9.01933C10.8464 9.06437 10.8414 9.10976 10.8278 9.15288C10.8142 9.19599 10.7921 9.23598 10.763 9.27054C10.7039 9.34067 10.6194 9.38456 10.5281 9.39261C10.4367 9.40067 10.3459 9.37224 10.2755 9.31354C10.0673 9.13737 9.84637 8.97693 9.61444 8.83353C9.38895 8.69977 9.15418 8.58231 8.91193 8.48203C8.54092 8.64694 8.13941 8.73211 7.7334 8.73203C7.28581 8.7321 6.84428 8.62856 6.44338 8.42953L6.42238 8.43953C5.44736 8.81753 4.73585 9.37654 4.27634 10.1185C3.81533 10.863 3.62683 11.6951 3.71133 12.6256C3.71909 12.7166 3.69038 12.8071 3.63151 12.877C3.57263 12.947 3.4884 12.9907 3.39733 12.9986C3.3063 13.0069 3.21569 12.9788 3.14538 12.9204C3.07507 12.862 3.03081 12.7781 3.02232 12.6871C2.92482 11.6111 3.14682 10.6305 3.68733 9.75804C4.16234 8.99004 4.86085 8.39303 5.77437 7.96703C5.4833 7.69992 5.25095 7.37522 5.09205 7.01353C4.93315 6.65184 4.85119 6.26107 4.85135 5.86602C4.85135 4.28301 6.14138 3 7.7334 3ZM11.434 9.34654C11.624 9.34654 11.778 9.50154 11.778 9.69204V10.568H12.654C12.6993 10.5679 12.7443 10.5767 12.7862 10.594C12.8282 10.6112 12.8663 10.6366 12.8984 10.6686C12.9306 10.7006 12.9561 10.7386 12.9735 10.7804C12.9909 10.8223 12.9999 10.8672 13 10.9125C12.9996 11.004 12.9629 11.0915 12.8981 11.1559C12.8332 11.2203 12.7454 11.2563 12.654 11.256H11.778V12.1326C11.7781 12.224 11.742 12.3117 11.6775 12.3765C11.613 12.4413 11.5254 12.4778 11.434 12.4781C11.3426 12.4778 11.255 12.4413 11.1905 12.3765C11.126 12.3117 11.0898 12.224 11.09 12.1326V11.256H10.2139C10.1225 11.2563 10.0348 11.2203 9.96988 11.1559C9.905 11.0915 9.86834 11.004 9.86794 10.9125C9.86794 10.7225 10.0229 10.5685 10.2139 10.5685L11.09 10.568V9.69204C11.0898 9.60063 11.126 9.5129 11.1905 9.44812C11.255 9.38334 11.3426 9.3468 11.434 9.34654ZM7.7339 3.688C6.52388 3.688 5.54286 4.66301 5.54286 5.86602C5.54286 7.06902 6.52388 8.04453 7.7334 8.04453C8.94293 8.04453 9.92394 7.06952 9.92394 5.86602C9.92394 4.66251 8.94343 3.688 7.7339 3.688Z" fill="#0D0D0D"/>
</svg>
