<svg width="16" height="16" viewBox="0 0 16 16" fill="none" xmlns="http://www.w3.org/2000/svg">
<path d="M9.86563 3.84313C9.90855 3.79542 9.94211 3.7393 9.96438 3.67797C9.98665 3.61665 9.99721 3.55131 9.99544 3.4857C9.99367 3.42008 9.97962 3.35548 9.95408 3.29557C9.92854 3.23566 9.89202 3.18163 9.8466 3.13654C9.80118 3.09146 9.74775 3.05622 9.68937 3.03282C9.63098 3.00943 9.56878 2.99834 9.50631 3.0002C9.44384 3.00206 9.38234 3.01682 9.3253 3.04364C9.26826 3.07046 9.21682 3.10883 9.1739 3.15653L5.13004 7.65389C5.04653 7.74667 5 7.86951 5 7.99719C5 8.12487 5.04653 8.24771 5.13004 8.34049L9.1739 12.8384C9.21653 12.8871 9.26797 12.9265 9.32521 12.9542C9.38246 12.9819 9.44437 12.9973 9.50736 12.9997C9.57035 13.002 9.63315 12.9912 9.69212 12.9679C9.75109 12.9445 9.80506 12.9091 9.85088 12.8636C9.89671 12.8182 9.93348 12.7636 9.95906 12.7031C9.98464 12.6426 9.99852 12.5774 9.99989 12.5112C10.0013 12.445 9.9901 12.3792 9.96705 12.3176C9.944 12.2559 9.90953 12.1998 9.86563 12.1523L6.13006 7.99719L9.86563 3.84313Z" fill="#0D0D0D"/>
</svg>
