<svg width="24" height="24" viewBox="0 0 24 24" fill="none" xmlns="http://www.w3.org/2000/svg">
<path d="M6.9211 12.5002L12.3601 17.9392C12.4574 18.0365 12.5084 18.1512 12.5131 18.2832C12.5171 18.4152 12.4638 18.5362 12.3531 18.6462C12.2438 18.7529 12.1261 18.8072 12.0001 18.8092C11.8748 18.8105 11.7568 18.7562 11.6461 18.6462L5.5661 12.5662C5.47877 12.4782 5.41743 12.3889 5.3821 12.2982C5.34677 12.2075 5.3291 12.1082 5.3291 12.0002C5.3291 11.8922 5.34677 11.7929 5.3821 11.7022C5.41743 11.6115 5.47877 11.5225 5.5661 11.4352L11.6461 5.3542C11.7394 5.26087 11.8531 5.21087 11.9871 5.2042C12.1218 5.19753 12.2441 5.24753 12.3541 5.3542C12.4641 5.4642 12.5191 5.58287 12.5191 5.7102C12.5191 5.8382 12.4641 5.9572 12.3541 6.0672L6.9201 11.5002H18.5001C18.6428 11.5002 18.7618 11.5479 18.8571 11.6432C18.9524 11.7385 19.0001 11.8575 19.0001 12.0002C19.0001 12.1429 18.9524 12.2619 18.8571 12.3572C18.7618 12.4525 18.6428 12.5002 18.5001 12.5002H6.9211Z" fill="#0D0D0D"/>
</svg>
