<svg width="20" height="20" viewBox="0 0 20 20" fill="none" xmlns="http://www.w3.org/2000/svg">
<g clip-path="url(#clip0_3120_11567)">
<path fill-rule="evenodd" clip-rule="evenodd" d="M15.8337 7.5013C15.8337 10.44 13.6606 12.8712 10.8337 13.2756V16.668C10.8337 17.1282 10.4606 17.5013 10.0003 17.5013C9.54009 17.5013 9.16699 17.1282 9.16699 16.668V13.2756C6.34008 12.8712 4.16699 10.44 4.16699 7.5013C4.16699 4.27964 6.77866 1.66797 10.0003 1.66797C13.222 1.66797 15.8337 4.27964 15.8337 7.5013ZM10.0003 11.668C12.3015 11.668 14.167 9.80249 14.167 7.5013C14.167 5.20012 12.3015 3.33464 10.0003 3.33464C7.69914 3.33464 5.83366 5.20012 5.83366 7.5013C5.83366 9.80249 7.69914 11.668 10.0003 11.668Z" fill="#FF7F33"/>
<path d="M10.0003 20.0013C10.4606 20.0013 10.8337 19.6282 10.8337 19.168C10.8337 18.7077 10.4606 18.3346 10.0003 18.3346C9.54009 18.3346 9.16699 18.7077 9.16699 19.168C9.16699 19.6282 9.54009 20.0013 10.0003 20.0013Z" fill="#FF7F33"/>
</g>
<defs>
<clipPath id="clip0_3120_11567">
<rect width="20" height="20" fill="white"/>
</clipPath>
</defs>
</svg>
