<svg width="16" height="16" viewBox="0 0 16 16" fill="none" xmlns="http://www.w3.org/2000/svg">
<path d="M4 12.9998H12M4.833 8.65923C4.61981 8.89664 4.50005 9.21831 4.5 9.55369V11.3332H6.1115C6.4135 11.3332 6.703 11.1998 6.9165 10.962L11.6665 5.68141C11.8796 5.44396 11.9993 5.12229 11.9993 4.78695C11.9993 4.4516 11.8796 4.12994 11.6665 3.89249L11.1975 3.37026C11.0917 3.25268 10.9661 3.15941 10.8279 3.09579C10.6897 3.03218 10.5415 2.99946 10.3919 2.99951C10.2423 2.99956 10.0941 3.03238 9.95594 3.09609C9.81774 3.15981 9.6922 3.25316 9.5865 3.37082L4.833 8.65923Z" stroke="#AF6F22" stroke-width="0.75" stroke-linecap="round" stroke-linejoin="round"/>
</svg>
