<svg width="16" height="16" viewBox="0 0 16 16" fill="none" xmlns="http://www.w3.org/2000/svg">
<path d="M9.89609 14H9.81998C7.22065 14 5.96782 12.9776 5.7512 10.6874C5.72779 10.4479 5.90342 10.2317 6.1493 10.2084C6.38347 10.185 6.60594 10.3661 6.62936 10.6056C6.79913 12.4401 7.66558 13.1237 9.82583 13.1237H9.90194C12.2847 13.1237 13.1277 12.2824 13.1277 9.90458V6.09542C13.1277 3.71762 12.2847 2.87634 9.90194 2.87634H9.82583C7.65387 2.87634 6.78742 3.57157 6.62936 5.44109C6.60009 5.68062 6.39518 5.86173 6.1493 5.83836C5.90342 5.82084 5.72779 5.60467 5.74535 5.36514C5.9444 3.03992 7.20308 2 9.81998 2H9.89609C12.7706 2 14 3.22687 14 6.09542V9.90458C14 12.7731 12.7706 14 9.89609 14Z" fill="#0D0D0D"/>
<path d="M9.75465 8.43835H3.0924C2.85237 8.43835 2.65332 8.23971 2.65332 8.00018C2.65332 7.76065 2.85237 7.56201 3.0924 7.56201H9.75465C9.99468 7.56201 10.1937 7.76065 10.1937 8.00018C10.1937 8.23971 9.99468 8.43835 9.75465 8.43835Z" fill="#0D0D0D"/>
<path d="M4.39882 10.3956C4.28759 10.3956 4.17636 10.3547 4.08854 10.2671L2.12733 8.30995C1.95756 8.14053 1.95756 7.8601 2.12733 7.69067L4.08854 5.73351C4.25832 5.56409 4.53932 5.56409 4.7091 5.73351C4.87888 5.90294 4.87888 6.18337 4.7091 6.35279L3.05817 8.00031L4.7091 9.64783C4.87888 9.81725 4.87888 10.0977 4.7091 10.2671C4.62714 10.3547 4.51005 10.3956 4.39882 10.3956Z" fill="#0D0D0D"/>
</svg>
