<svg width="24" height="24" viewBox="0 0 24 24" fill="none" xmlns="http://www.w3.org/2000/svg">
<g clip-path="url(#clip0_2349_9739)">
<path d="M19.3137 23.9873H4.67459C2.08967 23.9873 -0.00585938 21.8918 -0.00585938 19.3069V4.66775C-0.00585938 2.08284 2.08967 -0.0126953 4.67459 -0.0126953H19.3137C21.8986 -0.0126953 23.9941 2.08284 23.9941 4.66775V19.3069C23.9941 21.8918 21.8986 23.9873 19.3137 23.9873Z" fill="#0C2647"/>
<path d="M17.6064 11.7933C17.5031 11.1244 17.0722 10.5445 16.4566 10.2439C15.8343 9.93909 15.129 9.96025 14.522 10.2998L11.6712 11.5546V12.3386L12.7321 11.8848C13.5847 11.5038 14.4466 11.806 14.8301 12.4427C14.8488 12.474 14.9368 12.6417 14.9368 12.9101L14.9224 16.0877C14.9207 16.3256 14.8268 16.5534 14.6583 16.7235L14.654 16.7269C14.4661 16.9149 14.2061 17.03 13.92 17.03C13.9106 17.03 11.1632 17.0309 10.8093 17.03C10.4376 17.0173 10.0938 16.8954 9.80848 16.6956C9.31571 16.3502 9.04054 15.7702 9.0397 15.1682L9.03716 9.15167L9.0524 7.84779C9.07949 7.65559 9.16754 7.47609 9.3064 7.33554L9.31063 7.33216C9.4986 7.14419 9.75853 7.02905 10.0447 7.02905C10.0616 7.02905 15.8521 7.02735 15.8521 7.02735V6.32715C15.8521 6.32715 8.51475 6.33308 8.50459 6.33308H8.5029C8.38267 6.339 8.26583 6.35424 8.15068 6.38049C7.18123 6.58708 6.43785 7.40497 6.34556 8.41337C6.33794 8.48449 6.33794 15.4874 6.34556 15.5585C6.43785 16.5677 7.18123 17.3848 8.15068 17.5914C8.26583 17.6168 8.38267 17.632 8.5029 17.6388H8.50459C8.50798 17.6388 15.455 17.6388 15.4584 17.6388H15.4601C15.5803 17.6329 15.6971 17.6176 15.8123 17.5914C16.7817 17.3848 17.5251 16.5669 17.6174 15.5585C17.6225 15.5306 17.6064 11.7933 17.6064 11.7933Z" fill="white"/>
</g>
<defs>
<clipPath id="clip0_2349_9739">
<rect width="24" height="24" fill="white"/>
</clipPath>
</defs>
</svg>
