<svg width="25" height="24" viewBox="0 0 25 24" fill="none" xmlns="http://www.w3.org/2000/svg">
<path d="M4.10352 10V19C4.10352 19.5304 4.29619 20.0391 4.63915 20.4142C4.98212 20.7893 5.44727 21 5.9323 21H18.7338C19.2188 21 19.6839 20.7893 20.0269 20.4142C20.3699 20.0391 20.5625 19.5304 20.5625 19V10" stroke="#676767" stroke-width="2"/>
<path d="M14.9229 21V15C14.9229 14.4696 14.7302 13.9609 14.3872 13.5858C14.0443 13.2107 13.5791 13 13.0941 13H11.2653C10.7803 13 10.3151 13.2107 9.97216 13.5858C9.6292 13.9609 9.43652 14.4696 9.43652 15V21" stroke="#676767" stroke-width="2" stroke-miterlimit="16"/>
<path d="M21.3103 9.364L19.7613 3.435C19.7286 3.30965 19.6593 3.19939 19.5641 3.1209C19.4689 3.04241 19.353 2.99997 19.2337 3H15.5332L15.9675 8.704C15.9743 8.79568 16.0008 8.88429 16.045 8.96254C16.0892 9.04078 16.1498 9.10641 16.2217 9.154C16.5784 9.387 17.2751 9.817 17.8192 10C18.7482 10.313 20.1052 10.2 20.8787 10.096C20.9539 10.0854 21.0261 10.0569 21.0902 10.0126C21.1543 9.96835 21.2089 9.90929 21.2499 9.8396C21.291 9.7699 21.3177 9.69123 21.3282 9.60909C21.3386 9.52695 21.3325 9.44331 21.3103 9.364Z" stroke="#676767" stroke-width="2"/>
<path d="M14.1622 10C14.6816 9.825 15.34 9.426 15.7076 9.188C15.7931 9.13205 15.8625 9.05087 15.9078 8.95377C15.953 8.85667 15.9724 8.74757 15.9636 8.639L15.5338 3H9.13309L8.70332 8.639C8.69434 8.74774 8.7136 8.85704 8.75889 8.95433C8.80419 9.05163 8.87367 9.13297 8.95935 9.189C9.32694 9.426 9.9853 9.825 10.5047 10C11.8699 10.46 12.7971 10.46 14.1622 10Z" stroke="#676767" stroke-width="2"/>
<path d="M4.90424 3.435L3.35526 9.365C3.3334 9.44418 3.32755 9.52762 3.33813 9.60951C3.34871 9.69141 3.37546 9.76981 3.41653 9.83927C3.45759 9.90873 3.51199 9.96758 3.57594 10.0117C3.63989 10.0559 3.71186 10.0843 3.78685 10.095C4.55951 10.2 5.91738 10.312 6.84641 10C7.39047 9.817 8.08815 9.387 8.44385 9.155C8.51592 9.10731 8.57658 9.04153 8.62078 8.9631C8.66499 8.88467 8.69147 8.79585 8.69805 8.704L9.13238 3H5.43184C5.31263 2.99997 5.19664 3.04241 5.10145 3.1209C5.00625 3.19939 4.93702 3.30965 4.90424 3.435Z" stroke="#676767" stroke-width="2"/>
</svg>
