<svg width="32" height="24" viewBox="0 0 32 24" fill="none" xmlns="http://www.w3.org/2000/svg">
<path fill-rule="evenodd" clip-rule="evenodd" d="M11.7143 10.2H7.42857C7.04969 10.2 6.68633 10.0483 6.41842 9.77823C6.15051 9.50818 6 9.14191 6 8.76V4.44C6 4.05809 6.15051 3.69182 6.41842 3.42177C6.68633 3.15171 7.04969 3 7.42857 3H11.7143C12.0932 3 12.4565 3.15171 12.7244 3.42177C12.9923 3.69182 13.1429 4.05809 13.1429 4.44V8.76C13.1429 9.14191 12.9923 9.50818 12.7244 9.77823C12.4565 10.0483 12.0932 10.2 11.7143 10.2ZM17.4286 4.08C17.1444 4.08 16.8719 4.19379 16.671 4.39632C16.47 4.59886 16.3571 4.87357 16.3571 5.16C16.3571 5.44643 16.47 5.72114 16.671 5.92368C16.8719 6.12621 17.1444 6.24 17.4286 6.24H18.5V16.2638C19.0176 15.7536 19.6767 15.4138 20.3902 15.2896C21.1036 15.1654 21.8376 15.2626 22.495 15.5683C23.1524 15.874 23.7022 16.3738 24.0714 17.0016C24.4407 17.6293 24.6121 18.3553 24.5629 19.0834C25.4586 18.7666 26 17.8406 26 16.68C26 13.9051 23.7429 11.4658 20.6429 11.2901V9.91056C20.9571 10.0949 21.3243 10.2 21.7143 10.2H23.1429C23.3323 10.2 23.514 10.1241 23.6479 9.98912C23.7819 9.85409 23.8571 9.67096 23.8571 9.48V6.6C23.8571 6.40904 23.7819 6.22591 23.6479 6.09088C23.514 5.95586 23.3323 5.88 23.1429 5.88H21.7143C21.3243 5.88 20.9571 5.98512 20.6429 6.168V5.16C20.6429 4.87357 20.53 4.59886 20.329 4.39632C20.1281 4.19379 19.8556 4.08 19.5714 4.08H17.4286ZM17.4429 19.2C17.3674 18.4494 17.5278 17.6938 17.9014 17.04H17.7857C17.5016 17.04 17.229 16.9262 17.0281 16.7237C16.8272 16.5211 16.7143 16.2464 16.7143 15.96V15.24C16.7143 14.72 16.6127 14.205 16.4152 13.7246C16.2178 13.2441 15.9284 12.8076 15.5636 12.4399C15.1988 12.0721 14.7657 11.7804 14.2891 11.5814C13.8125 11.3824 13.3016 11.28 12.7857 11.28H9.92857C8.88665 11.28 7.8874 11.6972 7.15065 12.4399C6.4139 13.1825 6 14.1897 6 15.24L6 18.12C6 18.7162 6.48 19.2 7.07143 19.2H7.44286C7.393 18.6992 7.44782 18.1935 7.60378 17.7154C7.75974 17.2373 8.01337 16.7975 8.34833 16.4243C8.68329 16.051 9.09212 15.7527 9.54848 15.5486C10.0048 15.3444 10.4986 15.2389 10.9979 15.2389C11.4971 15.2389 11.9909 15.3444 12.4472 15.5486C12.9036 15.7527 13.3124 16.051 13.6474 16.4243C13.9823 16.7975 14.236 17.2373 14.3919 17.7154C14.5479 18.1935 14.6027 18.6992 14.5529 19.2H17.4429ZM8.85429 18.8386C8.85429 19.4118 9.0802 19.9616 9.48233 20.3669C9.88446 20.7723 10.4299 21 10.9986 21C11.5673 21 12.1127 20.7723 12.5148 20.3669C12.9169 19.9616 13.1429 19.4118 13.1429 18.8386C13.1429 18.2653 12.9169 17.7155 12.5148 17.3102C12.1127 16.9048 11.5673 16.6771 10.9986 16.6771C10.4299 16.6771 9.88446 16.9048 9.48233 17.3102C9.0802 17.7155 8.85429 18.2653 8.85429 18.8386ZM18.8543 18.8386C18.8543 19.4118 19.0802 19.9616 19.4823 20.3669C19.8845 20.7723 20.4299 21 20.9986 21C21.5673 21 22.1127 20.7723 22.5148 20.3669C22.9169 19.9616 23.1429 19.4118 23.1429 18.8386C23.1429 18.2653 22.9169 17.7155 22.5148 17.3102C22.1127 16.9048 21.5673 16.6771 20.9986 16.6771C20.4299 16.6771 19.8845 16.9048 19.4823 17.3102C19.0802 17.7155 18.8543 18.2653 18.8543 18.8386Z" fill="#FF7F33"/>
</svg>
