<svg width="24" height="24" viewBox="0 0 24 24" fill="none" xmlns="http://www.w3.org/2000/svg">
<path d="M10.7068 8.70643C10.8889 8.51783 10.9897 8.26523 10.9875 8.00303C10.9852 7.74083 10.88 7.49002 10.6946 7.30461C10.5092 7.1192 10.2584 7.01403 9.99619 7.01176C9.73399 7.00948 9.48139 7.11027 9.29279 7.29243L5.29279 11.2924C5.10532 11.48 5 11.7343 5 11.9994C5 12.2646 5.10532 12.5189 5.29279 12.7064L9.29279 16.7064C9.48139 16.8886 9.73399 16.9894 9.99619 16.9871C10.2584 16.9848 10.5092 16.8797 10.6946 16.6942C10.88 16.5088 10.9852 16.258 10.9875 15.9958C10.9897 15.7336 10.8889 15.481 10.7068 15.2924L8.41379 12.9994H17.9998C18.265 12.9994 18.5194 12.8941 18.7069 12.7065C18.8944 12.519 18.9998 12.2646 18.9998 11.9994C18.9998 11.7342 18.8944 11.4799 18.7069 11.2923C18.5194 11.1048 18.265 10.9994 17.9998 10.9994H8.41379L10.7068 8.70643Z" fill="#FF7F33"/>
</svg>
