<svg width="16" height="16" viewBox="0 0 16 16" fill="none" xmlns="http://www.w3.org/2000/svg">
<path fill-rule="evenodd" clip-rule="evenodd" d="M8 14C8.78793 14 9.56815 13.8448 10.2961 13.5433C11.0241 13.2417 11.6855 12.7998 12.2426 12.2426C12.7998 11.6855 13.2417 11.0241 13.5433 10.2961C13.8448 9.56815 14 8.78793 14 8C14 7.21207 13.8448 6.43185 13.5433 5.7039C13.2417 4.97595 12.7998 4.31451 12.2426 3.75736C11.6855 3.20021 11.0241 2.75825 10.2961 2.45672C9.56815 2.15519 8.78793 2 8 2C6.4087 2 4.88258 2.63214 3.75736 3.75736C2.63214 4.88258 2 6.4087 2 8C2 9.5913 2.63214 11.1174 3.75736 12.2426C4.88258 13.3679 6.4087 14 8 14ZM8.66667 4.33333C8.66667 4.15652 8.59643 3.98695 8.4714 3.86193C8.34638 3.7369 8.17681 3.66667 8 3.66667C7.82319 3.66667 7.65362 3.7369 7.5286 3.86193C7.40357 3.98695 7.33333 4.15652 7.33333 4.33333V7.83333C7.33333 8.29333 7.70667 8.66667 8.16667 8.66667H10.3333C10.5101 8.66667 10.6797 8.59643 10.8047 8.4714C10.9298 8.34638 11 8.17681 11 8C11 7.82319 10.9298 7.65362 10.8047 7.5286C10.6797 7.40357 10.5101 7.33333 10.3333 7.33333H8.66667V4.33333Z" fill="#66BFA1"/>
</svg>
