<svg width="25" height="24" viewBox="0 0 25 24" fill="none" xmlns="http://www.w3.org/2000/svg">
<mask id="mask0_1478_7015" style="mask-type:alpha" maskUnits="userSpaceOnUse" x="0" y="0" width="25" height="24">
<rect x="0.5" width="24" height="24" fill="#D9D9D9"/>
</mask>
<g mask="url(#mask0_1478_7015)">
<path fill-rule="evenodd" clip-rule="evenodd" d="M1.39932 18.5959C1.74869 18.9454 2.16135 19.1202 2.63729 19.1202H15.3359V15.6328C15.3359 14.3902 16.3433 13.3828 17.5859 13.3828H21.8839V4.0185C21.8839 3.54083 21.7085 3.12671 21.3578 2.77613C21.0072 2.42537 20.5931 2.25 20.1154 2.25H2.63729C2.16135 2.25 1.74869 2.42537 1.39932 2.77613C1.04977 3.12671 0.875 3.54083 0.875 4.0185V17.3579C0.875 17.8339 1.04977 18.2465 1.39932 18.5959ZM20.1154 10.1067H2.63729V6.76993H20.1154V10.1067Z" fill="#0C2647"/>
<path d="M18.007 15C17.7583 15 17.5493 15.0857 17.38 15.2571C17.2106 15.4285 17.126 15.6386 17.126 15.8872V19.9889C17.126 20.2251 17.2069 20.4239 17.3689 20.5851C17.5308 20.7462 17.7306 20.8267 17.9682 20.8267C18.2019 20.8267 18.3981 20.7462 18.5569 20.5851C18.7159 20.4239 18.7954 20.2251 18.7954 19.9889V17.8684L22.0331 21.1061C22.2008 21.2737 22.3953 21.3575 22.6167 21.3575C22.8381 21.3575 23.0325 21.2733 23.2 21.1048C23.3676 20.9363 23.4514 20.7365 23.4514 20.5055C23.4514 20.2742 23.3676 20.0748 23.2 19.9072L19.9685 16.6756H22.1149C22.3511 16.6756 22.5499 16.5947 22.7111 16.4328C22.8722 16.2707 22.9527 16.0708 22.9527 15.8332C22.9527 15.5955 22.8722 15.3972 22.7111 15.2382C22.5499 15.0794 22.3511 15 22.1149 15H18.007Z" fill="#66BFA1"/>
</g>
</svg>
