<svg width="16" height="16" viewBox="0 0 16 16" fill="none" xmlns="http://www.w3.org/2000/svg">
<path d="M10.8782 10L10.3341 10.9663L12.9981 10.5549C12.4605 10.3003 11.7327 10.1183 10.8782 10ZM4.01558 10.2107C2.78169 10.518 2 11.0216 2 11.7696C2.00051 11.9306 2.03778 12.0897 2.10927 12.2359L6.3848 11.5759L4.01558 10.2107ZM13.8998 11.3333L7.94918 12.2493L9.51849 13.9355C12.0955 13.7175 14 12.94 14 11.7696C14 11.6136 13.9644 11.4685 13.8998 11.3333ZM6.94372 12.4075L2.92301 13.0281C3.98579 13.6499 5.8616 14 8 14C8.1296 14 8.25624 13.9965 8.38386 13.994L6.94372 12.4075Z" fill="#66BFA1"/>
<path d="M8.00027 1C5.80291 1 4 2.76704 4 4.9224C4 5.75099 4.26786 6.52285 4.72014 7.15755L7.31302 11.5642L7.32408 11.5784C7.4264 11.7097 7.52629 11.8134 7.64357 11.8896C7.76085 11.9659 7.90644 12.0115 8.04934 11.9975C8.33486 11.9694 8.50971 11.7711 8.67565 11.55L8.68455 11.5386L11.547 6.74882L11.5487 6.74577C11.6158 6.62649 11.6654 6.5051 11.7075 6.38688C11.9004 5.92191 11.9997 5.42457 12 4.9224C12 2.76704 10.1976 1 8.00027 1ZM8.00027 3.259C8.95349 3.259 9.69749 3.98912 9.69749 4.92227C9.69749 5.85569 8.95349 6.58554 8.00027 6.58554C7.04691 6.58554 6.30251 5.85556 6.30251 4.92227C6.30251 3.98925 7.04705 3.259 8.00027 3.259Z" fill="#66BFA1"/>
</svg>
