<svg width="24" height="24" viewBox="0 0 24 24" fill="none" xmlns="http://www.w3.org/2000/svg">
<path d="M16.5002 8.93233C16.4777 8.93233 16.4627 8.93233 16.4402 8.93233H16.4027C14.9852 8.88733 13.9277 7.79233 13.9277 6.44233C13.9277 5.06233 15.0527 3.94482 16.4252 3.94482C17.7977 3.94482 18.9227 5.06983 18.9227 6.44233C18.9152 7.79983 17.8577 8.89483 16.5077 8.93983C16.5077 8.93233 16.5077 8.93233 16.5002 8.93233ZM16.4252 5.06233C15.6677 5.06233 15.0527 5.67733 15.0527 6.43483C15.0527 7.17733 15.6302 7.77733 16.3727 7.80733C16.3802 7.79983 16.4402 7.79983 16.5077 7.80733C17.2352 7.76983 17.7977 7.16983 17.8052 6.43483C17.8052 5.67733 17.1902 5.06233 16.4252 5.06233Z" fill="#AF6F22"/>
<path d="M16.5084 14.46C16.2159 14.46 15.9234 14.4375 15.6309 14.385C15.3234 14.3325 15.1209 14.04 15.1734 13.7325C15.2259 13.425 15.5184 13.2225 15.8259 13.275C16.7484 13.4325 17.7234 13.26 18.3759 12.825C18.7284 12.5925 18.9159 12.3 18.9159 12.0075C18.9159 11.715 18.7209 11.43 18.3759 11.1975C17.7234 10.7625 16.7334 10.59 15.8034 10.755C15.4959 10.815 15.2034 10.605 15.1509 10.2975C15.0984 9.98999 15.3009 9.69749 15.6084 9.64499C16.8309 9.42749 18.0984 9.65998 18.9984 10.26C19.6584 10.7025 20.0409 11.3325 20.0409 12.0075C20.0409 12.675 19.6659 13.3125 18.9984 13.7625C18.3159 14.2125 17.4309 14.46 16.5084 14.46Z" fill="#AF6F22"/>
<path d="M7.47785 8.9325C7.47035 8.9325 7.46285 8.9325 7.46285 8.9325C6.11285 8.8875 5.05535 7.7925 5.04785 6.4425C5.04785 5.0625 6.17285 3.9375 7.54535 3.9375C8.91785 3.9375 10.0429 5.0625 10.0429 6.435C10.0429 7.7925 8.98535 8.8875 7.63535 8.9325L7.47785 8.37L7.53035 8.9325C7.51535 8.9325 7.49285 8.9325 7.47785 8.9325ZM7.55285 7.8075C7.59785 7.8075 7.63535 7.8075 7.68035 7.815C8.34785 7.785 8.93285 7.185 8.93285 6.4425C8.93285 5.685 8.31785 5.07 7.56035 5.07C6.80285 5.07 6.18785 5.685 6.18785 6.4425C6.18785 7.1775 6.75785 7.77 7.48535 7.815C7.49285 7.8075 7.52285 7.8075 7.55285 7.8075Z" fill="#AF6F22"/>
<path d="M7.46902 14.46C6.54652 14.46 5.66152 14.2125 4.97902 13.7625C4.31902 13.32 3.93652 12.6825 3.93652 12.0075C3.93652 11.34 4.31902 10.7025 4.97902 10.26C5.87902 9.65998 7.14652 9.42749 8.36902 9.64499C8.67652 9.69749 8.87902 9.98999 8.82652 10.2975C8.77402 10.605 8.48152 10.815 8.17402 10.755C7.24402 10.59 6.26152 10.7625 5.60152 11.1975C5.24902 11.43 5.06152 11.715 5.06152 12.0075C5.06152 12.3 5.25652 12.5925 5.60152 12.825C6.25402 13.26 7.22902 13.4325 8.15152 13.275C8.45902 13.2225 8.75152 13.4325 8.80402 13.7325C8.85652 14.04 8.65402 14.3325 8.34652 14.385C8.05402 14.4375 7.76152 14.46 7.46902 14.46Z" fill="#AF6F22"/>
<path d="M12.0012 14.5349C11.9787 14.5349 11.9637 14.5349 11.9412 14.5349H11.9037C10.4862 14.4899 9.42871 13.3949 9.42871 12.0449C9.42871 10.6649 10.5537 9.54736 11.9262 9.54736C13.2987 9.54736 14.4237 10.6724 14.4237 12.0449C14.4162 13.4024 13.3587 14.4974 12.0087 14.5424C12.0087 14.5349 12.0087 14.5349 12.0012 14.5349ZM11.9262 10.6649C11.1687 10.6649 10.5537 11.2799 10.5537 12.0374C10.5537 12.7799 11.1312 13.3799 11.8737 13.4099C11.8812 13.4024 11.9412 13.4024 12.0087 13.4099C12.7362 13.3724 13.2987 12.7724 13.3062 12.0374C13.3062 11.2874 12.6912 10.6649 11.9262 10.6649Z" fill="#AF6F22"/>
<path d="M12 20.07C11.1 20.07 10.2 19.8375 9.50246 19.365C8.84246 18.9225 8.45996 18.2925 8.45996 17.6175C8.45996 16.95 8.83496 16.305 9.50246 15.8625C10.905 14.9325 13.1025 14.9325 14.4975 15.8625C15.1575 16.305 15.54 16.935 15.54 17.61C15.54 18.2775 15.165 18.9225 14.4975 19.365C13.8 19.83 12.9 20.07 12 20.07ZM10.125 16.8075C9.77246 17.04 9.58496 17.3325 9.58496 17.625C9.58496 17.9175 9.77996 18.2025 10.125 18.435C11.1375 19.1175 12.855 19.1175 13.8675 18.435C14.22 18.2025 14.4075 17.91 14.4075 17.6175C14.4075 17.325 14.2125 17.04 13.8675 16.8075C12.8625 16.125 11.145 16.1325 10.125 16.8075Z" fill="#AF6F22"/>
</svg>
