<svg width="13" height="10" viewBox="0 0 13 10" fill="none" xmlns="http://www.w3.org/2000/svg">
<path d="M8.80895 5H3.6936C3.59306 5.00036 3.4958 4.95243 3.41963 4.865C3.35549 4.79951 3.30638 4.71142 3.27786 4.61069C3.24934 4.50996 3.24255 4.40061 3.25825 4.295L3.69736 1.31C3.73 1.08201 3.82134 0.876342 3.95563 0.728472C4.08992 0.580602 4.25873 0.4998 4.43294 0.500004H8.0546C8.2397 0.499258 8.41811 0.592189 8.55375 0.760004C8.67522 0.902291 8.75828 1.09375 8.79019 1.305L9.24055 4.29C9.25406 4.37563 9.25308 4.4642 9.23767 4.54926C9.22226 4.63432 9.19282 4.71374 9.15148 4.78174C9.11015 4.84974 9.05796 4.90461 8.99871 4.94237C8.93946 4.98012 8.87463 4.99981 8.80895 5Z" fill="#FFC004"/>
<path d="M8.39286 0.768046L3.41449 5C3.35229 4.93249 3.30467 4.84168 3.27702 4.73783C3.24936 4.63398 3.24278 4.52125 3.258 4.41237L3.68378 1.33506C3.71544 1.10001 3.80401 0.887982 3.93422 0.735538C4.06444 0.583095 4.22813 0.499794 4.39706 0.500005H7.90885C8.08834 0.499235 8.26134 0.59504 8.39286 0.768046Z" fill="#FFD863"/>
<path d="M5.80895 9.5H0.693603C0.593065 9.50036 0.495798 9.45243 0.419633 9.365C0.355491 9.29951 0.306383 9.21142 0.277863 9.11069C0.249344 9.00996 0.242551 8.90061 0.258254 8.795L0.697356 5.81C0.730001 5.58201 0.821344 5.37634 0.95563 5.22847C1.08992 5.0806 1.25873 4.9998 1.43295 5H5.0546C5.2397 4.99926 5.41811 5.09219 5.55375 5.26C5.67522 5.40229 5.75828 5.59375 5.79019 5.805L6.24055 8.79C6.25406 8.87563 6.25307 8.9642 6.23767 9.04926C6.22226 9.13432 6.19282 9.21374 6.15148 9.28173C6.11015 9.34973 6.05796 9.40461 5.99871 9.44236C5.93945 9.48012 5.87463 9.49981 5.80895 9.5Z" fill="#FFA600"/>
<path d="M5.39286 5.26805L0.414487 9.5C0.352291 9.43249 0.304672 9.34168 0.277018 9.23783C0.249363 9.13398 0.242777 9.02125 0.258004 8.91237L0.683785 5.83506C0.71544 5.60001 0.804012 5.38798 0.934224 5.23554C1.06444 5.08309 1.22813 4.99979 1.39706 5H4.90885C5.08834 4.99924 5.26133 5.09504 5.39286 5.26805Z" fill="#FFC004"/>
<path d="M11.809 9.5H6.6936C6.59306 9.50036 6.4958 9.45243 6.41963 9.365C6.35549 9.29951 6.30638 9.21142 6.27786 9.11069C6.24934 9.00996 6.24255 8.90061 6.25825 8.795L6.69735 5.81C6.73 5.58201 6.82134 5.37634 6.95563 5.22847C7.08992 5.0806 7.25873 4.9998 7.43294 5H11.0546C11.2397 4.99926 11.4181 5.09219 11.5537 5.26C11.6752 5.40229 11.7583 5.59375 11.7902 5.805L12.2405 8.79C12.2541 8.87563 12.2531 8.9642 12.2377 9.04926C12.2223 9.13432 12.1928 9.21374 12.1515 9.28173C12.1101 9.34973 12.058 9.40461 11.9987 9.44236C11.9395 9.48012 11.8746 9.49981 11.809 9.5Z" fill="#FFA600"/>
<path d="M11.3929 5.26805L6.41449 9.5C6.35229 9.43249 6.30467 9.34168 6.27702 9.23783C6.24936 9.13398 6.24278 9.02125 6.258 8.91237L6.68378 5.83506C6.71544 5.60001 6.80401 5.38798 6.93422 5.23554C7.06444 5.08309 7.22813 4.99979 7.39706 5H10.9088C11.0883 4.99924 11.2613 5.09504 11.3929 5.26805Z" fill="#FFC004"/>
</svg>
