<svg width="11" height="10" viewBox="0 0 11 10" fill="none" xmlns="http://www.w3.org/2000/svg">
<path d="M5.49984 7.08398C5.41121 7.08345 5.3238 7.05924 5.24394 7.01311C5.16407 6.96699 5.09377 6.90011 5.03812 6.81732L3.5766 4.69232C3.4912 4.56439 3.43746 4.41024 3.4215 4.24743C3.40554 4.08462 3.42801 3.91971 3.48634 3.77148C3.53365 3.64266 3.61086 3.53291 3.70873 3.45533C3.80661 3.37775 3.92103 3.33562 4.03832 3.33398L6.96136 3.33398C7.07865 3.33562 7.19306 3.37775 7.29094 3.45533C7.38882 3.53291 7.46602 3.64266 7.51333 3.77148C7.57167 3.91971 7.59414 4.08462 7.57818 4.24743C7.56222 4.41024 7.50848 4.56439 7.42307 4.69232L5.96155 6.81732C5.9059 6.90011 5.8356 6.96699 5.75574 7.01311C5.67588 7.05924 5.58846 7.08345 5.49984 7.08398Z" fill="#FF0000" fill-opacity="0.98"/>
</svg>
