<svg width="24" height="24" viewBox="0 0 24 24" fill="none" xmlns="http://www.w3.org/2000/svg">
<path d="M9.04514 16.7976H19.1579C19.4955 16.7976 19.7901 16.5209 19.7901 16.149C19.7901 15.7771 19.4955 15.5004 19.1579 15.5004H9.19229C8.69834 15.5004 8.39516 15.1544 8.31715 14.6272L8.1785 13.7193H19.1749C20.4401 13.7193 21.0901 12.9408 21.272 11.7046L21.9652 7.13031C21.9838 7.02171 21.9954 6.91204 22 6.80197C22 6.38693 21.688 6.10138 21.2114 6.10138H7.06082L6.89592 5.00347C6.80941 4.33756 6.56686 4 5.68322 4H2.64111C2.29467 4 2 4.30325 2 4.6493C2 5.00347 2.29467 5.30635 2.64148 5.30635H5.57008L6.95656 14.8002C7.13883 16.028 7.78844 16.7976 9.04514 16.7976ZM20.5266 7.407L19.9122 11.5489C19.8426 12.0849 19.5568 12.4136 19.0455 12.4136L7.98846 12.4221L7.2516 7.407H20.5266ZM9.72988 21C9.91466 21.0015 10.0979 20.9663 10.2689 20.8964C10.4399 20.8266 10.5953 20.7234 10.726 20.5931C10.8566 20.4627 10.96 20.3077 11.03 20.137C11.1 19.9664 11.1353 19.7835 11.1337 19.5992C11.1346 19.415 11.0988 19.2324 11.0286 19.0621C10.9583 18.8918 10.8549 18.737 10.7244 18.6068C10.5939 18.4765 10.4388 18.3734 10.2681 18.3033C10.0974 18.2332 9.91447 18.1975 9.72988 18.1984C8.94162 18.1984 8.31752 18.8211 8.31752 19.5992C8.31752 20.3861 8.94162 21 9.72988 21ZM17.8321 21C18.6207 21 19.2444 20.3861 19.2444 19.5992C19.2444 18.8207 18.6207 18.1984 17.8321 18.1984C17.0523 18.1984 16.4197 18.8211 16.4197 19.5992C16.4197 20.3861 17.0523 21 17.8321 21Z" fill="black"/>
</svg>
