<svg width="24" height="24" viewBox="0 0 24 24" fill="none" xmlns="http://www.w3.org/2000/svg">
<path d="M13.2932 15.2911C13.1111 15.4797 13.0103 15.7323 13.0125 15.9945C13.0148 16.2567 13.12 16.5075 13.3054 16.6929C13.4908 16.8784 13.7416 16.9835 14.0038 16.9858C14.266 16.9881 14.5186 16.8873 14.7072 16.7051L18.7072 12.7051C18.8947 12.5176 19 12.2633 19 11.9981C19 11.733 18.8947 11.4787 18.7072 11.2911L14.7072 7.29113C14.5186 7.10897 14.266 7.00817 14.0038 7.01045C13.7416 7.01273 13.4908 7.1179 13.3054 7.30331C13.12 7.48872 13.0148 7.73953 13.0125 8.00173C13.0103 8.26392 13.1111 8.51652 13.2932 8.70513L15.5862 10.9981H6.00021C5.735 10.9981 5.48064 11.1035 5.2931 11.291C5.10557 11.4786 5.00021 11.7329 5.00021 11.9981C5.00021 12.2633 5.10557 12.5177 5.2931 12.7052C5.48064 12.8928 5.735 12.9981 6.00021 12.9981H15.5862L13.2932 15.2911Z" fill="black"/>
</svg>
