<svg width="16" height="16" viewBox="0 0 16 16" fill="none" xmlns="http://www.w3.org/2000/svg">
<path d="M11.0002 5.95489C10.9852 5.95489 10.9752 5.95489 10.9602 5.95489H10.9352C9.99016 5.92489 9.28516 5.19488 9.28516 4.29488C9.28516 3.37488 10.0352 2.62988 10.9502 2.62988C11.8652 2.62988 12.6152 3.37988 12.6152 4.29488C12.6102 5.19988 11.9052 5.92988 11.0052 5.95988C11.0052 5.95488 11.0052 5.95489 11.0002 5.95489ZM10.9502 3.37489C10.4452 3.37489 10.0352 3.78489 10.0352 4.28989C10.0352 4.78489 10.4202 5.18489 10.9152 5.20489C10.9202 5.19989 10.9602 5.19989 11.0052 5.20489C11.4902 5.17989 11.8652 4.77989 11.8702 4.28989C11.8702 3.78489 11.4602 3.37489 10.9502 3.37489Z" fill="#0D0D0D"/>
<path d="M11.0052 9.63983C10.8102 9.63983 10.6152 9.62483 10.4202 9.58983C10.2152 9.55483 10.0802 9.35983 10.1152 9.15483C10.1502 8.94983 10.3452 8.81483 10.5502 8.84983C11.1652 8.95483 11.8152 8.83983 12.2502 8.54983C12.4852 8.39483 12.6102 8.19983 12.6102 8.00483C12.6102 7.80983 12.4802 7.61983 12.2502 7.46483C11.8152 7.17483 11.1552 7.05983 10.5352 7.16983C10.3302 7.20983 10.1352 7.06983 10.1002 6.86483C10.0652 6.65983 10.2002 6.46483 10.4052 6.42983C11.2202 6.28483 12.0652 6.43983 12.6652 6.83983C13.1052 7.13483 13.3602 7.55483 13.3602 8.00483C13.3602 8.44983 13.1102 8.87483 12.6652 9.17483C12.2102 9.47483 11.6202 9.63983 11.0052 9.63983Z" fill="#0D0D0D"/>
<path d="M4.98524 5.955C4.98024 5.955 4.97524 5.955 4.97524 5.955C4.07524 5.925 3.37023 5.195 3.36523 4.295C3.36523 3.375 4.11524 2.625 5.03024 2.625C5.94524 2.625 6.69523 3.375 6.69523 4.29C6.69523 5.195 5.99024 5.925 5.09023 5.955L4.98524 5.58L5.02024 5.955C5.01024 5.955 4.99524 5.955 4.98524 5.955ZM5.03523 5.205C5.06523 5.205 5.09024 5.205 5.12024 5.21C5.56524 5.19 5.95523 4.79 5.95523 4.295C5.95523 3.79 5.54524 3.38 5.04024 3.38C4.53524 3.38 4.12523 3.79 4.12523 4.295C4.12523 4.785 4.50523 5.18 4.99023 5.21C4.99523 5.205 5.01523 5.205 5.03523 5.205Z" fill="#0D0D0D"/>
<path d="M4.97902 9.63983C4.36402 9.63983 3.77402 9.47483 3.31902 9.17483C2.87902 8.87983 2.62402 8.45483 2.62402 8.00483C2.62402 7.55983 2.87902 7.13483 3.31902 6.83983C3.91902 6.43983 4.76402 6.28483 5.57902 6.42983C5.78402 6.46483 5.91902 6.65983 5.88402 6.86483C5.84902 7.06983 5.65402 7.20983 5.44902 7.16983C4.82902 7.05983 4.17402 7.17483 3.73402 7.46483C3.49902 7.61983 3.37402 7.80983 3.37402 8.00483C3.37402 8.19983 3.50402 8.39483 3.73402 8.54983C4.16902 8.83983 4.81902 8.95483 5.43402 8.84983C5.63902 8.81483 5.83402 8.95483 5.86902 9.15483C5.90402 9.35983 5.76902 9.55483 5.56402 9.58983C5.36902 9.62483 5.17402 9.63983 4.97902 9.63983Z" fill="#0D0D0D"/>
<path d="M8.00113 9.68975C7.98613 9.68975 7.97613 9.68975 7.96113 9.68975H7.93613C6.99113 9.65975 6.28613 8.92975 6.28613 8.02975C6.28613 7.10975 7.03613 6.36475 7.95113 6.36475C8.86613 6.36475 9.61613 7.11475 9.61613 8.02975C9.61113 8.93475 8.90613 9.66475 8.00613 9.69475C8.00613 9.68975 8.00613 9.68975 8.00113 9.68975ZM7.95113 7.10975C7.44613 7.10975 7.03613 7.51975 7.03613 8.02475C7.03613 8.51975 7.42113 8.91975 7.91613 8.93975C7.92113 8.93475 7.96113 8.93475 8.00613 8.93975C8.49113 8.91475 8.86613 8.51475 8.87113 8.02475C8.87113 7.52475 8.46113 7.10975 7.95113 7.10975Z" fill="#0D0D0D"/>
<path d="M7.99965 13.3799C7.39965 13.3799 6.79965 13.2249 6.33465 12.9099C5.89465 12.6149 5.63965 12.1949 5.63965 11.7449C5.63965 11.2999 5.88965 10.8699 6.33465 10.5749C7.26965 9.95486 8.73465 9.95486 9.66465 10.5749C10.1047 10.8699 10.3596 11.2899 10.3596 11.7399C10.3596 12.1849 10.1097 12.6149 9.66465 12.9099C9.19965 13.2199 8.59965 13.3799 7.99965 13.3799ZM6.74965 11.2049C6.51465 11.3599 6.38965 11.5549 6.38965 11.7499C6.38965 11.9449 6.51965 12.1349 6.74965 12.2899C7.42465 12.7449 8.56965 12.7449 9.24465 12.2899C9.47965 12.1349 9.60465 11.9399 9.60465 11.7449C9.60465 11.5499 9.47465 11.3599 9.24465 11.2049C8.57465 10.7499 7.42965 10.7549 6.74965 11.2049Z" fill="#0D0D0D"/>
</svg>
