<svg width="24" height="23" viewBox="0 0 24 23" fill="none" xmlns="http://www.w3.org/2000/svg">
<path d="M21.9999 17.7403C21.9999 17.9282 21.9209 18.1084 21.7803 18.2413C21.6396 18.3742 21.4488 18.4488 21.2499 18.4488H16.15C15.9829 19.0373 15.615 19.5573 15.1034 19.9281C14.5917 20.299 13.9648 20.5 13.32 20.5C12.6751 20.5 12.0482 20.299 11.5365 19.9281C11.0249 19.5573 10.657 19.0373 10.49 18.4488H2.75C2.55109 18.4488 2.36032 18.3742 2.21967 18.2413C2.07902 18.1084 2 17.9282 2 17.7403C2 17.5523 2.07902 17.3721 2.21967 17.2392C2.36032 17.1063 2.55109 17.0317 2.75 17.0317H10.49C10.657 16.4432 11.0249 15.9232 11.5365 15.5524C12.0482 15.1815 12.6751 14.9805 13.32 14.9805C13.9648 14.9805 14.5917 15.1815 15.1034 15.5524C15.615 15.9232 15.9829 16.4432 16.15 17.0317H21.2499C21.4488 17.0317 21.6396 17.1063 21.7803 17.2392C21.9209 17.3721 21.9999 17.5523 21.9999 17.7403ZM21.9999 5.25975C21.9999 5.44767 21.9209 5.6279 21.7803 5.76079C21.6396 5.89367 21.4488 5.96833 21.2499 5.96833H18.7999C18.6329 6.55681 18.265 7.07678 17.7534 7.44763C17.2417 7.81848 16.6148 8.01949 15.97 8.01949C15.3251 8.01949 14.6982 7.81848 14.1865 7.44763C13.6749 7.07678 13.307 6.55681 13.14 5.96833H2.75C2.65151 5.96833 2.55398 5.95 2.46299 5.91439C2.37199 5.87878 2.28931 5.82659 2.21967 5.76079C2.15003 5.69499 2.09478 5.61688 2.05709 5.53091C2.0194 5.44494 2 5.3528 2 5.25975C2 5.16669 2.0194 5.07455 2.05709 4.98858C2.09478 4.90261 2.15003 4.8245 2.21967 4.7587C2.28931 4.6929 2.37199 4.64071 2.46299 4.6051C2.55398 4.56949 2.65151 4.55116 2.75 4.55116H13.14C13.307 3.96268 13.6749 3.44271 14.1865 3.07186C14.6982 2.70101 15.3251 2.5 15.97 2.5C16.6148 2.5 17.2417 2.70101 17.7534 3.07186C18.265 3.44271 18.6329 3.96268 18.7999 4.55116H21.2499C21.3488 4.54989 21.4469 4.56735 21.5385 4.60251C21.6301 4.63767 21.7133 4.68982 21.7833 4.75587C21.8532 4.82192 21.9084 4.90054 21.9456 4.98709C21.9828 5.07363 22.0013 5.16634 21.9999 5.25975ZM21.9999 11.4953C22.0013 11.5887 21.9828 11.6814 21.9456 11.7679C21.9084 11.8545 21.8532 11.9331 21.7833 11.9992C21.7133 12.0652 21.6301 12.1174 21.5385 12.1525C21.4469 12.1877 21.3488 12.2051 21.2499 12.2039H9.54997C9.38293 12.7923 9.01506 13.3123 8.5034 13.6832C7.99174 14.054 7.36487 14.255 6.71998 14.255C6.0751 14.255 5.44823 14.054 4.93657 13.6832C4.42491 13.3123 4.05704 12.7923 3.88999 12.2039H2.75C2.55109 12.2039 2.36032 12.1292 2.21967 11.9963C2.07902 11.8634 2 11.6832 2 11.4953C2 11.3073 2.07902 11.1271 2.21967 10.9942C2.36032 10.8613 2.55109 10.7867 2.75 10.7867H3.88999C4.05704 10.1982 4.42491 9.67824 4.93657 9.30739C5.44823 8.93654 6.0751 8.73553 6.71998 8.73553C7.36487 8.73553 7.99174 8.93654 8.5034 9.30739C9.01506 9.67824 9.38293 10.1982 9.54997 10.7867H21.2499C21.4488 10.7867 21.6396 10.8613 21.7803 10.9942C21.9209 11.1271 21.9999 11.3073 21.9999 11.4953Z" fill="#8A8A8A"/>
</svg>
