<svg width="34" height="24" viewBox="0 0 34 24" fill="none" xmlns="http://www.w3.org/2000/svg">
<g clip-path="url(#clip0_4197_4629)">
<path d="M33.9972 19.2825C28.6261 19.2821 23.2554 19.2833 17.8847 19.2821C16.9139 19.3133 15.9431 19.3479 14.9727 19.403C14.319 19.454 13.6633 19.4976 13.0113 19.5761C12.5025 19.6789 11.9929 19.7772 11.4829 19.8739C10.6803 20.0339 9.85433 20.0787 9.04026 20.0026C8.88638 19.996 8.73374 19.9808 8.58193 19.957C8.19581 19.9208 7.79329 19.8262 7.48883 19.5724C7.30008 19.4231 7.2094 19.141 7.3284 18.9214C7.47037 18.6359 7.79206 18.5101 8.08257 18.4344C8.39441 18.399 8.70831 18.4151 9.02097 18.3846C9.43416 18.4069 9.84653 18.323 10.2585 18.3822C10.4985 18.3826 10.7386 18.3904 10.977 18.4237C11.1436 18.4393 11.3093 18.4611 11.4755 18.4842C11.9823 18.5566 12.4869 18.6446 12.9929 18.7231C13.9091 18.835 14.8328 18.879 15.7523 18.9325C16.1043 18.9415 16.4576 18.9497 16.808 18.9789C17.6697 19.0217 18.5334 19.0028 19.3963 19.0065H33.996C33.9956 18.5385 33.9968 18.07 33.9951 17.602C31.7441 17.6045 29.4927 17.6012 27.2417 17.6036C26.938 17.639 26.6324 17.6226 26.3279 17.6258C23.6046 17.6258 20.8809 17.6263 18.1576 17.6254C17.5253 17.6752 16.8901 17.6328 16.2566 17.653C16.1191 17.676 15.9812 17.6888 15.843 17.7019C15.5828 17.732 15.3227 17.7686 15.0617 17.7941C14.9394 17.8117 14.8172 17.8278 14.6945 17.8401C14.5726 17.8578 14.4503 17.8734 14.3281 17.8862C13.8697 17.9413 13.4114 17.9956 12.9506 18.024C12.6921 18.056 12.4316 18.0651 12.171 18.0688C11.8735 18.1091 11.5711 18.0762 11.2716 18.0869C9.89372 18.0865 8.51587 18.0873 7.13842 18.0865C6.5135 18.0285 5.88366 18.098 5.25833 18.0437C4.89848 18.04 4.52057 17.9935 4.20914 17.799C4.06511 17.6912 3.93668 17.5156 3.97608 17.3268C4.03229 17.064 4.26617 16.8765 4.50867 16.7901C4.85498 16.6495 5.23207 16.6922 5.59643 16.6783C5.89433 16.6326 6.19796 16.6824 6.49709 16.6511C6.66409 16.6301 6.83232 16.638 7.00014 16.6371H11.0365C11.2962 16.6388 11.5572 16.626 11.8157 16.6577C12.2408 16.654 12.6654 16.6832 13.0889 16.7219C13.4873 16.7539 13.8853 16.8033 14.2813 16.8605C14.4331 16.8753 14.5837 16.8999 14.7347 16.9201C14.9197 16.9501 15.106 16.9727 15.2919 16.9982C15.74 17.0443 16.1868 17.1352 16.639 17.1204H33.996C33.9956 16.6832 33.9964 16.2456 33.9956 15.8084C31.6637 15.8125 29.3314 15.8014 27 15.8138C26.8543 15.8434 26.7058 15.8298 26.5589 15.8319H20.3155C19.7369 15.8351 19.1579 15.8162 18.581 15.8631C17.5606 15.9244 16.5422 16.0206 15.5225 16.0918C15.0941 16.1259 14.6658 16.1629 14.2366 16.1831C14.008 16.2086 13.7778 16.2172 13.5485 16.2292C13.2436 16.2547 12.9367 16.2653 12.6302 16.274C11.8731 16.3361 11.1107 16.3094 10.3508 16.3163C9.55644 16.269 8.75918 16.3019 7.96357 16.2925C7.13842 16.2822 6.31203 16.3163 5.48852 16.2686C4.96618 16.2633 4.44261 16.2884 3.9215 16.2468C3.6113 16.2477 3.29576 16.1905 3.01469 16.0556C2.82472 15.9548 2.63925 15.7455 2.70613 15.5152C2.75906 15.2339 3.03193 15.0702 3.28058 14.9805C3.69665 14.8349 4.14061 14.9192 4.5694 14.8666C5.02937 14.8826 5.48647 14.8333 5.94603 14.8432H10.2605C10.4218 14.8436 10.5843 14.8357 10.7447 14.8571C11.096 14.8867 11.4505 14.8427 11.8017 14.881C13.9436 14.9464 16.0826 15.1072 18.2208 15.2643C18.3303 15.2799 18.4415 15.2803 18.5519 15.2964C18.7111 15.3013 18.8691 15.3248 19.0287 15.3268C24.0178 15.326 29.0065 15.3268 33.9956 15.3264V14.0839H28.9909C28.3643 14.0926 27.7361 14.0617 27.1108 14.1074C24.5537 14.1066 21.9965 14.1066 19.4394 14.1074C19.0509 14.1374 18.6639 14.1798 18.2758 14.2057C18.0928 14.2279 17.9089 14.239 17.7251 14.2517C17.3275 14.2871 16.9295 14.3171 16.5315 14.3439C15.2931 14.4385 14.0531 14.5113 12.8132 14.5528C12.4545 14.591 12.0918 14.5409 11.734 14.5878C11.2888 14.5943 10.8432 14.5873 10.398 14.591C9.31312 14.5277 8.22331 14.6058 7.13842 14.5433C6.51063 14.5351 5.88119 14.5676 5.25587 14.5207C4.8398 14.5182 4.42415 14.5269 4.00808 14.5174C3.71224 14.4738 3.4127 14.5219 3.11727 14.4829C2.81692 14.4668 2.50466 14.4088 2.25519 14.2312C2.13825 14.1419 2.02705 14.0116 2.041 13.8544C2.02049 13.6196 2.21046 13.4399 2.39142 13.3247C2.69095 13.1396 3.05162 13.1327 3.39219 13.1359C3.61581 13.0944 3.84477 13.1322 4.07086 13.1133C4.54027 13.0636 5.01378 13.1265 5.48318 13.0738C7.45888 13.0685 9.43416 13.0738 11.4099 13.071C11.526 13.0706 11.6433 13.0648 11.7582 13.0895C12.1505 13.1063 12.5432 13.0808 12.935 13.1022C13.2296 13.1438 13.53 13.0878 13.8242 13.1355C14.1762 13.1417 14.5295 13.152 14.8799 13.1808C15.3091 13.1985 15.7379 13.2285 16.1655 13.2725C16.3341 13.2807 16.5019 13.2951 16.6698 13.3181C16.9607 13.3449 17.2516 13.3753 17.5417 13.4103C17.6796 13.423 17.8174 13.437 17.9549 13.4563C18.0928 13.4691 18.2302 13.4831 18.3677 13.5024C18.5642 13.5217 18.7608 13.5427 18.9573 13.562C19.0882 13.5797 19.2191 13.599 19.3512 13.6011C24.2332 13.6015 29.1148 13.6007 33.9964 13.6015C33.9972 13.1643 33.9964 12.7267 33.9968 12.2895H28.9901C28.5469 12.2965 28.1025 12.2706 27.661 12.3122C25.1499 12.313 22.6391 12.3118 20.1275 12.313C19.8744 12.3294 19.6228 12.3697 19.3709 12.3977C19.2326 12.41 19.0943 12.424 18.9573 12.4442C18.7882 12.4557 18.6196 12.4684 18.4518 12.4898C18.1941 12.5059 17.9385 12.5433 17.6804 12.5486C16.3862 12.6576 15.088 12.7193 13.7909 12.7592C13.4742 12.7946 13.1537 12.7473 12.8378 12.7925C12.0102 12.8008 11.1817 12.7925 10.3545 12.7966C9.52813 12.7477 8.69969 12.7839 7.87207 12.7724C7.17042 12.7132 6.46385 12.7872 5.76302 12.7267C5.34737 12.723 4.93171 12.7321 4.51606 12.7234C4.08235 12.6708 3.64248 12.7362 3.20919 12.6856C2.87642 12.6848 2.53421 12.6609 2.22483 12.5264C2.05824 12.4401 1.87236 12.3208 1.83871 12.1197C1.80055 11.8791 1.95237 11.6451 2.16041 11.5353C2.53503 11.2967 2.99582 11.3202 3.42173 11.3222C3.77789 11.2807 4.13692 11.3119 4.49472 11.2951C4.63915 11.2651 4.7881 11.279 4.93541 11.277C7.41415 11.2766 9.8929 11.2778 12.3716 11.2766C13.0462 11.3267 13.7245 11.2848 14.4003 11.3037C14.7023 11.3432 15.0071 11.3082 15.3104 11.3296C15.5656 11.3666 15.8249 11.3267 16.0805 11.3629C16.6295 11.3868 17.1781 11.4226 17.7259 11.4777C17.879 11.4876 18.032 11.5015 18.1847 11.5237C18.46 11.5546 18.7365 11.5768 19.0111 11.6159C19.1337 11.6286 19.2556 11.6438 19.3783 11.6615C19.6298 11.6854 19.8785 11.7458 20.132 11.7388C24.7539 11.7372 29.3749 11.7384 33.9964 11.738V10.4956H29.6355C28.8858 10.5058 28.1345 10.4721 27.3869 10.5194C25.1679 10.5178 22.9493 10.519 20.7303 10.5186C20.0496 10.526 19.3672 10.489 18.6902 10.5721C18.5806 10.5873 18.4694 10.5881 18.3599 10.6033C17.9188 10.6374 17.4785 10.6831 17.0374 10.709C15.6312 10.825 14.2226 10.9171 12.8144 10.9644C12.4705 11.0018 12.1234 10.9533 11.7804 10.9994C11.1366 10.9957 10.4911 11.0224 9.84941 10.9776C9.26716 10.9788 8.68492 10.978 8.10349 10.9784C7.79698 10.9755 7.48924 10.9903 7.18396 10.9562C6.6329 10.9529 6.08266 10.957 5.5316 10.955C5.01419 10.9068 4.49349 10.948 3.97525 10.9278C3.65479 10.8854 3.33023 10.9344 3.01018 10.8879C2.69628 10.8509 2.3471 10.781 2.13332 10.5264C1.97945 10.3496 2.02131 10.0588 2.18667 9.90291C2.4066 9.66149 2.73978 9.57389 3.0549 9.55332C3.37578 9.5562 3.69501 9.51384 4.01629 9.52988C4.48036 9.48464 4.9473 9.5196 5.41302 9.5015C5.468 9.4904 5.52381 9.48464 5.57961 9.483C7.53766 9.48382 9.4953 9.483 11.4534 9.48382C11.931 9.53194 12.4115 9.48752 12.8899 9.51425C13.1845 9.55579 13.4848 9.49986 13.7786 9.54798C14.5443 9.56443 15.3108 9.60926 16.0732 9.6837C16.3797 9.70796 16.6862 9.73758 16.991 9.77624C17.1289 9.78857 17.2668 9.80215 17.4042 9.82189C17.5425 9.83464 17.68 9.84862 17.8174 9.86795C17.9553 9.8807 18.0928 9.89427 18.2302 9.91401C18.6352 9.94157 19.0361 10.0271 19.4431 10.0135C24.2943 10.0127 29.1456 10.0135 33.9968 10.0131V8.70157C31.946 8.70239 29.8952 8.70034 27.8444 8.70239C27.524 8.73776 27.2015 8.7209 26.8798 8.7246C24.3083 8.72419 21.7368 8.72501 19.1657 8.72419C18.579 8.75422 17.9922 8.78835 17.4051 8.82249C15.653 8.95039 13.8997 9.07501 12.146 9.16179C11.35 9.17577 10.5523 9.24775 9.75667 9.18482C9.0222 9.18441 8.28773 9.18482 7.55284 9.18482C6.78759 9.17618 6.0207 9.2058 5.25669 9.16097C4.83488 9.15192 4.40978 9.18441 3.98962 9.14452C3.63017 9.1404 3.25063 9.09804 2.9396 8.9031C2.80133 8.8229 2.71147 8.67566 2.68808 8.51979C2.69546 8.21627 2.94781 7.99788 3.2137 7.90041C3.64331 7.72274 4.11599 7.81486 4.56489 7.76098C4.84719 7.75194 5.1299 7.76715 5.4122 7.75358C5.48236 7.73878 5.55417 7.73425 5.62557 7.73466C6.6965 7.73713 7.76785 7.73507 8.83838 7.73549C9.48053 7.74453 10.1247 7.71287 10.7657 7.75934C11.8321 7.74823 12.8981 7.77785 13.9612 7.84488C14.635 7.87573 15.3087 7.92179 15.9808 7.98184C16.8048 8.03736 17.6266 8.12332 18.4501 8.17925C18.7181 8.20927 18.9881 8.22614 19.2585 8.21832H33.9956V6.8607C31.6387 6.86029 29.281 6.86152 26.9241 6.86029C26.801 6.85782 26.6799 6.88085 26.5577 6.88332C23.7105 6.88414 20.8632 6.88332 18.016 6.88373C17.3341 6.9446 16.6456 6.85453 15.9669 6.96969C15.925 6.9738 15.884 6.9775 15.8426 6.98162C15.5824 7.01329 15.3223 7.04865 15.0613 7.07456C14.939 7.09266 14.8168 7.10788 14.6945 7.12104C14.2513 7.17204 13.8086 7.22386 13.3634 7.25882C13.1656 7.28226 12.9662 7.29501 12.7676 7.30447C11.7508 7.38878 10.7295 7.36328 9.70949 7.36739C9.08375 7.32092 8.45514 7.353 7.82817 7.34395C7.2611 7.33449 6.6924 7.36616 6.12657 7.32051C5.62557 7.31228 5.11513 7.35793 4.62397 7.23496C4.37901 7.1671 4.10615 7.05606 4.00193 6.80271C3.90099 6.55595 4.06429 6.28409 4.27397 6.15454C4.6531 5.88762 5.13934 5.92011 5.58002 5.91723C5.99116 5.86829 6.40682 5.92011 6.81837 5.87199C8.30209 5.87282 9.7854 5.86829 11.2691 5.87446C11.6286 5.92505 11.9942 5.86377 12.3536 5.91271C13.4931 5.94849 14.6206 6.13644 15.7498 6.27957C15.9308 6.2989 16.1113 6.32358 16.2931 6.33797C16.3719 6.35113 16.4519 6.35936 16.5311 6.37499C22.3523 6.3828 28.1739 6.37581 33.9951 6.37828V4.99762C28.4702 4.99721 22.9456 4.99803 17.4211 4.99721C16.9722 5.02148 16.5225 5.04204 16.0727 5.04862C14.9862 5.10908 13.8919 5.13746 12.8099 5.28058C12.5313 5.32253 12.2514 5.35913 11.974 5.40766C11.9318 5.41054 11.8895 5.41383 11.8477 5.41671C11.0164 5.55284 10.1711 5.59521 9.32953 5.56683C9.08375 5.53351 8.8355 5.55984 8.58931 5.54462C8.40549 5.50267 8.21387 5.55449 8.03251 5.49938C7.76087 5.43687 7.48145 5.30896 7.32922 5.06343C7.24879 4.88946 7.29598 4.66572 7.44206 4.5407C7.74692 4.24828 8.18597 4.17795 8.58849 4.12901C9.46781 4.03647 10.3578 4.02372 11.2334 4.1652C12.0065 4.27213 12.766 4.47407 13.546 4.52836C14.2337 4.59252 14.9251 4.62624 15.6132 4.67025C15.7855 4.68053 15.9591 4.66655 16.1306 4.68875C16.3399 4.7159 16.5528 4.676 16.7613 4.71631C17.0575 4.72824 17.355 4.71014 17.6504 4.74387C23.0987 4.74469 28.5469 4.74387 33.9951 4.74428C33.9956 4.25321 33.9943 3.76256 33.996 3.27232C34.0013 2.44689 33.6796 1.62681 33.1167 1.0247C32.5631 0.423413 31.7679 0.0359914 30.9469 0.0211855C30.7852 -0.00801509 30.6203 0.00720211 30.4578 0.00473446C21.3983 0.00432318 12.3396 0.00555701 3.28017 0.00432318C3.12097 0.00555701 2.96258 0.0314674 2.80338 0.0322899C2.02336 0.125238 1.28929 0.529111 0.786652 1.13574C0.263082 1.73168 0.00375937 2.52709 0.000476805 3.31509C0.00499033 9.16508 -0.00649865 15.0155 0.0062213 20.8651C0.0431502 21.8468 0.532663 22.8042 1.32827 23.3817C1.86169 23.7839 2.52682 23.9986 3.19359 24.0002C12.473 23.9957 21.752 24.0056 31.0314 23.9953C31.4056 23.9529 31.7843 23.8838 32.1229 23.7086C33.1166 23.2611 33.829 22.2687 33.9693 21.1891C34.0276 20.5558 33.9837 19.9183 33.9972 19.2829V19.2825Z" fill="#3497FD"/>
</g>
<defs>
<clipPath id="clip0_4197_4629">
<rect width="34" height="24" fill="white"/>
</clipPath>
</defs>
</svg>
