<svg width="20" height="20" viewBox="0 0 20 20" fill="none" xmlns="http://www.w3.org/2000/svg">
<path fill-rule="evenodd" clip-rule="evenodd" d="M10 2.50016C6.77834 2.50016 4.16667 5.11183 4.16667 8.3335C4.16667 9.91025 4.87764 11.3985 6.0769 12.9557C7.08951 14.2706 8.38561 15.5562 9.7769 16.9362C9.851 17.0097 9.92538 17.0835 10 17.1576C10.0746 17.0835 10.149 17.0097 10.2231 16.9362C11.6144 15.5562 12.9105 14.2706 13.9231 12.9557C15.1224 11.3985 15.8333 9.91025 15.8333 8.3335C15.8333 5.11183 13.2217 2.50016 10 2.50016ZM2.5 8.3335C2.5 4.19136 5.85786 0.833496 10 0.833496C14.1421 0.833496 17.5 4.19136 17.5 8.3335C17.5 10.4386 16.5443 12.2837 15.2436 13.9727C14.1566 15.384 12.7654 16.7632 11.3757 18.1409C11.1128 18.4015 10.85 18.662 10.5893 18.9228C10.2638 19.2482 9.73618 19.2482 9.41074 18.9228C9.15003 18.662 8.88719 18.4015 8.62431 18.1409C7.23456 16.7632 5.84337 15.384 4.75643 13.9727C3.45569 12.2837 2.5 10.4386 2.5 8.3335ZM10 6.66683C9.07953 6.66683 8.33333 7.41302 8.33333 8.3335C8.33333 9.25397 9.07953 10.0002 10 10.0002C10.9205 10.0002 11.6667 9.25397 11.6667 8.3335C11.6667 7.41302 10.9205 6.66683 10 6.66683ZM6.66667 8.3335C6.66667 6.49255 8.15905 5.00016 10 5.00016C11.8409 5.00016 13.3333 6.49255 13.3333 8.3335C13.3333 10.1744 11.8409 11.6668 10 11.6668C8.15905 11.6668 6.66667 10.1744 6.66667 8.3335Z" fill="#D7DDE4"/>
</svg>
