<svg width="16" height="16" viewBox="0 0 16 16" fill="none" xmlns="http://www.w3.org/2000/svg">
<path d="M11.2621 11.1992L10.6455 12.3587L13.6647 11.8651C13.0554 11.5595 12.2306 11.3411 11.2621 11.1992ZM3.48452 11.452C2.08612 11.8208 1.2002 12.4251 1.2002 13.3227C1.20077 13.516 1.24301 13.7068 1.32404 13.8823L6.16963 13.0903L3.48452 11.452ZM14.6866 12.7992L7.9426 13.8984L9.72116 15.9218C12.6418 15.6602 14.8002 14.7272 14.8002 13.3227C14.8002 13.1355 14.7599 12.9615 14.6866 12.7992ZM6.80308 14.0882L2.24628 14.833C3.45076 15.5791 5.57667 15.9992 8.0002 15.9992C8.14708 15.9992 8.2906 15.9951 8.43524 15.992L6.80308 14.0882Z" fill="#FF7F33"/>
<path d="M8.00077 0C5.39277 0 3.25293 2.13328 3.25293 4.73536C3.25293 5.73568 3.57085 6.66752 4.10765 7.43376L7.18509 12.7538L7.19821 12.7709C7.31965 12.9294 7.43821 13.0546 7.57741 13.1466C7.71661 13.2387 7.88941 13.2938 8.05901 13.2768C8.39789 13.2429 8.60541 13.0035 8.80237 12.7366L8.81293 12.7229L12.2104 6.94032L12.2123 6.93664C12.292 6.79264 12.3509 6.64608 12.4008 6.50336C12.6297 5.94202 12.7476 5.3416 12.748 4.73536C12.748 2.13328 10.6088 0 8.00077 0ZM8.00077 2.7272C9.13213 2.7272 10.0152 3.60864 10.0152 4.7352C10.0152 5.86208 9.13213 6.7432 8.00077 6.7432C6.86925 6.7432 5.98573 5.86192 5.98573 4.7352C5.98573 3.6088 6.86941 2.7272 8.00077 2.7272Z" fill="#FF7F33"/>
</svg>
