<svg width="20" height="12" viewBox="0 0 20 12" fill="none" xmlns="http://www.w3.org/2000/svg">
<path d="M7.22944 7.55988C7.22944 8.42375 7.11194 9.16274 6.87693 9.77687C6.64193 10.3951 6.26675 10.868 5.75139 11.1955C5.23603 11.523 4.55782 11.6868 3.71676 11.6868C2.49639 11.6868 1.57081 11.3613 0.940012 10.7103C0.313337 10.0594 0 9.13818 0 7.94678C0 7.46366 0.0577201 6.96008 0.17316 6.43603C0.2886 5.91198 0.445269 5.41249 0.643166 4.93756L2.2449 5.54555C2.10472 5.90993 1.97485 6.31116 1.85529 6.74923C1.73985 7.18321 1.68213 7.5824 1.68213 7.94678C1.68213 8.54452 1.85116 9.00307 2.18924 9.32242C2.52731 9.64585 3.03649 9.80757 3.71676 9.80757C4.18264 9.80757 4.53927 9.7175 4.78664 9.53736C5.03814 9.36131 5.20924 9.11157 5.29994 8.78813C5.39476 8.46878 5.44218 8.09621 5.44218 7.67042C5.44218 7.67042 5.44218 2.62027 5.44218 1.57216C5.44218 0.524053 6.33272 0 7.22944 0C7.22944 1.40866 7.22944 7.55988 7.22944 7.55988Z" fill="#222222"/>
<path d="M8.88064 0H10.6679V5.56397C10.6679 5.97339 10.7215 6.27226 10.8287 6.46059C10.94 6.64483 11.1936 6.73695 11.5894 6.73695H11.744V8.64074H11.5894C10.6411 8.64074 9.95259 8.39918 9.52381 7.91607C9.09503 7.42886 8.88064 6.7042 8.88064 5.74207V0Z" fill="#222222"/>
<path d="M12.8077 8.64074H11.4842V6.73695H12.82C13.1128 6.73695 13.3148 6.64483 13.4261 6.46059C13.5374 6.27636 13.5931 6.04094 13.5931 5.75435C13.5931 5.47595 13.558 5.16889 13.4879 4.83316C13.4179 4.49744 13.3457 4.16991 13.2715 3.85056L14.9969 3.40839C15.0794 3.80553 15.1433 4.19857 15.1886 4.58751C15.2381 4.97646 15.2628 5.34903 15.2628 5.70522C15.2628 6.26203 15.1886 6.76152 15.0402 7.20369C14.8918 7.64586 14.6382 7.99591 14.2795 8.25384C13.925 8.51177 13.4343 8.64074 12.8077 8.64074Z" fill="#222222"/>
<path d="M16.0482 12L15.368 10.2313C15.9493 10.1044 16.4585 9.94473 16.8955 9.7523C17.3366 9.55988 17.6788 9.29171 17.9221 8.9478C18.1653 8.60798 18.287 8.15353 18.287 7.58444C18.287 7.20778 18.223 6.77994 18.0952 6.30092C17.9716 5.81781 17.8417 5.37564 17.7056 4.97441L19.4929 4.39713C19.6578 4.85568 19.7836 5.35312 19.8701 5.88946C19.9567 6.4217 20 6.93347 20 7.42477C20 8.3173 19.833 9.07472 19.4991 9.69703C19.1651 10.3234 18.7013 10.825 18.1076 11.2016C17.5139 11.5783 16.8275 11.8444 16.0482 12Z" fill="#222222"/>
<path d="M10.5545 9.43296H14.2486V11.0051H10.5545V9.43296Z" fill="#222222"/>
<path d="M6.86044 0H10.0268V1.57216H6.86044V0Z" fill="#222222"/>
</svg>
