<svg width="24" height="24" viewBox="0 0 24 24" fill="none" xmlns="http://www.w3.org/2000/svg">
<path d="M11.5201 3C14.3858 3 16.7087 5.30941 16.7087 8.15883C16.7094 8.90552 16.5471 9.64335 16.233 10.3208C15.919 10.9982 15.4609 11.599 14.8907 12.0811C15.1337 12.2011 15.3551 12.322 15.5549 12.4438C15.9845 12.7048 16.4315 13.0285 16.8959 13.4149C16.9586 13.4668 17.0103 13.5307 17.0481 13.6028C17.0859 13.6749 17.1091 13.7537 17.1163 13.8348C17.1235 13.9159 17.1146 13.9976 17.09 14.0752C17.0655 14.1528 17.0258 14.2248 16.9733 14.287C16.867 14.4132 16.715 14.4922 16.5505 14.5067C16.3861 14.5212 16.2226 14.47 16.0958 14.3644C15.7212 14.0473 15.3235 13.7585 14.906 13.5004C14.5001 13.2596 14.0775 13.0482 13.6415 12.8677C12.9737 13.1645 12.2509 13.3178 11.5201 13.3177C10.7145 13.3178 9.91971 13.1314 9.19809 12.7732L9.16029 12.7912C7.40525 13.4716 6.12453 14.4778 5.29742 15.8134C4.4676 17.1535 4.12829 18.6511 4.2804 20.326C4.29437 20.49 4.24269 20.6528 4.13671 20.7786C4.03074 20.9045 3.87913 20.9832 3.71519 20.9974C3.55135 21.0124 3.38825 20.9618 3.26169 20.8567C3.13513 20.7516 3.05546 20.6005 3.04017 20.4367C2.86467 18.4999 3.26428 16.735 4.2372 15.1645C5.09221 13.7821 6.34953 12.7075 7.99386 11.9407C7.46994 11.4599 7.0517 10.8754 6.76569 10.2243C6.47968 9.57331 6.33214 8.86992 6.33243 8.15883C6.33243 5.30941 8.65448 3 11.5201 3ZM18.1811 14.4238C18.5232 14.4238 18.8004 14.7028 18.8004 15.0457V16.6225H20.3772C20.4588 16.6222 20.5397 16.6381 20.6152 16.6691C20.6907 16.7002 20.7593 16.7458 20.8172 16.8034C20.875 16.861 20.9209 16.9294 20.9523 17.0048C20.9837 17.0802 20.9999 17.161 21 17.2426C20.9993 17.4071 20.9333 17.5647 20.8165 17.6806C20.6997 17.7965 20.5417 17.8614 20.3772 17.8609H18.8004V19.4386C18.8006 19.6031 18.7355 19.7611 18.6194 19.8777C18.5033 19.9943 18.3457 20.06 18.1811 20.0605C18.0166 20.06 17.859 19.9943 17.7429 19.8777C17.6268 19.7611 17.5617 19.6031 17.5619 19.4386V17.8609H15.9851C15.8206 17.8614 15.6626 17.7965 15.5458 17.6806C15.429 17.5647 15.363 17.4071 15.3623 17.2426C15.3623 16.9006 15.6413 16.6234 15.9851 16.6234L17.5619 16.6225V15.0457C17.5617 14.8811 17.6268 14.7232 17.7429 14.6066C17.859 14.49 18.0166 14.4242 18.1811 14.4238ZM11.521 4.23841C9.34299 4.23841 7.57716 5.99342 7.57716 8.15883C7.57716 10.3242 9.34299 12.0802 11.5201 12.0802C13.6973 12.0802 15.4631 10.3251 15.4631 8.15883C15.4631 5.99252 13.6982 4.23841 11.521 4.23841Z" fill="#FF7F33"/>
</svg>
