<svg width="20" height="20" viewBox="0 0 20 20" fill="none" xmlns="http://www.w3.org/2000/svg">
<path d="M10.6058 3.07206C10.681 2.9925 10.7397 2.89891 10.7788 2.79664C10.8178 2.69436 10.8363 2.5854 10.8332 2.47599C10.8301 2.36657 10.8055 2.25883 10.7607 2.15893C10.716 2.05902 10.652 1.9689 10.5725 1.89372C10.4929 1.81854 10.3993 1.75977 10.297 1.72075C10.1948 1.68174 10.0858 1.66325 9.97639 1.66635C9.86697 1.66944 9.75923 1.69406 9.65933 1.73879C9.55942 1.78353 9.46931 1.8475 9.39413 1.92706L2.31079 9.42706C2.16451 9.58178 2.08301 9.78663 2.08301 9.99956C2.08301 10.2125 2.16451 10.4173 2.31079 10.5721L9.39413 18.0729C9.46881 18.1542 9.55891 18.2198 9.65918 18.266C9.75945 18.3122 9.8679 18.338 9.97823 18.3419C10.0886 18.3459 10.1986 18.3278 10.3019 18.2889C10.4052 18.2499 10.4997 18.1908 10.58 18.115C10.6602 18.0392 10.7246 17.9482 10.7694 17.8473C10.8142 17.7464 10.8386 17.6376 10.841 17.5273C10.8434 17.4169 10.8238 17.3072 10.7834 17.2044C10.7431 17.1016 10.6827 17.0079 10.6058 16.9287L4.06246 9.99956L10.6058 3.07206Z" fill="black"/>
</svg>
