<svg width="14" height="16" viewBox="0 0 14 16" fill="none" xmlns="http://www.w3.org/2000/svg">
<path fill-rule="evenodd" clip-rule="evenodd" d="M7.76063 15.5933L7.75257 15.5948L7.70055 15.6204L7.6859 15.6234L7.67564 15.6204L7.62362 15.5948C7.6158 15.5923 7.60994 15.5935 7.60604 15.5984L7.6031 15.6058L7.59065 15.9197L7.59431 15.9344L7.60164 15.9439L7.67784 15.9982L7.68883 16.0011L7.69762 15.9982L7.77382 15.9439L7.78261 15.9322L7.78554 15.9197L7.77309 15.6065C7.77113 15.5987 7.76698 15.5943 7.76063 15.5933ZM7.95479 15.5104L7.94527 15.5119L7.80972 15.5801L7.80239 15.5874L7.8002 15.5955L7.81338 15.9109L7.81705 15.9197L7.82291 15.9248L7.97018 15.993C7.97946 15.9955 7.98654 15.9935 7.99142 15.9872L7.99435 15.9769L7.96944 15.5266C7.967 15.5178 7.96212 15.5124 7.95479 15.5104ZM7.43092 15.5119C7.4277 15.5099 7.42384 15.5093 7.42015 15.5101C7.41647 15.5109 7.41324 15.5131 7.41114 15.5163L7.40675 15.5266L7.38184 15.9769C7.38232 15.9857 7.38648 15.9916 7.39429 15.9945L7.40528 15.993L7.55255 15.9248L7.55988 15.919L7.56281 15.9109L7.57526 15.5955L7.57306 15.5867L7.56574 15.5794L7.43092 15.5119Z" fill="#8A8A8A"/>
<path fill-rule="evenodd" clip-rule="evenodd" d="M6.22723 1.40597e-08C5.23416 8.47101e-05 4.2555 0.237913 3.37291 0.693642C2.49032 1.14937 1.72939 1.80979 1.15361 2.61979C0.577831 3.42979 0.203895 4.36589 0.0629995 5.34999C-0.0778956 6.33409 0.0183362 7.33765 0.343666 8.27695C0.668997 9.21624 1.21399 10.064 1.93318 10.7496C2.65237 11.4351 3.5249 11.9386 4.47797 12.2179C5.43105 12.4972 6.43703 12.5443 7.41199 12.3553C8.38694 12.1663 9.30261 11.7466 10.0826 11.1312L12.7583 13.8098C12.8965 13.9435 13.0816 14.0174 13.2737 14.0157C13.4658 14.014 13.6496 13.9369 13.7854 13.8009C13.9212 13.6649 13.9983 13.481 14 13.2886C14.0016 13.0963 13.9278 12.911 13.7943 12.7727L11.1186 10.0941C11.8425 9.17474 12.2932 8.06997 12.4192 6.90619C12.5451 5.7424 12.3413 4.56662 11.8309 3.51341C11.3206 2.46019 10.5243 1.5721 9.5333 0.950752C8.54229 0.329408 7.39656 -7.85869e-05 6.22723 1.40597e-08ZM1.46483 6.23453C1.46483 4.97009 1.96658 3.75743 2.8597 2.86334C3.75283 1.96924 4.96416 1.46695 6.22723 1.46695C7.4903 1.46695 8.70164 1.96924 9.59476 2.86334C10.4879 3.75743 10.9896 4.97009 10.9896 6.23453C10.9896 7.49897 10.4879 8.71162 9.59476 9.60572C8.70164 10.4998 7.4903 11.0021 6.22723 11.0021C4.96416 11.0021 3.75283 10.4998 2.8597 9.60572C1.96658 8.71162 1.46483 7.49897 1.46483 6.23453Z" fill="#8A8A8A"/>
</svg>
