<svg width="24" height="24" viewBox="0 0 24 24" fill="none" xmlns="http://www.w3.org/2000/svg">
<g clip-path="url(#clip0_2023_597)">
<path d="M20.9809 11.6955C20.816 10.6311 20.1282 9.70823 19.1458 9.22994C18.1527 8.74491 17.0271 8.77859 16.0582 9.31886L11.5085 11.3156V12.5632L13.2017 11.841C14.5624 11.2347 15.938 11.7157 16.5501 12.7289C16.5798 12.7787 16.7203 13.0455 16.7203 13.4726L16.6974 18.529C16.6947 18.9076 16.5447 19.2701 16.2758 19.5409L16.269 19.5463C15.969 19.8454 15.5542 20.0286 15.0975 20.0286C15.0826 20.0286 10.6978 20.0299 10.133 20.0286C9.53975 20.0084 8.99114 19.8144 8.53577 19.4964C7.74933 18.9467 7.31017 18.0238 7.30882 17.0659L7.30477 7.49192L7.32909 5.41707C7.37233 5.11123 7.51286 4.8256 7.73447 4.60195L7.74123 4.59656C8.04121 4.29745 8.45604 4.11422 8.91277 4.11422C8.93979 4.11422 18.181 4.11153 18.181 4.11153V3C18.181 3 6.47104 3.00943 6.45483 3.00943H6.45213C6.26025 3.01886 6.07377 3.04311 5.89 3.08488C4.34281 3.41362 3.15641 4.71512 3.00912 6.31976C2.99696 6.43293 2.99696 17.5765 3.00912 17.6897C3.15641 19.2957 4.34281 20.5958 5.89 20.9246C6.07377 20.965 6.26025 20.9892 6.45213 21H6.45483C6.46023 21 17.5473 21 17.5527 21H17.5554C17.7473 20.9906 17.9338 20.9663 18.1175 20.9246C19.6647 20.5958 20.8511 19.2943 20.9984 17.6897C21.0065 17.6425 20.9809 11.6955 20.9809 11.6955Z" fill="#676767"/>
</g>
<defs>
<clipPath id="clip0_2023_597">
<rect width="24" height="24" fill="white"/>
</clipPath>
</defs>
</svg>
