<svg width="16" height="16" viewBox="0 0 16 16" fill="none" xmlns="http://www.w3.org/2000/svg">
<path d="M4.92308 8.00024V5.97726C4.92909 5.57962 5.0135 5.18706 5.17149 4.82209C5.32948 4.45712 5.55794 4.12691 5.84377 3.85038C6.1296 3.57385 6.46719 3.35644 6.8372 3.2106C7.2072 3.06476 7.60235 2.99336 8 3.00049C8.39765 2.99336 8.7928 3.06476 9.1628 3.2106C9.53281 3.35644 9.8704 3.57385 10.1562 3.85038C10.4421 4.12691 10.6705 4.45712 10.8285 4.82209C10.9865 5.18706 11.0709 5.57962 11.0769 5.97726V8.00024M9.53846 12.0385C9.94649 12.0385 10.3378 11.8764 10.6263 11.5879C10.9148 11.2994 11.0769 10.9081 11.0769 10.5001V8.76944M9.53846 12.0385C9.53846 12.2935 9.43716 12.5381 9.25683 12.7184C9.07651 12.8987 8.83194 13 8.57692 13H7.42308C7.16806 13 6.92349 12.8987 6.74317 12.7184C6.56284 12.5381 6.46154 12.2935 6.46154 12.0385C6.46154 11.7835 6.56284 11.5389 6.74317 11.3586C6.92349 11.1783 7.16806 11.077 7.42308 11.077H8.57692C8.83194 11.077 9.07651 11.1783 9.25683 11.3586C9.43716 11.5389 9.53846 11.7835 9.53846 12.0385ZM3.76923 6.84645H4.53846C4.64047 6.84645 4.7383 6.88697 4.81043 6.9591C4.88256 7.03122 4.92308 7.12905 4.92308 7.23105V9.53863C4.92308 9.64063 4.88256 9.73845 4.81043 9.81058C4.7383 9.88271 4.64047 9.92323 4.53846 9.92323H3.76923C3.56522 9.92323 3.36956 9.84219 3.2253 9.69793C3.08104 9.55368 3 9.35804 3 9.15403V7.61565C3 7.41164 3.08104 7.216 3.2253 7.07174C3.36956 6.92749 3.56522 6.84645 3.76923 6.84645ZM12.2308 9.92323H11.4615C11.3595 9.92323 11.2617 9.88271 11.1896 9.81058C11.1174 9.73845 11.0769 9.64063 11.0769 9.53863V7.23105C11.0769 7.12905 11.1174 7.03122 11.1896 6.9591C11.2617 6.88697 11.3595 6.84645 11.4615 6.84645H12.2308C12.4348 6.84645 12.6304 6.92749 12.7747 7.07174C12.919 7.216 13 7.41164 13 7.61565V9.15403C13 9.35804 12.919 9.55368 12.7747 9.69793C12.6304 9.84219 12.4348 9.92323 12.2308 9.92323Z" stroke="#0D0D0D" stroke-width="0.75" stroke-linecap="round" stroke-linejoin="round"/>
</svg>
