<svg width="25" height="24" viewBox="0 0 25 24" fill="none" xmlns="http://www.w3.org/2000/svg">
<path d="M6.66699 8H10.667" stroke="black" stroke-width="1.5" stroke-linecap="round" stroke-linejoin="round"/>
<path d="M21.5 9H18.898C17.113 9 15.667 10.343 15.667 12C15.667 13.657 17.114 15 18.897 15H21.5C21.584 15 21.625 15 21.66 14.998C22.2 14.965 22.63 14.566 22.665 14.065C22.667 14.033 22.667 13.994 22.667 13.917V10.083C22.667 10.006 22.667 9.967 22.665 9.935C22.629 9.434 22.2 9.035 21.66 9.002C21.626 9 21.584 9 21.5 9Z" stroke="black" stroke-width="1.5"/>
<path d="M21.632 9C21.554 7.128 21.304 5.98 20.495 5.172C19.324 4 17.438 4 13.667 4H10.667C6.89599 4 5.00999 4 3.83899 5.172C2.66799 6.344 2.66699 8.229 2.66699 12C2.66699 15.771 2.66699 17.657 3.83899 18.828C5.01099 19.999 6.89599 20 10.667 20H13.667C17.438 20 19.324 20 20.495 18.828C21.304 18.02 21.555 16.872 21.632 15" stroke="black" stroke-width="1.5"/>
<path d="M18.6582 12H18.6682" stroke="black" stroke-width="1.5" stroke-linecap="round" stroke-linejoin="round"/>
</svg>
