<svg width="17" height="16" viewBox="0 0 17 16" fill="none" xmlns="http://www.w3.org/2000/svg">
<path fill-rule="evenodd" clip-rule="evenodd" d="M14.8166 5.33579C14.7788 5.33356 14.7386 5.33267 14.6959 5.33312H13.0126C11.6339 5.33312 10.4546 6.41845 10.4546 7.83312C10.4546 9.24779 11.6346 10.3331 13.0126 10.3331H14.6959C14.7386 10.3336 14.779 10.3327 14.8173 10.3305C15.1006 10.3134 15.3681 10.1939 15.5698 9.99417C15.7716 9.7945 15.8939 9.52828 15.9139 9.24512C15.9166 9.20512 15.9166 9.16179 15.9166 9.12179V6.54445C15.9166 6.50445 15.9166 6.46112 15.9139 6.42112C15.8939 6.13796 15.7716 5.87174 15.5698 5.67206C15.3681 5.47239 15.0999 5.35287 14.8166 5.33579ZM12.8653 8.49979C13.2199 8.49979 13.5073 8.20112 13.5073 7.83312C13.5073 7.46512 13.2199 7.16645 12.8653 7.16645C12.5099 7.16645 12.2226 7.46512 12.2226 7.83312C12.2226 8.20112 12.5099 8.49979 12.8653 8.49979Z" fill="#FFBF99"/>
<path fill-rule="evenodd" clip-rule="evenodd" d="M14.6955 11.3333C14.7185 11.3324 14.7415 11.3369 14.7625 11.3465C14.7834 11.3561 14.8018 11.3706 14.8162 11.3886C14.8305 11.4067 14.8404 11.4279 14.8451 11.4505C14.8497 11.4731 14.8489 11.4964 14.8428 11.5187C14.7095 11.9933 14.4968 12.3987 14.1562 12.7387C13.6568 13.2387 13.0242 13.4593 12.2428 13.5647C11.4828 13.6667 10.5128 13.6667 9.2875 13.6667H7.8795C6.65416 13.6667 5.6835 13.6667 4.92416 13.5647C4.14283 13.4593 3.51016 13.238 3.01083 12.7393C2.51216 12.24 2.29083 11.6073 2.1855 10.826C2.0835 10.066 2.0835 9.096 2.0835 7.87067V7.796C2.0835 6.57067 2.0835 5.6 2.1855 4.84C2.29083 4.05867 2.51216 3.426 3.01083 2.92667C3.51016 2.428 4.14283 2.20667 4.92416 2.10133C5.68416 2 6.65416 2 7.8795 2H9.2875C10.5128 2 11.4835 2 12.2428 2.102C13.0242 2.20733 13.6568 2.42867 14.1562 2.92733C14.4968 3.26867 14.7095 3.67333 14.8428 4.148C14.8489 4.17025 14.8497 4.19362 14.8451 4.21621C14.8404 4.23881 14.8305 4.26 14.8162 4.27805C14.8018 4.29611 14.7834 4.31053 14.7625 4.32013C14.7415 4.32974 14.7185 4.33426 14.6955 4.33333H13.0128C11.1215 4.33333 9.45483 5.82667 9.45483 7.83333C9.45483 9.84 11.1215 11.3333 13.0128 11.3333H14.6955ZM4.5835 4.66667C4.45089 4.66667 4.32371 4.71935 4.22994 4.81311C4.13617 4.90688 4.0835 5.03406 4.0835 5.16667C4.0835 5.29927 4.13617 5.42645 4.22994 5.52022C4.32371 5.61399 4.45089 5.66667 4.5835 5.66667H7.25016C7.38277 5.66667 7.50995 5.61399 7.60372 5.52022C7.69748 5.42645 7.75016 5.29927 7.75016 5.16667C7.75016 5.03406 7.69748 4.90688 7.60372 4.81311C7.50995 4.71935 7.38277 4.66667 7.25016 4.66667H4.5835Z" fill="#FF7F33"/>
</svg>
