<svg width="24" height="24" viewBox="0 0 24 24" fill="none" xmlns="http://www.w3.org/2000/svg">
<path d="M4 21V19.875C4 17.7864 4.89553 15.7834 6.48959 14.3065C8.08365 12.8297 10.2457 12 12.5 12M12.5 12C14.7543 12 16.9163 12.8297 18.5104 14.3065C20.1045 15.7834 21 17.7864 21 19.875V21M12.5 12C13.7882 12 15.0236 11.5259 15.9345 10.682C16.8454 9.83807 17.3571 8.69347 17.3571 7.5C17.3571 6.30653 16.8454 5.16193 15.9345 4.31802C15.0236 3.47411 13.7882 3 12.5 3C11.2118 3 9.97637 3.47411 9.06548 4.31802C8.15459 5.16193 7.64286 6.30653 7.64286 7.5C7.64286 8.69347 8.15459 9.83807 9.06548 10.682C9.97637 11.5259 11.2118 12 12.5 12Z" stroke="#676767" stroke-width="2" stroke-linecap="round" stroke-linejoin="round"/>
</svg>
