<svg width="24" height="24" viewBox="0 0 24 24" fill="none" xmlns="http://www.w3.org/2000/svg">
<path d="M14.8441 21H14.73C10.831 21 8.95172 19.4664 8.62681 16.0312C8.59168 15.6719 8.85513 15.3476 9.22395 15.3126C9.57521 15.2775 9.90891 15.5492 9.94404 15.9085C10.1987 18.6602 11.4984 19.6855 14.7387 19.6855H14.8529C18.427 19.6855 19.6915 18.4236 19.6915 14.8569V9.14314C19.6915 5.57644 18.427 4.31451 14.8529 4.31451H14.7387C11.4808 4.31451 10.1811 5.35735 9.94404 8.16164C9.90013 8.52093 9.59277 8.7926 9.22395 8.75755C8.85513 8.73126 8.59168 8.40701 8.61802 8.04771C8.9166 4.55988 10.8046 3 14.73 3H14.8441C19.1559 3 21 4.84031 21 9.14314V14.8569C21 19.1597 19.1559 21 14.8441 21Z" fill="#0D0D0D"/>
<path d="M14.6325 12.6573H4.63908C4.27904 12.6573 3.98047 12.3593 3.98047 12C3.98047 11.6407 4.27904 11.3428 4.63908 11.3428H14.6325C14.9925 11.3428 15.2911 11.6407 15.2911 12C15.2911 12.3593 14.9925 12.6573 14.6325 12.6573Z" fill="#0D0D0D"/>
<path d="M6.59823 15.593C6.43138 15.593 6.26453 15.5316 6.13281 15.4002L3.191 12.4644C2.93633 12.2103 2.93633 11.7897 3.191 11.5355L6.13281 8.59978C6.38747 8.34565 6.80899 8.34565 7.06365 8.59978C7.31832 8.85392 7.31832 9.27456 7.06365 9.5287L4.58726 12L7.06365 14.4713C7.31832 14.7254 7.31832 15.146 7.06365 15.4002C6.94071 15.5316 6.76508 15.593 6.59823 15.593Z" fill="#0D0D0D"/>
</svg>
