<svg width="51" height="14" viewBox="0 0 51 14" fill="none" xmlns="http://www.w3.org/2000/svg">
<path d="M24.5838 4.97811V9.65148C24.5838 9.73027 24.5753 9.80737 24.5564 9.87945C24.553 9.89286 24.5496 9.90627 24.5461 9.91968C24.5393 9.94986 24.529 9.97667 24.517 10.0052C24.4656 10.1426 24.3833 10.265 24.2804 10.3672C24.0936 10.5499 23.8348 10.6623 23.5485 10.6623H21.7264C21.5481 10.6623 21.3699 10.6338 21.2019 10.5768C21.1145 10.5483 21.0288 10.5164 20.9842 10.4913C20.9379 10.4661 20.7956 10.3723 20.7716 10.3555C20.4648 10.1292 20.2317 9.8124 20.1151 9.4453C20.0963 9.38831 20.0826 9.32964 20.0706 9.27265C20.0449 9.15364 20.0329 9.03127 20.0329 8.90723V7.16729L19.9952 6.83539C19.8923 6.18334 19.4638 5.61844 18.8501 5.32677C18.2296 5.03008 17.5285 5.05019 16.9235 5.38209L9.70704 8.48817C9.70018 8.4932 9.68989 8.49488 9.68132 8.4999C9.38135 8.60718 9.05224 8.58036 8.76941 8.41944C8.43516 8.22667 8.23633 7.88807 8.23633 7.50924L8.23289 4.1886L5.53488 5.64023V11.3411C5.49888 11.554 5.39604 11.7434 5.24691 11.8909C5.06007 12.0737 4.80124 12.186 4.51498 12.186H4.50469C4.34871 12.1843 4.19787 12.1659 4.05217 12.129C4.02989 12.1239 4.0076 12.1189 3.98532 12.1105C3.85504 12.0737 3.72992 12.0217 3.61336 11.958C3.56708 11.9329 3.5208 11.9044 3.47966 11.8775C3.47794 11.8759 3.47451 11.8742 3.4728 11.8725C3.4488 11.8557 3.4248 11.8407 3.4008 11.8222C3.09398 11.5959 2.86086 11.2791 2.7443 10.912C2.72544 10.855 2.71173 10.7964 2.69973 10.7394C2.67402 10.6204 2.66202 10.498 2.66202 10.3739L2.66031 6.64598H0.539945C0.251974 6.64598 0.0137129 6.86724 0 7.14885V10.1912V10.4611C0 11.6982 1.02504 12.7023 2.29177 12.7023H5.91884C6.24109 12.7023 6.54964 12.6369 6.82732 12.5179C7.65181 12.1793 8.23289 11.3814 8.23289 10.4511V9.81911L15.1408 6.92591C15.9636 6.475 16.848 6.8488 17.2303 7.46901C17.3006 7.58468 17.3623 7.82773 17.3623 8.06576C17.3623 8.30378 17.3726 8.93573 17.3726 8.93573C17.3726 10.1745 18.3993 11.1769 19.6643 11.1769C19.6643 11.1769 25.0244 11.1752 25.0415 11.1752H25.0466C25.9483 11.1417 26.7179 10.5969 27.059 9.82749C27.1344 9.65819 27.191 9.47548 27.2202 9.28439C27.227 9.23913 27.2321 9.19219 27.2373 9.14526L27.2476 9.13855V3.87012L24.5838 4.97811Z" fill="#C38E41"/>
<path d="M19.8221 12.6172L19.2255 14.0001H24.1828L24.9147 12.7513L25.0295 12.6172H19.8221Z" fill="#C38E41"/>
<path d="M47.7742 0.0166016L43.2506 2.53264V2.93494L47.7742 0.408842V0.0166016Z" fill="#C38E41"/>
<path d="M47.7226 4.52586C47.714 4.52419 46.653 4.52419 45.4857 4.52419C44.9852 4.52419 44.812 3.87212 45.2491 3.63242L51 0.484435C50.8269 0.445881 50.6503 0.427442 50.4738 0.434147C50.1447 0.442528 49.819 0.529695 49.5156 0.695643L43.5539 3.93079C43.0088 4.22414 43.2231 5.03544 43.8453 5.03377L46.3479 5.02706C46.5793 5.04047 46.797 5.13602 46.965 5.30029C47.1449 5.47797 47.2444 5.71264 47.2444 5.96576L47.2272 9.74401C47.2255 9.97701 47.1312 10.1983 46.9633 10.3642L46.9581 10.3676C46.7713 10.552 46.5107 10.6643 46.2262 10.6643C46.209 10.6643 42.6574 10.6659 42.6574 10.6659C41.7043 10.6425 40.9261 9.91163 40.8559 8.9897L40.8936 0L38.1904 1.1147L38.1938 9.6535C38.1938 9.93343 38.0773 10.1865 37.8887 10.3693C37.7002 10.5536 37.4413 10.6659 37.1568 10.6659H36.7831C35.9655 10.6458 35.2781 10.1061 35.0519 9.37188V6.11159C35.0519 5.88865 35.0193 5.67577 34.9576 5.47294C34.9079 5.31034 34.8393 5.15445 34.757 5.0103C34.3714 4.34315 33.6446 3.88721 32.8081 3.87045L32.815 3.8671H29.5958V4.38505C29.6113 4.38338 29.6284 4.3817 29.6421 4.3817H31.3494C31.6339 4.3817 31.8928 4.49401 32.0813 4.6784C32.2699 4.86278 32.3864 5.1159 32.3864 5.39583L32.3487 9.97869C32.3007 10.1513 32.2082 10.3072 32.0813 10.4296C31.8928 10.614 31.6339 10.7263 31.3494 10.7263H28.0788V11.2409H32.7567C33.3583 11.2409 33.9051 11.0146 34.3148 10.6408C34.7159 10.9794 35.237 11.1806 35.8061 11.1806H38.5624C38.6361 11.1806 38.7115 11.1772 38.7835 11.1705C39.2977 11.1236 39.7623 10.909 40.1222 10.5821C40.5302 10.9543 41.0804 11.1806 41.6821 11.1806C41.6821 11.1806 47.7535 11.1738 47.7655 11.1738H47.7672C47.8872 11.1671 48.0037 11.1537 48.1186 11.1286C49.0853 10.9274 49.8275 10.1295 49.9201 9.14392C49.927 9.07351 49.9252 6.34794 49.9201 6.32783C49.7127 5.31705 48.8111 4.55268 47.7226 4.52586Z" fill="#C38E41"/>
</svg>
