<svg width="96" height="28" viewBox="0 0 96 28" fill="none" xmlns="http://www.w3.org/2000/svg">
<path d="M46.2755 10.1017V19.1146C46.2755 19.2666 46.2593 19.4153 46.2238 19.5543C46.2174 19.5801 46.2109 19.606 46.2045 19.6319C46.1916 19.6901 46.1722 19.7418 46.1496 19.7967C46.0528 20.0618 45.898 20.2978 45.7044 20.495C45.3527 20.8474 44.8655 21.064 44.3266 21.064H40.8968C40.5612 21.064 40.2256 21.009 39.9094 20.8991C39.7449 20.8441 39.5836 20.7827 39.4997 20.7342C39.4126 20.6857 39.1447 20.5047 39.0996 20.4724C38.522 20.036 38.0832 19.425 37.8638 18.717C37.8283 18.6071 37.8025 18.4939 37.7799 18.384C37.7315 18.1545 37.7089 17.9185 37.7089 17.6793V14.3237L37.6379 13.6836C37.4443 12.4261 36.6377 11.3366 35.4826 10.7741C34.3146 10.2019 32.9949 10.2407 31.8559 10.8808L18.2721 16.8711C18.2592 16.8808 18.2398 16.884 18.2237 16.8937C17.659 17.1006 17.0395 17.0489 16.5071 16.7385C15.878 16.3668 15.5037 15.7138 15.5037 14.9832L15.4972 8.57907L10.4186 11.3786V22.3732C10.3508 22.7838 10.1572 23.1491 9.87654 23.4336C9.52484 23.786 9.03762 24.0026 8.49878 24.0026H8.47943C8.18581 23.9993 7.90187 23.9638 7.62762 23.8926C7.58567 23.8829 7.54372 23.8732 7.50177 23.8571C7.25656 23.786 7.02102 23.6857 6.80161 23.5629C6.7145 23.5144 6.62738 23.4594 6.54994 23.4077C6.54672 23.4045 6.54026 23.4013 6.53703 23.398C6.49186 23.3657 6.44669 23.3366 6.40151 23.301C5.82396 22.8646 5.38515 22.2536 5.16574 21.5457C5.13025 21.4357 5.10443 21.3226 5.08185 21.2127C5.03345 20.9832 5.01086 20.7472 5.01086 20.5079L5.00764 13.3183H1.01637C0.474304 13.3183 0.0258126 13.745 0 14.2881V20.1556V20.676C0 23.0618 1.92949 24.9982 4.31392 24.9982H11.1413C11.7479 24.9982 12.3287 24.8722 12.8514 24.6426C14.4034 23.9896 15.4972 22.4508 15.4972 20.6566V19.4379L28.5003 13.8582C30.0491 12.9885 31.714 13.7095 32.4335 14.9056C32.5658 15.1286 32.6819 15.5974 32.6819 16.0564C32.6819 16.5155 32.7013 17.7342 32.7013 17.7342C32.7013 20.1232 34.634 22.0564 37.0152 22.0564C37.0152 22.0564 47.1047 22.0532 47.137 22.0532H47.1466C48.8438 21.9885 50.2925 20.9379 50.9346 19.4541C51.0766 19.1275 51.1831 18.7752 51.2379 18.4066C51.2508 18.3194 51.2605 18.2289 51.2702 18.1383L51.2896 18.1254V7.96484L46.2755 10.1017Z" fill="#0C2647"/>
<path d="M37.3121 24.833L36.1893 27.5H45.5205L46.8982 25.0916L47.1144 24.833H37.3121Z" fill="#0C2647"/>
<path d="M89.9278 0.532227L81.4129 5.38459V6.16045L89.9278 1.28869V0.532227Z" fill="#0C2647"/>
<path d="M89.8308 9.22845C89.8147 9.22522 87.8174 9.22521 85.6201 9.22521C84.6779 9.22521 84.3521 7.96767 85.1748 7.50539L96 1.43427C95.6741 1.35991 95.3418 1.32435 95.0094 1.33728C94.3899 1.35345 93.7769 1.52155 93.2058 1.8416L81.9838 8.08082C80.9577 8.64655 81.361 10.2112 82.5323 10.208L87.2431 10.195C87.6787 10.2209 88.0884 10.4052 88.4046 10.722C88.7434 11.0647 88.9306 11.5172 88.9306 12.0054L88.8983 19.292C88.8951 19.7414 88.7176 20.1681 88.4014 20.4881L88.3917 20.4946C88.04 20.8502 87.5496 21.0668 87.014 21.0668C86.9817 21.0668 80.2963 21.07 80.2963 21.07C78.5023 21.0248 77.0374 19.6153 76.9051 17.8373L76.9761 0.5L71.8878 2.64979L71.8943 19.1175C71.8943 19.6573 71.6749 20.1455 71.32 20.4978C70.965 20.8534 70.4778 21.07 69.9422 21.07H69.2388C67.6997 21.0312 66.4059 19.9903 65.98 18.5743V12.2866C65.98 11.8567 65.9187 11.4461 65.8025 11.055C65.709 10.7414 65.5799 10.4407 65.425 10.1627C64.699 8.87607 63.331 7.99677 61.7564 7.96444L61.7693 7.95797H55.7098V8.95689C55.7388 8.95366 55.7711 8.95043 55.7969 8.95043H59.0106C59.5462 8.95043 60.0334 9.16702 60.3883 9.52262C60.7433 9.87823 60.9627 10.3664 60.9627 10.9062L60.8917 19.7446C60.8013 20.0776 60.6271 20.3782 60.3883 20.6142C60.0334 20.9698 59.5462 21.1864 59.0106 21.1864H52.8543V22.1789H61.6596C62.7921 22.1789 63.8214 21.7425 64.5926 21.0215C65.3476 21.6746 66.3285 22.0625 67.3997 22.0625H72.588C72.7267 22.0625 72.8687 22.056 73.0042 22.0431C73.9722 21.9526 74.8466 21.5388 75.5242 20.9084C76.2921 21.6261 77.3278 22.0625 78.4603 22.0625C78.4603 22.0625 89.8889 22.0496 89.9115 22.0496H89.9147C90.1405 22.0366 90.36 22.0108 90.5761 21.9623C92.3959 21.5743 93.793 20.0356 93.9672 18.1347C93.9801 17.9989 93.9769 12.7425 93.9672 12.7037C93.5768 10.7543 91.8797 9.28018 89.8308 9.22845Z" fill="#0C2647"/>
</svg>
