<svg width="24" height="24" viewBox="0 0 24 24" fill="none" xmlns="http://www.w3.org/2000/svg">
<path fill-rule="evenodd" clip-rule="evenodd" d="M1.5 24H22.5V23.7785H1.5V24ZM1.5 23.6801H22.5V23.153H1.5V23.6801ZM14.0356 5.77525L12.5339 15.2752C12.5339 15.2752 12.4304 16.952 13.2971 17.9007C13.7161 18.3595 14.2292 18.4869 14.7057 18.7607C15.1262 19.0023 15.6048 19.441 15.6786 19.961C15.7949 20.779 14.9288 20.8885 14.4683 20.7138C13.9784 20.528 13.6064 20.4605 13.1168 20.4812C12.0271 20.5271 11.7814 21.3147 11.785 21.6022C11.7973 22.5844 12.7249 22.9469 12.7249 22.9469C12.7249 22.9469 11.8108 22.952 11.1019 22.9583C6.93015 22.9961 5.5006 20.1342 4.96775 16.8313L3.184 5.77525H14.0356ZM21.2056 22.9362H13.9113C13.9113 22.9362 12.3553 22.9063 12.3742 21.7957C12.3895 20.8957 13.3797 20.6059 14.5398 20.9935C14.8544 21.0986 15.3589 21.1004 15.9798 21.1815C16.609 21.2637 17.36 21.1522 18.3064 21.5682C18.3806 21.6009 18.5507 21.5665 18.7514 21.5728C18.9333 21.5786 19.1479 21.6275 19.1966 21.6109C19.4695 21.5173 19.6091 21.3721 19.8759 21.3781C19.9798 21.3804 20.0711 21.4679 20.1325 21.5427C20.2098 21.4794 20.2581 21.4314 20.3551 21.431C20.5816 21.43 20.67 21.7657 20.811 21.9754C21.1958 22.062 21.4796 22.5334 21.5419 22.778C21.5546 22.8278 21.4258 22.8966 21.3863 22.8638C21.205 22.7132 20.4636 21.7371 20.3512 21.7379C20.3015 21.7382 20.4283 21.9986 20.4542 22.0861C20.2562 21.959 19.9007 21.4649 19.7582 21.6097C19.5826 21.7879 20.195 22.2189 19.939 22.3062C19.8005 22.3533 19.502 22.0727 19.1415 21.9574C18.8431 21.862 18.2363 21.9173 18.1518 21.8653C17.4647 21.4425 15.7438 21.5025 14.4774 21.4053C14.2621 21.3887 14.0078 21.261 13.6947 21.2339C13.2736 21.1976 12.8378 21.3468 12.8425 21.8393C12.8447 22.083 13.0694 22.5492 13.7291 22.5691C15.3538 22.6182 18.0997 22.5467 18.0997 22.5467L17.7508 22.2911C17.7508 22.2911 14.6216 22.2711 13.9113 22.2401C13.581 22.2256 13.4949 21.8659 13.5301 21.7588C13.609 21.5185 13.9874 21.5861 13.9874 21.5861C13.9874 21.5861 14.3934 21.6363 14.6017 21.6472C15.2516 21.681 17.0389 21.8232 17.8696 22.0702C18.1075 22.1409 18.5306 22.1126 18.8223 22.1658C19.356 22.2633 19.5756 22.3818 19.9757 22.692L20.2913 22.6899C20.2913 22.6899 20.2429 22.4067 20.2847 22.3414C20.3265 22.276 20.396 22.2946 20.4708 22.3225C20.5456 22.3503 20.6216 22.4524 20.6824 22.4694C20.7432 22.4865 20.7647 22.4033 20.8319 22.4167C20.9716 22.4447 21.0821 22.6304 21.1609 22.7561C21.1963 22.8123 21.2055 22.9345 21.2056 22.9362ZM10.5329 21.2516C10.4431 21.5467 10.5633 21.7365 10.8101 21.8431L9.40205 22.254C9.2148 22.3087 9.01875 22.2012 8.9641 22.014C8.9188 21.8587 9.0076 21.6968 9.1623 21.6516L10.5329 21.2516ZM11.7684 20.8975C11.7371 21.1582 11.6938 21.3871 11.6572 21.5958L11.0836 21.7632C10.9152 21.73 10.7401 21.6486 10.7146 21.4555C10.6976 21.3279 10.7753 21.227 10.8758 21.1514L11.7684 20.8975ZM10.5413 20.4515C10.358 20.7023 10.4459 20.9313 10.7555 21.0614L9.3512 21.4713C9.16395 21.5259 8.96785 21.4185 8.9132 21.2313C8.8679 21.076 8.9567 20.914 9.1114 20.8689L10.5413 20.4515ZM15.8417 11.4658C15.1005 11.8115 14.0428 12.8957 13.613 13.7504C13.5824 13.8111 13.5126 13.9445 13.4578 14.0468C13.3524 14.2433 13.1554 14.7048 13.1075 14.8675C12.9821 15.2935 12.9522 15.4153 12.9051 15.69C12.7636 16.5163 12.887 17.1722 13.2642 17.5986C13.5426 17.9133 13.7685 18.0443 14.7483 18.4584C14.8733 18.5112 14.9685 18.5587 15.1806 18.674C15.9581 19.097 16.279 19.9867 15.9643 20.7852C15.9138 20.9132 15.8879 20.9186 16.5473 20.9735C17.3014 21.0364 17.8774 21.1362 18.0823 21.2382C17.9964 20.1483 17.7803 17.2084 17.7076 16.5301C17.6978 16.4379 17.6496 16.4259 17.5993 16.4251C17.435 16.4225 17.141 16.4185 16.9658 16.3256C17.0387 16.2337 17.1104 16.1714 17.2299 16.0979L16.9035 16.0845C16.4237 16.0371 16.3122 15.8183 16.7566 15.5904C16.7566 15.5904 16.1375 15.6651 16.1384 15.1367C16.1385 15.0357 16.1524 14.9984 16.2418 15.0212C16.3262 15.0427 16.5224 15.039 16.5215 15.0159C16.5194 14.9605 16.4047 14.9334 16.3456 14.91C16.2078 14.8555 16.1442 14.7537 16.1034 14.6312C16.0628 14.5097 16.1134 14.4799 16.2922 14.399C16.5311 14.291 16.5394 14.1928 16.3307 14.1928C15.8964 14.1928 15.903 13.5196 16.3055 13.1697C16.507 12.9946 16.5198 12.9353 16.382 12.8904C16.1764 12.8233 15.8905 12.4765 15.905 12.1566C15.926 11.6908 16.9849 11.4461 17.1567 11.8724C17.2021 11.9849 17.4014 12.0072 17.396 11.866C17.3932 11.7939 17.5271 11.6683 17.6814 11.6031C17.7497 11.5742 17.568 11.4549 17.4359 11.3899C17.2155 11.2813 16.7423 11.2474 16.3938 11.3122C16.0565 11.3748 15.9893 11.397 15.8417 11.4658ZM11.8095 20.0814C11.8149 20.3308 11.8035 20.5558 11.7833 20.7614L11.0576 20.9732C10.6763 20.9289 10.5431 20.6688 10.7541 20.3894L11.8095 20.0814ZM12.0512 20.7628C12.0512 20.7628 12.1661 18.8127 11.5282 17.4606C10.8429 16.0081 9.28135 14.4601 8.38455 13.4376C8.2923 13.3323 8.1629 13.0408 8.18185 12.8193C8.2639 11.8608 9.62315 12.0828 9.62315 12.0828C9.62315 12.0828 9.65925 12.3942 9.71675 12.538C10.1651 13.6599 11.5528 15.0541 12.2092 16.3495C12.8789 17.6712 13.5887 20.3435 13.5887 20.3435C12.8337 20.2533 12.3148 20.3871 12.0512 20.7628ZM10.4137 19.6887C10.3125 20.0442 10.4738 20.1885 10.6663 20.2874L9.2657 20.6962C9.0785 20.7509 8.8824 20.6434 8.82775 20.4562C8.78245 20.301 8.87125 20.139 9.02595 20.0938L10.4137 19.6887ZM11.7418 19.3011C11.7768 19.5361 11.7967 19.7533 11.8054 19.9549L11.0415 20.1779C10.8741 20.1738 10.7406 20.1199 10.6691 20.0243C10.5851 19.9121 10.5866 19.7379 10.7371 19.5944L11.7418 19.3011ZM10.2466 18.9424C10.0919 19.1673 10.2102 19.4355 10.4973 19.5416L9.0633 19.9601C8.9734 19.9864 8.87675 19.9758 8.7946 19.9308C8.7125 19.8858 8.6516 19.81 8.62535 19.7201L8.6252 19.7196C8.58005 19.5649 8.66885 19.4029 8.82355 19.3577L10.2466 18.9424ZM11.5905 18.5501C11.6468 18.7746 11.6904 18.9854 11.7233 19.1838L10.7966 19.4543C10.4263 19.4221 10.3422 19.1981 10.4663 18.8783L11.5905 18.5501ZM9.9893 18.2199C9.8778 18.6382 10.0747 18.735 10.3007 18.8014L8.83575 19.229C8.64855 19.2836 8.45245 19.1762 8.3978 18.9889C8.3525 18.8337 8.4413 18.6717 8.596 18.6266L9.9893 18.2199ZM11.3748 17.8155C11.4472 18.0323 11.5086 18.2381 11.5604 18.4337L10.5081 18.7409C10.3311 18.6958 10.2151 18.5398 10.1881 18.441C10.1517 18.3083 10.2028 18.2079 10.2677 18.1386L11.3748 17.8155ZM9.68645 17.5343C9.56365 17.7799 9.67725 18.0436 9.96355 18.1022L8.5136 18.5254C8.4242 18.5515 8.3281 18.541 8.2464 18.4963C8.16475 18.4515 8.1042 18.3761 8.0781 18.2867C8.0562 18.2116 8.0652 18.1316 8.1029 18.0639C8.14055 17.9961 8.20385 17.9464 8.2785 17.9256L9.68645 17.5343ZM11.0728 17.1096C11.1774 17.3034 11.2667 17.5008 11.3361 17.7016L10.2152 18.0288C10.0689 18.0128 9.89565 17.9445 9.8524 17.719C9.8326 17.6304 9.8821 17.5322 9.9462 17.4565L11.0728 17.1096ZM9.27625 16.8721C9.18245 17.186 9.34455 17.3584 9.5757 17.4179L8.1169 17.8437C7.93855 17.8957 7.75155 17.7946 7.6974 17.6169C7.67545 17.5449 7.68335 17.4675 7.7192 17.4018C7.755 17.3361 7.81575 17.2875 7.88775 17.267L9.27625 16.8721ZM10.6474 16.4409C10.7797 16.6233 10.9025 16.8093 11.0112 16.9989L9.83865 17.3411C9.57665 17.3185 9.39005 17.0955 9.49365 16.8054L10.6474 16.4409ZM8.70255 16.2434C8.7879 16.5641 8.888 16.7276 9.0169 16.7833L7.65305 17.1814C7.56795 17.2063 7.4765 17.1963 7.39875 17.1537C7.32105 17.1111 7.2634 17.0394 7.2386 16.9543C7.2183 16.8847 7.2264 16.8103 7.26105 16.7471C7.2957 16.6839 7.35405 16.637 7.4233 16.6168L8.70255 16.2434ZM10.1535 15.8199C10.2965 15.9868 10.4354 16.1572 10.5662 16.3312L9.33165 16.6915C9.11335 16.6484 8.8969 16.4049 9.0527 16.1412L10.1535 15.8199ZM8.1257 15.6247C8.1517 15.6371 8.1759 15.6506 8.1935 15.6643C8.33285 15.772 8.1486 15.9689 8.5569 16.1373L7.10755 16.5602C6.9288 16.6124 6.74155 16.5098 6.6894 16.3311C6.66885 16.2607 6.67705 16.1853 6.71215 16.1213C6.74725 16.0572 6.80635 16.0098 6.87645 15.9893L8.1257 15.6247ZM16.6454 14.0115C16.7371 13.9939 16.7372 14.1314 16.6549 14.3417C16.5661 14.5683 16.2695 14.5897 16.2975 14.6355C16.4201 14.8363 16.8097 14.7566 16.9143 14.7907C16.9901 14.8153 16.8734 15.0812 16.6247 15.2444C16.4429 15.3638 16.5029 15.4198 16.7427 15.437C16.8525 15.4448 17.0073 15.3359 17.1544 15.3373C17.2066 15.3378 17.1951 15.6151 17.0451 15.7285C16.6941 15.9942 16.9795 15.9832 17.4191 15.8592C17.6644 15.79 17.6203 15.8666 17.5263 16.0458C17.4694 16.1542 17.354 16.2106 17.3884 16.2442C17.4344 16.2892 17.8024 16.3471 18.0767 16.0004C18.1276 15.936 18.1413 15.8424 18.0047 15.7405C17.5243 15.3821 17.3284 14.953 17.1675 14.3074C17.1134 14.0903 17.0844 13.2244 17.1283 13.0299C17.1556 12.9089 17.1244 12.9125 16.8208 13.066C16.0883 13.4363 15.9633 14.1423 16.6454 14.0115ZM18.6428 14.4987C17.6305 14.5076 17.3636 15.1796 18.1437 15.6536C18.2663 15.728 18.2398 15.7508 18.2398 15.8536C18.2399 15.9998 18.3832 16.0896 18.5029 16.1C18.7701 16.1233 18.916 16.0259 18.9652 15.6934C18.9892 15.5305 19.0351 15.4454 19.201 15.2227C19.2797 15.117 19.3155 15.048 19.2945 15.0403C19.2554 15.026 19.1526 15.0497 19.0713 15.1873C18.7983 15.6494 18.0996 15.5427 17.9427 15.209C17.8335 14.9768 18.0278 14.6601 18.7283 14.6575C19.2218 14.6558 19.24 14.6757 19.2855 14.8422C19.3218 14.9752 19.4069 14.9211 19.5856 14.6511C19.8802 14.2059 19.8417 14.1291 19.5408 14.293C19.2558 14.4482 19.0082 14.4954 18.6428 14.4987ZM9.5913 15.1969C9.74495 15.361 9.8995 15.5292 10.0505 15.7013L8.8558 16.05C8.7408 16.0216 8.6317 15.9538 8.54955 15.8451C8.48045 15.7538 8.4852 15.6065 8.58665 15.4902L9.5913 15.1969ZM7.75025 14.9493C7.67105 15.2455 7.75715 15.3774 8.0471 15.4712L6.59205 15.896C6.5068 15.9209 6.4152 15.9108 6.3374 15.8681C6.25955 15.8255 6.20185 15.7536 6.17695 15.6684C6.15625 15.5975 6.16485 15.5217 6.20075 15.4576C6.2366 15.3935 6.2967 15.3465 6.36755 15.3271L7.75025 14.9493ZM8.99495 14.566C9.14465 14.7255 9.30175 14.8897 9.46115 15.0585L8.2996 15.3975C7.99245 15.3349 7.89475 15.0829 8.03985 14.8614L8.99495 14.566ZM7.17205 14.3264C7.1499 14.6581 7.36755 14.7659 7.5927 14.8063L6.09995 15.242C5.90235 15.2997 5.69465 15.1903 5.6304 14.9948C5.62245 14.9705 5.6146 14.9465 5.60695 14.9233C5.5879 14.8653 5.5942 14.8019 5.6243 14.7488C5.6544 14.6958 5.7055 14.6578 5.765 14.6444L7.17205 14.3264ZM18.4098 14.9249C18.6071 14.9236 18.7793 14.937 18.9628 15.1275C18.98 15.1455 19.0011 15.0852 19.0143 15.0572C19.0441 14.994 19.1029 14.927 19.0417 14.8838C18.921 14.7986 18.5749 14.7772 18.3102 14.8581C18.1523 14.9063 18.2219 14.9261 18.4098 14.9249ZM8.44025 13.9451C8.5696 14.1021 8.7153 14.2649 8.87105 14.4332L7.8397 14.7342C7.4339 14.7237 7.36285 14.3975 7.39335 14.2124L7.5343 14.1252L8.44025 13.9451ZM6.75 13.6599C6.8015 13.903 6.95095 14.0178 7.10915 14.1169L5.5468 14.5068C5.42705 14.5367 5.3017 14.4863 5.2359 14.3818C5.1934 14.3143 5.14345 14.235 5.09525 14.1585C5.0532 14.0917 5.04865 14.0079 5.08325 13.937C5.11785 13.8661 5.18665 13.8181 5.2652 13.8102L6.75 13.6599ZM18.3958 14.0375C18.3455 14.121 18.2717 14.2334 18.15 14.3387C18.0658 14.4114 19.0238 14.3307 19.2696 14.1899C19.4421 14.0911 19.6324 14.1087 19.6812 14.1213C19.7526 14.1398 19.7404 14.0346 19.6754 13.8436C19.5422 13.4535 19.3111 13.3362 18.9907 13.4471C18.7831 13.5189 18.6056 13.6889 18.3958 14.0375ZM18.3654 13.2205C18.2735 13.3049 18.1453 13.4316 18.0534 13.4958C17.6805 13.7558 17.5133 14.0134 17.6572 14.1557C17.9025 14.3984 18.3598 13.9907 18.3667 13.5026C18.3696 13.2969 18.5463 13.0979 19.0348 13.0399C19.1652 13.0244 19.2015 12.974 19.0579 12.9766C18.9122 12.9792 18.7741 12.9819 18.7511 12.9896C18.6028 13.0397 18.5114 13.0865 18.3654 13.2205ZM8.0193 13.338C8.09875 13.4902 8.207 13.6495 8.33635 13.8155L7.3302 14.0617C7.12205 13.9592 6.8318 13.6326 7.0757 13.4176L7.076 13.4155L8.0193 13.338ZM18.8895 13.2365C19.0239 13.219 19.2213 13.1951 19.3578 13.2467C19.6542 13.3588 19.8622 13.6425 19.8716 13.847C19.8766 13.9558 19.9432 14.0066 19.9744 13.8825C19.9953 13.7993 20.0842 13.5903 20.0886 13.3888C20.0893 13.3511 20.0844 13.2857 20.0525 13.2655C20.0185 13.2441 19.8766 13.2578 19.8123 13.2463C19.7277 13.231 19.5936 13.1995 19.5225 13.1621C19.3602 13.0769 19.0374 13.1032 18.8606 13.1542C18.8201 13.1658 18.7549 13.254 18.8895 13.2365ZM6.69395 13.5614L5.12965 13.605C4.9875 13.6089 4.86415 13.5078 4.84015 13.3677C4.8315 13.3174 4.8221 13.2625 4.8125 13.2063C4.79045 13.0777 4.83005 12.9461 4.9194 12.851C5.0088 12.756 5.1376 12.7083 5.26735 12.7224C5.74535 12.774 6.1379 12.8191 6.3772 12.846C6.41325 13.2161 6.60405 13.4636 6.69395 13.5614ZM17.5009 13.3885C17.6539 13.5402 17.9403 13.4911 18.0539 13.3447C18.3594 12.9509 18.6046 12.8486 18.9831 12.847C19.1111 12.8465 19.0528 12.7884 18.9366 12.6791C18.782 12.5338 18.6847 12.5204 18.4979 12.5309C18.3552 12.5388 18.306 12.5299 18.306 12.4867C18.3062 12.3123 18.0033 12.2049 17.7956 12.3332C17.4305 12.5589 17.268 13.158 17.5009 13.3885ZM18.7563 12.7256C18.7684 12.7444 18.4482 12.8351 18.3187 12.9267C18.2646 12.9649 18.2331 13.004 18.1832 13.0309C18.1724 13.0367 17.9793 13.033 17.9064 12.949C17.8273 12.8578 17.8723 12.6483 18.019 12.6504C18.108 12.6517 18.0565 12.7251 18.0234 12.8083C18.005 12.8546 18.0126 12.9148 18.042 12.9238C18.3116 13.0059 18.23 12.5801 18.0692 12.5527C17.9511 12.5326 17.7214 12.62 17.7079 12.8045C17.7016 12.8907 17.7115 12.9723 17.8172 13.0537C17.9063 13.1223 18.0157 13.1034 18.1052 13.0963C17.9863 13.2199 17.8631 13.3231 17.722 13.3155C17.5344 13.3054 17.511 12.9671 17.6322 12.7254C17.7034 12.5834 17.8771 12.4234 18.0142 12.4301C18.2013 12.4392 18.1812 12.5628 18.2665 12.6484C18.316 12.6981 18.6868 12.6188 18.7563 12.7256ZM8.0091 13.1894L6.85765 13.2383C6.54075 13.0059 6.52675 12.0963 6.68525 11.9788C7.01495 12.366 7.48315 12.5069 7.96185 12.5808C7.945 12.66 7.9342 12.7474 7.9302 12.8439C7.92645 12.9345 7.9333 13.0969 8.0091 13.1894ZM17.3243 12.1882C17.2287 12.2765 17.1955 12.2719 17.0876 12.1104C16.9739 11.9405 16.8261 11.8684 16.6899 11.8667C16.3755 11.8626 16.1082 12.1547 16.0858 12.1992C16.0668 12.2369 16.1228 12.2507 16.141 12.3194C16.2011 12.5465 16.4326 12.8649 16.7432 12.8822C16.9819 12.8955 17.187 12.8111 17.3486 12.5524C17.5069 12.299 17.6636 12.1304 17.833 12.0697C18.0714 11.9842 18.2983 12.079 18.5114 12.2964C18.5452 12.331 18.649 12.3467 18.682 12.3453C18.7467 12.3425 18.8993 12.4552 18.9758 12.5476C19.1326 12.7368 19.2038 12.7442 19.1663 12.6209C19.1385 12.5293 18.8157 12.1845 18.635 12.1256C18.4712 12.0723 18.291 11.7838 18.0173 11.727C17.8976 11.7021 17.7971 11.7823 17.698 11.8679C17.5704 11.9778 17.3613 12.1542 17.3243 12.1882ZM6.36685 12.693C6.12505 12.6508 5.44995 12.5336 4.96975 12.4559C4.8788 12.4413 4.7975 12.391 4.7437 12.3163C4.68985 12.2416 4.66795 12.1486 4.68285 12.0576C4.69565 11.9793 4.7094 11.8954 4.72255 11.8149C4.73825 11.7188 4.7974 11.6354 4.8828 11.5887C4.9682 11.542 5.0704 11.5374 5.1597 11.576C5.5899 11.7622 6.1334 12.0054 6.3678 12.1105C6.348 12.2917 6.359 12.5573 6.36685 12.693ZM7.99195 12.4666C7.5614 12.4021 7.2781 12.2951 6.8116 11.9143C6.55635 11.6152 7.12755 10.8656 7.3962 11.0687C7.56245 11.6338 7.8598 11.8463 8.2099 12.1056C8.11635 12.1952 8.041 12.3128 7.99195 12.4666ZM8.2882 12.0401C8.0072 11.7918 7.7245 11.433 7.6317 11.1103C7.61085 11.0378 7.60235 10.9179 7.63335 10.8673C7.84475 10.5218 8.3814 10.5655 8.57185 10.5927C8.609 10.5979 8.63145 10.6377 8.62815 10.6643C8.5793 11.0564 8.6495 11.3555 8.7504 11.6092C8.75695 11.6257 8.7837 11.8552 8.74775 11.8611C8.5794 11.8894 8.42045 11.9432 8.2882 12.0401ZM6.3963 11.956L5.13655 11.2938C5.04445 11.2453 4.9754 11.1622 4.94465 11.0628C4.91395 10.9635 4.92405 10.8559 4.9728 10.764C4.97825 10.7536 4.98375 10.7433 4.9893 10.7328C5.052 10.6145 5.16495 10.531 5.29645 10.5057C5.4279 10.4804 5.5638 10.5161 5.6659 10.6027L6.614 11.4069C6.53175 11.5456 6.44435 11.76 6.3963 11.956ZM8.9872 11.8366C8.82565 11.616 8.7803 11.0333 8.8054 10.6831C8.8102 10.6161 8.85825 10.5938 8.8764 10.5946C9.22075 10.6094 9.4795 10.7044 9.7463 10.9487C9.77735 10.9771 9.78455 11.0511 9.77065 11.0706C9.6057 11.302 9.53865 11.5636 9.55255 11.8502C9.37855 11.8402 9.18195 11.8274 8.9872 11.8366ZM6.68595 11.2955C6.4447 11.095 5.7583 10.5197 5.69115 10.4106C5.5907 9.8136 6.1494 9.46175 6.5181 9.5965C6.6198 9.74265 6.9835 10.5161 7.1186 10.8059C6.9113 10.9704 6.77095 11.1675 6.68595 11.2955ZM9.5577 10.5003C9.7543 10.2654 10.206 9.73145 10.3957 9.5536C10.533 9.4249 10.7783 9.36085 10.8949 9.45465C11.0014 9.54035 11.1851 9.7301 11.2184 9.8782C11.2658 10.0891 11.2135 10.235 11.0458 10.3433C10.8492 10.4703 10.2415 10.8039 9.98585 10.9433C9.8665 10.7426 9.72935 10.5987 9.5577 10.5003ZM7.24775 10.7098C7.09565 10.41 6.70675 9.63945 6.6163 9.4214C6.58895 9.35545 6.57455 9.25345 6.63235 9.18765C6.8456 8.9447 7.3417 8.77245 7.6049 8.79915C7.71985 8.8108 7.7603 8.8699 7.76385 8.96165C7.7764 9.28685 7.7995 10.1212 7.80735 10.4101C7.6085 10.4768 7.4123 10.5932 7.24775 10.7098ZM8.7723 10.3227C8.89455 9.99805 9.15685 9.3033 9.24215 9.09015C9.2669 9.02835 9.316 8.8619 9.40455 8.8143C9.50315 8.7613 9.73905 8.7375 9.9004 8.7775C10.0618 8.8175 10.238 8.95355 10.2942 9.06085C10.3504 9.16815 10.3208 9.29265 10.2549 9.39465C10.1276 9.5917 9.65905 10.1846 9.4504 10.4466C9.2666 10.3669 9.0459 10.3293 8.7723 10.3227ZM7.9402 10.3734C7.9347 10.0415 7.92295 9.1057 7.95885 8.84445C7.97605 8.71955 8.06605 8.6184 8.18725 8.5836C8.3427 8.53885 8.7572 8.5369 8.9143 8.59005C9.04255 8.63345 9.1511 8.74795 9.1313 8.8819C9.09475 9.12975 8.77375 9.9752 8.6395 10.3218C8.4637 10.3236 8.26755 10.3361 8.04755 10.3568C8.012 10.3602 7.97615 10.3658 7.9402 10.3734ZM14.0569 5.6404H3.16225L3.1381 5.49085H14.0805L14.0569 5.6404ZM14.1254 5.20705H3.09235L3.04115 4.8898C3.0785 4.88105 3.1154 4.87035 3.15175 4.85735C3.271 4.8148 3.3811 4.74935 3.476 4.66555C3.56585 4.5862 3.6414 4.4917 3.7043 4.38985C3.7512 4.31395 3.7913 4.2339 3.8261 4.15175C3.8334 4.13445 3.84005 4.1168 3.84665 4.09915V3.792C3.8372 3.79445 3.82795 3.79765 3.81895 3.8015C3.7654 3.82455 3.7272 3.87 3.7013 3.92105C3.68435 3.95435 3.67295 3.9901 3.65935 4.0248C3.653 4.0409 3.6463 4.0568 3.63975 4.07275C3.62325 4.1103 3.60635 4.14745 3.58795 4.18415C3.54165 4.273 3.4884 4.358 3.42205 4.43345C3.3137 4.55675 3.174 4.64615 3.01495 4.68805L3.00885 4.6896L2.3722 0.7436H14.8309L14.2037 4.71145C14.1634 4.70625 14.1233 4.6984 14.0841 4.68805C13.925 4.64615 13.7854 4.55675 13.677 4.43345C13.6107 4.358 13.5574 4.273 13.5111 4.18415C13.4927 4.14745 13.4758 4.1103 13.4593 4.07275C13.4528 4.0568 13.446 4.0409 13.4397 4.0248C13.4261 3.9901 13.4147 3.95435 13.3977 3.92105C13.3719 3.87 13.3336 3.82455 13.2801 3.8015C13.2711 3.79765 13.2619 3.79445 13.2524 3.792V4.09915C13.259 4.1168 13.2656 4.13445 13.273 4.15175C13.3078 4.2339 13.3478 4.31395 13.3947 4.38985C13.4577 4.4917 13.5332 4.5862 13.623 4.66555C13.7179 4.74935 13.8281 4.8148 13.9473 4.85735C14.0204 4.88345 14.0957 4.9004 14.1722 4.91075L14.1254 5.20705ZM7.3823 4.7201C7.3823 4.7201 7.4715 4.7192 7.49685 4.71775C7.5598 4.71415 7.62285 4.7041 7.6838 4.68805C7.84285 4.64615 7.9825 4.55675 8.0909 4.43345C8.1572 4.358 8.2105 4.273 8.2568 4.18415C8.27515 4.14745 8.29205 4.1103 8.3086 4.07275C8.3151 4.0568 8.32185 4.0409 8.32815 4.0248C8.3418 3.9901 8.3532 3.95435 8.3701 3.92105C8.396 3.87 8.43425 3.82455 8.48775 3.8015C8.49675 3.79765 8.50605 3.79445 8.5155 3.792V4.09915C8.5089 4.1168 8.50225 4.13445 8.4949 4.15175C8.4601 4.2339 8.42 4.31395 8.3731 4.38985C8.3102 4.4917 8.23465 4.5862 8.1448 4.66555C8.04995 4.74935 7.9398 4.8148 7.82055 4.85735C7.7201 4.89325 7.61545 4.9118 7.5093 4.91975C7.47785 4.92125 7.37605 4.9227 7.37605 4.9227C7.34295 4.92275 7.2848 4.92115 7.25535 4.91975C7.1492 4.9118 7.04455 4.89325 6.9441 4.85735C6.82485 4.8148 6.7147 4.74935 6.61985 4.66555C6.53 4.5862 6.45445 4.4917 6.39155 4.38985C6.34465 4.31395 6.30455 4.2339 6.26975 4.15175C6.2624 4.13445 6.25575 4.1168 6.24915 4.09915V3.792C6.2586 3.79445 6.2679 3.79765 6.2769 3.8015C6.3304 3.82455 6.36865 3.87 6.39455 3.92105C6.41145 3.95435 6.42285 3.9901 6.4365 4.0248C6.4428 4.0409 6.44955 4.0568 6.45605 4.07275C6.4726 4.1103 6.4895 4.14745 6.50785 4.18415C6.55415 4.273 6.60745 4.358 6.67375 4.43345C6.78215 4.55675 6.9218 4.64615 7.08085 4.68805C7.1418 4.7041 7.20485 4.71415 7.2678 4.71775C7.29485 4.7193 7.3552 4.71825 7.3823 4.7201ZM12.0512 4.92265C12.0512 4.92265 11.9537 4.92115 11.9242 4.91975C11.8181 4.9118 11.7133 4.89325 11.6129 4.85735C11.4936 4.8148 11.3836 4.74935 11.2887 4.66555C11.1988 4.5862 11.1233 4.4917 11.0604 4.38985C11.0135 4.31395 10.9733 4.2339 10.9385 4.15175C10.9312 4.13445 10.9246 4.1168 10.918 4.09915V3.792C10.9275 3.79445 10.9367 3.79765 10.9457 3.8015C10.9993 3.82455 11.0375 3.87 11.0634 3.92105C11.0803 3.95435 11.0917 3.9901 11.1053 4.0248C11.1116 4.0409 11.1184 4.0568 11.1249 4.07275C11.1414 4.1103 11.1583 4.14745 11.1767 4.18415C11.223 4.273 11.2762 4.358 11.3426 4.43345C11.4509 4.55675 11.5907 4.64615 11.7497 4.68805C11.8107 4.7041 11.8736 4.71415 11.9366 4.71775C11.9637 4.7193 12.0241 4.71825 12.0512 4.7201C12.0512 4.7201 12.1403 4.7192 12.1657 4.71775C12.2286 4.71415 12.2916 4.7041 12.3526 4.68805C12.5117 4.64615 12.6513 4.55675 12.7597 4.43345C12.826 4.358 12.8793 4.273 12.9256 4.18415C12.944 4.14745 12.9609 4.1103 12.9774 4.07275C12.9839 4.0568 12.9907 4.0409 12.997 4.0248C13.0106 3.9901 13.022 3.95435 13.0389 3.92105C13.0648 3.87 13.1031 3.82455 13.1566 3.8015C13.1656 3.79765 13.1749 3.79445 13.1843 3.792V4.09915C13.1777 4.1168 13.1711 4.13445 13.1637 4.15175C13.129 4.2339 13.0889 4.31395 13.042 4.38985C12.979 4.4917 12.9035 4.5862 12.8137 4.66555C12.7188 4.74935 12.6086 4.8148 12.4894 4.85735C12.389 4.89325 12.2843 4.9118 12.1782 4.91975C12.1467 4.92125 12.0827 4.923 12.0512 4.92265ZM9.7222 4.7198C9.75125 4.7184 9.8059 4.7192 9.8313 4.71775C9.8942 4.71415 9.95725 4.7041 10.0182 4.68805C10.1772 4.64615 10.3169 4.55675 10.4253 4.43345C10.4916 4.358 10.5449 4.273 10.5912 4.18415C10.6096 4.14745 10.6265 4.1103 10.643 4.07275C10.6495 4.0568 10.6562 4.0409 10.6625 4.0248C10.6762 3.9901 10.6876 3.95435 10.7045 3.92105C10.7304 3.87 10.7687 3.82455 10.8222 3.8015C10.8312 3.79765 10.8405 3.79445 10.8499 3.792V4.09915C10.8433 4.1168 10.8366 4.13445 10.8293 4.15175C10.7945 4.2339 10.7545 4.31395 10.7075 4.38985C10.6446 4.4917 10.5691 4.5862 10.4792 4.66555C10.3843 4.74935 10.2742 4.8148 10.155 4.85735C10.0545 4.89325 9.94985 4.9118 9.84375 4.91975C9.8123 4.92125 9.74825 4.923 9.71675 4.92265C9.68525 4.923 9.6212 4.92125 9.58975 4.91975C9.4836 4.9118 9.37895 4.89325 9.2785 4.85735C9.15925 4.8148 9.0491 4.74935 8.95425 4.66555C8.8644 4.5862 8.78885 4.4917 8.72595 4.38985C8.67905 4.31395 8.63895 4.2339 8.60415 4.15175C8.5968 4.13445 8.59015 4.1168 8.58355 4.09915V3.792C8.59305 3.79445 8.6023 3.79765 8.6113 3.8015C8.66485 3.82455 8.70305 3.87 8.72895 3.92105C8.74585 3.95435 8.7573 3.9901 8.7709 4.0248C8.7772 4.0409 8.78395 4.0568 8.79045 4.07275C8.807 4.1103 8.8239 4.14745 8.8423 4.18415C8.88855 4.273 8.94185 4.358 9.00815 4.43345C9.11655 4.55675 9.2562 4.64615 9.4153 4.68805C9.4762 4.7041 9.53925 4.71415 9.6022 4.71775C9.62925 4.7193 9.7222 4.7198 9.7222 4.7198ZM4.93335 4.71775C4.96045 4.7193 5.13705 4.7192 5.16245 4.71775C5.2254 4.71415 5.28845 4.7041 5.34935 4.68805C5.50845 4.64615 5.6481 4.55675 5.7565 4.43345C5.8228 4.358 5.8761 4.273 5.92235 4.18415C5.94075 4.14745 5.95765 4.1103 5.9742 4.07275C5.9807 4.0568 5.98745 4.0409 5.99375 4.0248C6.00735 3.9901 6.0188 3.95435 6.0357 3.92105C6.0616 3.87 6.0998 3.82455 6.15335 3.8015C6.16235 3.79765 6.1716 3.79445 6.1811 3.792V4.09915C6.1745 4.1168 6.16785 4.13445 6.1605 4.15175C6.1257 4.2339 6.0856 4.31395 6.0387 4.38985C5.9758 4.4917 5.90025 4.5862 5.8104 4.66555C5.7155 4.74935 5.6054 4.8148 5.48615 4.85735C5.3857 4.89325 5.28105 4.9118 5.1749 4.91975C5.14345 4.92125 4.9504 4.92115 4.9209 4.91975C4.8148 4.9118 4.71015 4.89325 4.6097 4.85735C4.49045 4.8148 4.3803 4.74935 4.2854 4.66555C4.19555 4.5862 4.12005 4.4917 4.05715 4.38985C4.0102 4.31395 3.97015 4.2339 3.93535 4.15175C3.928 4.13445 3.92135 4.1168 3.91475 4.09915V3.792C3.9242 3.79445 3.93345 3.79765 3.9425 3.8015C3.996 3.82455 4.03425 3.87 4.06015 3.92105C4.07705 3.95435 4.08845 3.9901 4.1021 4.0248C4.1084 4.0409 4.11515 4.0568 4.12165 4.07275C4.13815 4.1103 4.15505 4.14745 4.17345 4.18415C4.21975 4.273 4.27305 4.358 4.33935 4.43345C4.44775 4.55675 4.5874 4.64615 4.74645 4.68805C4.8074 4.7041 4.87045 4.71415 4.93335 4.71775ZM3.81525 3.6998C3.7813 3.72955 3.745 3.7614 3.7355 3.76975C3.73395 3.7711 3.73195 3.77175 3.7299 3.7716C3.71245 3.7698 3.68825 3.76025 3.6744 3.7376C3.67185 3.7331 3.67295 3.72745 3.6769 3.7242C3.7039 3.7004 3.81565 3.602 3.86125 3.56185C3.8724 3.55205 3.8891 3.55205 3.90025 3.56185C3.9512 3.60675 4.08455 3.7242 4.08455 3.7242C4.08855 3.72745 4.0896 3.7331 4.0871 3.7376C4.0732 3.76025 4.049 3.7698 4.03155 3.7716C4.02955 3.77175 4.0275 3.7711 4.02595 3.76975C4.0104 3.7561 3.92305 3.6795 3.89185 3.6521C3.8855 3.6465 3.876 3.6465 3.8696 3.6521C3.85095 3.6685 3.81525 3.6998 3.81525 3.6998ZM6.14965 3.6998C6.11575 3.72955 6.0794 3.7614 6.0699 3.76975C6.06835 3.7711 6.06635 3.77175 6.0643 3.7716C6.0469 3.7698 6.0227 3.76025 6.0088 3.7376C6.0063 3.7331 6.00735 3.72745 6.0113 3.7242C6.03835 3.7004 6.15005 3.602 6.19565 3.56185C6.2068 3.55205 6.2235 3.55205 6.23465 3.56185C6.2856 3.60675 6.41895 3.7242 6.41895 3.7242C6.42295 3.72745 6.424 3.7331 6.4215 3.7376C6.4076 3.76025 6.3834 3.7698 6.366 3.7716C6.36395 3.77175 6.3619 3.7711 6.3604 3.76975C6.3448 3.7561 6.2575 3.6795 6.22625 3.6521C6.2199 3.6465 6.2104 3.6465 6.20405 3.6521C6.18535 3.6685 6.14965 3.6998 6.14965 3.6998ZM8.48405 3.6998C8.45015 3.72955 8.41385 3.7614 8.4043 3.76975C8.40275 3.7711 8.40075 3.77175 8.3987 3.7716C8.3813 3.7698 8.3571 3.76025 8.3432 3.7376C8.3407 3.7331 8.34175 3.72745 8.34575 3.7242C8.37275 3.7004 8.48445 3.602 8.53005 3.56185C8.5412 3.55205 8.5579 3.55205 8.56905 3.56185C8.62005 3.60675 8.75335 3.7242 8.75335 3.7242C8.75735 3.72745 8.7584 3.7331 8.7559 3.7376C8.742 3.76025 8.7178 3.7698 8.7004 3.7716C8.69835 3.77175 8.69635 3.7711 8.6948 3.76975C8.6792 3.7561 8.5919 3.6795 8.56065 3.6521C8.5543 3.6465 8.5448 3.6465 8.53845 3.6521C8.51975 3.6685 8.48405 3.6998 8.48405 3.6998ZM10.8185 3.6998C10.7845 3.72955 10.7483 3.7614 10.7387 3.76975C10.7372 3.7711 10.7352 3.77175 10.7331 3.7716C10.7157 3.7698 10.6915 3.76025 10.6776 3.7376C10.6751 3.7331 10.6762 3.72745 10.6802 3.7242C10.7072 3.7004 10.8189 3.602 10.8645 3.56185C10.8756 3.55205 10.8923 3.55205 10.9035 3.56185C10.9544 3.60675 11.0878 3.7242 11.0878 3.7242C11.0918 3.72745 11.0928 3.7331 11.0903 3.7376C11.0764 3.76025 11.0522 3.7698 11.0348 3.7716C11.0327 3.77175 11.0307 3.7711 11.0292 3.76975C11.0136 3.7561 10.9263 3.6795 10.8951 3.6521C10.8887 3.6465 10.8792 3.6465 10.8729 3.6521C10.8542 3.6685 10.8185 3.6998 10.8185 3.6998ZM13.1529 3.6998C13.1189 3.72955 13.0826 3.7614 13.0731 3.76975C13.0716 3.7711 13.0695 3.77175 13.0675 3.7716C13.0501 3.7698 13.0259 3.76025 13.012 3.7376C13.0095 3.7331 13.0105 3.72745 13.0145 3.7242C13.0415 3.7004 13.1533 3.602 13.1989 3.56185C13.21 3.55205 13.2267 3.55205 13.2378 3.56185C13.2888 3.60675 13.4222 3.7242 13.4222 3.7242C13.4261 3.72745 13.4272 3.7331 13.4247 3.7376C13.4108 3.76025 13.3867 3.7698 13.3692 3.7716C13.3671 3.77175 13.3651 3.7711 13.3636 3.76975C13.3481 3.7561 13.2607 3.6795 13.2295 3.6521C13.2232 3.6465 13.2136 3.6465 13.2072 3.6521C13.1886 3.6685 13.1529 3.6998 13.1529 3.6998ZM13.2184 2.60495L13.5483 2.2988C13.5483 2.2988 13.9464 1.9044 14.0521 1.81125C14.1127 1.7579 14.1758 1.7608 14.1758 1.7608C14.1758 1.7608 13.7789 2.4984 13.7804 2.9341C13.7821 3.41025 13.4677 3.67555 13.4677 3.67555L13.2184 3.456L12.9691 3.67555C12.9691 3.67555 12.6547 3.41025 12.6564 2.9341C12.658 2.4984 12.2611 1.7608 12.2611 1.7608C12.2611 1.7608 12.3241 1.7579 12.3847 1.81125C12.4904 1.9044 12.8885 2.2988 12.8885 2.2988L13.2184 2.60495ZM3.88075 2.60495L4.2106 2.2988C4.2106 2.2988 4.6087 1.9044 4.71445 1.81125C4.77505 1.7579 4.8381 1.7608 4.8381 1.7608C4.8381 1.7608 4.4412 2.4984 4.44275 2.9341C4.44445 3.41025 4.13005 3.67555 4.13005 3.67555L3.88075 3.456L3.63145 3.67555C3.63145 3.67555 3.31705 3.41025 3.31875 2.9341C3.3203 2.4984 2.9234 1.7608 2.9234 1.7608C2.9234 1.7608 2.98645 1.7579 3.04705 1.81125C3.1528 1.9044 3.5509 2.2988 3.5509 2.2988L3.88075 2.60495ZM6.21515 2.60495L6.545 2.2988C6.545 2.2988 6.9431 1.9044 7.04885 1.81125C7.10945 1.7579 7.1725 1.7608 7.1725 1.7608C7.1725 1.7608 6.7756 2.4984 6.77715 2.9341C6.77885 3.41025 6.46445 3.67555 6.46445 3.67555L6.21515 3.456L5.96585 3.67555C5.96585 3.67555 5.65145 3.41025 5.65315 2.9341C5.6547 2.4984 5.2578 1.7608 5.2578 1.7608C5.2578 1.7608 5.3209 1.7579 5.38145 1.81125C5.4872 1.9044 5.8853 2.2988 5.8853 2.2988L6.21515 2.60495ZM8.54955 2.60495L8.8794 2.2988C8.8794 2.2988 9.2775 1.9044 9.38325 1.81125C9.44385 1.7579 9.5069 1.7608 9.5069 1.7608C9.5069 1.7608 9.11005 2.4984 9.11155 2.9341C9.11325 3.41025 8.79885 3.67555 8.79885 3.67555L8.54955 3.456L8.30025 3.67555C8.30025 3.67555 7.9859 3.41025 7.98755 2.9341C7.9891 2.4984 7.59225 1.7608 7.59225 1.7608C7.59225 1.7608 7.6553 1.7579 7.7159 1.81125C7.82165 1.9044 8.21975 2.2988 8.21975 2.2988L8.54955 2.60495ZM10.884 2.60495L11.2138 2.2988C11.2138 2.2988 11.6119 1.9044 11.7177 1.81125C11.7783 1.7579 11.8413 1.7608 11.8413 1.7608C11.8413 1.7608 11.4445 2.4984 11.446 2.9341C11.4476 3.41025 11.1333 3.67555 11.1333 3.67555L10.884 3.456L10.6347 3.67555C10.6347 3.67555 10.3203 3.41025 10.322 2.9341C10.3235 2.4984 9.92665 1.7608 9.92665 1.7608C9.92665 1.7608 9.9897 1.7579 10.0503 1.81125C10.156 1.9044 10.5541 2.2988 10.5541 2.2988L10.884 2.60495ZM8.27095 2.24325C8.10505 2.0894 7.90445 1.9032 7.78625 1.7933C7.7589 1.76795 7.74375 1.73205 7.74465 1.69475C7.74555 1.65745 7.76245 1.62235 7.791 1.59835C7.8199 1.5732 7.8576 1.5626 7.89465 1.56825C7.93175 1.5739 7.9646 1.5952 7.98485 1.62675L8.3182 2.1433C8.2964 2.1728 8.28015 2.20665 8.27095 2.24325ZM12.9397 2.24325C12.7739 2.0894 12.5733 1.9032 12.4551 1.7933C12.4277 1.76795 12.4125 1.73205 12.4135 1.69475C12.4144 1.65745 12.4313 1.62235 12.4599 1.59835C12.4888 1.5732 12.5265 1.5626 12.5635 1.56825C12.6006 1.5739 12.6334 1.5952 12.6537 1.62675L12.987 2.1433C12.9653 2.1728 12.949 2.20665 12.9397 2.24325ZM5.93655 2.24325C5.77065 2.0894 5.57 1.9032 5.45185 1.7933C5.42445 1.76795 5.4093 1.73205 5.41025 1.69475C5.41115 1.65745 5.42805 1.62235 5.4566 1.59835C5.4855 1.5732 5.5232 1.5626 5.56025 1.56825C5.5973 1.5739 5.63015 1.5952 5.65045 1.62675L5.98375 2.1433C5.962 2.1728 5.94575 2.20665 5.93655 2.24325ZM10.6053 2.24325C10.4395 2.0894 10.2389 1.9032 10.1207 1.7933C10.0933 1.76795 10.0781 1.73205 10.0791 1.69475C10.08 1.65745 10.0968 1.62235 10.1254 1.59835C10.1543 1.5732 10.192 1.5626 10.2291 1.56825C10.2662 1.5739 10.299 1.5952 10.3193 1.62675L10.6526 2.1433C10.6308 2.1728 10.6145 2.20665 10.6053 2.24325ZM3.6021 2.24325C3.43625 2.0894 3.2356 1.9032 3.1174 1.7933C3.09005 1.76795 3.0749 1.73205 3.0758 1.69475C3.07675 1.65745 3.0936 1.62235 3.1222 1.59835C3.1511 1.5732 3.1888 1.5626 3.22585 1.56825C3.2629 1.5739 3.29575 1.5952 3.316 1.62675L3.64935 2.1433C3.6276 2.1728 3.61135 2.20665 3.6021 2.24325ZM4.11185 2.1429C4.22905 1.96135 4.3635 1.7532 4.4452 1.627C4.46545 1.59565 4.49815 1.5745 4.53505 1.5689C4.57195 1.5633 4.60945 1.57385 4.63805 1.5978C4.66785 1.6219 4.6848 1.6572 4.6857 1.6947C4.68655 1.73215 4.6713 1.7682 4.64375 1.79365L4.15925 2.2428C4.15 2.2062 4.13365 2.1724 4.11185 2.1429ZM13.4495 2.1429C13.5667 1.96135 13.7011 1.7532 13.7829 1.627C13.8031 1.59565 13.8358 1.5745 13.8727 1.5689C13.9096 1.5633 13.9471 1.57385 13.9757 1.5978C14.0055 1.6219 14.0225 1.6572 14.0233 1.6947C14.0242 1.73215 14.009 1.7682 13.9814 1.79365L13.4969 2.2428C13.4877 2.2062 13.4713 2.1724 13.4495 2.1429ZM11.1151 2.1429C11.2323 1.96135 11.3667 1.7532 11.4485 1.627C11.4686 1.59565 11.5014 1.5745 11.5383 1.5689C11.5752 1.5633 11.6127 1.57385 11.6413 1.5978C11.6711 1.6219 11.6881 1.6572 11.6889 1.6947C11.6898 1.73215 11.6745 1.7682 11.647 1.79365L11.1625 2.2428C11.1532 2.2062 11.1369 2.1724 11.1151 2.1429ZM8.78065 2.1429C8.8979 1.96135 9.03235 1.7532 9.11405 1.627C9.13425 1.59565 9.167 1.5745 9.20385 1.5689C9.24075 1.5633 9.27825 1.57385 9.30685 1.5978C9.33665 1.6219 9.3536 1.6572 9.3545 1.6947C9.3554 1.73215 9.3401 1.7682 9.31255 1.79365L8.8281 2.2428C8.8188 2.2062 8.8025 2.1724 8.78065 2.1429ZM6.44625 2.1429C6.56345 1.96135 6.6979 1.7532 6.7796 1.627C6.79985 1.59565 6.83255 1.5745 6.86945 1.5689C6.90635 1.5633 6.94385 1.57385 6.97245 1.5978C7.00225 1.6219 7.0192 1.6572 7.0201 1.6947C7.02095 1.73215 7.0057 1.7682 6.97815 1.79365L6.4937 2.2428C6.4844 2.2062 6.4681 2.1724 6.44625 2.1429ZM10.6824 2.10895C10.5854 1.9197 10.4757 1.70595 10.4088 1.57505C10.3918 1.54185 10.3898 1.50295 10.4035 1.4682C10.4171 1.43345 10.445 1.40625 10.48 1.39345C10.5158 1.3797 10.5548 1.3827 10.5877 1.40065C10.6206 1.41865 10.6441 1.4499 10.6524 1.48645L10.7799 2.0457C10.7431 2.06005 10.71 2.0817 10.6824 2.10895ZM8.34795 2.10895C8.25095 1.9197 8.14135 1.70595 8.0744 1.57505C8.0574 1.54185 8.0554 1.50295 8.06905 1.4682C8.08265 1.43345 8.1105 1.40625 8.14555 1.39345C8.18135 1.3797 8.2204 1.3827 8.2533 1.40065C8.2862 1.41865 8.30975 1.4499 8.318 1.48645L8.44545 2.0457C8.4087 2.06005 8.3756 2.0817 8.34795 2.10895ZM6.01355 2.10895C5.9165 1.9197 5.80695 1.70595 5.74 1.57505C5.72295 1.54185 5.721 1.50295 5.73465 1.4682C5.74825 1.43345 5.7761 1.40625 5.81115 1.39345C5.84695 1.3797 5.88595 1.3827 5.91885 1.40065C5.95175 1.41865 5.97535 1.4499 5.9836 1.48645L6.11105 2.0457C6.07425 2.06005 6.04115 2.0817 6.01355 2.10895ZM13.0168 2.10895C12.9198 1.9197 12.8102 1.70595 12.7432 1.57505C12.7262 1.54185 12.7242 1.50295 12.7379 1.4682C12.7515 1.43345 12.7794 1.40625 12.8144 1.39345C12.8502 1.3797 12.8892 1.3827 12.9221 1.40065C12.955 1.41865 12.9786 1.4499 12.9868 1.48645L13.1143 2.0457C13.0775 2.06005 13.0444 2.0817 13.0168 2.10895ZM3.67915 2.10895C3.5821 1.9197 3.47255 1.70595 3.4056 1.57505C3.38855 1.54185 3.3866 1.50295 3.4002 1.4682C3.41385 1.43345 3.4417 1.40625 3.47675 1.39345C3.5125 1.3797 3.55155 1.3827 3.58445 1.40065C3.61735 1.41865 3.64095 1.4499 3.6492 1.48645L3.7766 2.0457C3.73985 2.06005 3.70675 2.0817 3.67915 2.10895ZM6.3188 2.0455C6.36455 1.84485 6.415 1.6239 6.4465 1.48655C6.4548 1.45015 6.4783 1.4191 6.51105 1.40125C6.5438 1.3834 6.58265 1.38045 6.61775 1.3932L6.61875 1.3928C6.654 1.40565 6.682 1.433 6.69565 1.4679C6.7093 1.50285 6.70725 1.54195 6.69005 1.57525L6.4164 2.10855C6.3887 2.0814 6.3556 2.05975 6.3188 2.0455ZM13.322 2.0455C13.3678 1.84485 13.4183 1.6239 13.4497 1.48655C13.458 1.45015 13.4816 1.4191 13.5143 1.40125C13.5471 1.3834 13.5859 1.38045 13.621 1.3932L13.622 1.3928C13.6572 1.40565 13.6852 1.433 13.6989 1.4679C13.7125 1.50285 13.7105 1.54195 13.6933 1.57525L13.4197 2.10855C13.3919 2.0814 13.3588 2.05975 13.322 2.0455ZM3.98435 2.0455C4.03015 1.84485 4.0806 1.6239 4.1121 1.48655C4.1204 1.45015 4.1439 1.4191 4.17665 1.40125C4.2094 1.3834 4.24825 1.38045 4.2833 1.3932L4.28435 1.3928C4.31955 1.40565 4.34755 1.433 4.3612 1.4679C4.37485 1.50285 4.37285 1.54195 4.35565 1.57525L4.082 2.10855C4.0543 2.0814 4.02115 2.05975 3.98435 2.0455ZM8.6532 2.0455C8.69895 1.84485 8.7494 1.6239 8.7809 1.48655C8.7892 1.45015 8.8127 1.4191 8.8455 1.40125C8.87825 1.3834 8.9171 1.38045 8.95215 1.3932L8.95315 1.3928C8.9884 1.40565 9.0164 1.433 9.03005 1.4679C9.0437 1.50285 9.04165 1.54195 9.0245 1.57525L8.7508 2.10855C8.72315 2.0814 8.69 2.05975 8.6532 2.0455ZM10.9876 2.0455C11.0334 1.84485 11.0838 1.6239 11.1153 1.48655C11.1236 1.45015 11.1471 1.4191 11.1799 1.40125C11.2126 1.3834 11.2515 1.38045 11.2865 1.3932L11.2876 1.3928C11.3228 1.40565 11.3508 1.433 11.3644 1.4679C11.3781 1.50285 11.376 1.54195 11.3589 1.57525L11.0852 2.10855C11.0575 2.0814 11.0244 2.05975 10.9876 2.0455ZM13.1655 2.0311C13.1375 1.78065 13.1052 1.49075 13.0868 1.3241C13.0826 1.28695 13.0945 1.2497 13.1194 1.2218C13.1444 1.1939 13.18 1.17795 13.2175 1.1779C13.2563 1.1772 13.2921 1.1933 13.3172 1.22135C13.3422 1.2494 13.354 1.2868 13.3498 1.32415L13.2707 2.031C13.2537 2.02785 13.2362 2.02625 13.2184 2.02625C13.2003 2.02625 13.1826 2.0279 13.1655 2.0311ZM10.8311 2.0311C10.8031 1.78065 10.7708 1.49075 10.7524 1.3241C10.7482 1.28695 10.7601 1.2497 10.785 1.2218C10.8099 1.1939 10.8456 1.17795 10.883 1.1779C10.9219 1.1772 10.9577 1.1933 10.9827 1.22135C11.0077 1.2494 11.0196 1.2868 11.0154 1.32415L10.9363 2.031C10.9193 2.02785 10.9018 2.02625 10.884 2.02625C10.8659 2.02625 10.8482 2.0279 10.8311 2.0311ZM6.1623 2.0311C6.1343 1.78065 6.102 1.49075 6.08355 1.3241C6.0794 1.28695 6.09125 1.2497 6.1162 1.2218C6.14115 1.1939 6.1768 1.17795 6.2142 1.1779C6.25305 1.1772 6.2889 1.1933 6.3139 1.22135C6.33895 1.2494 6.3508 1.2868 6.34655 1.32415L6.26745 2.031C6.2505 2.02785 6.233 2.02625 6.21515 2.02625C6.1971 2.02625 6.1794 2.0279 6.1623 2.0311ZM3.82785 2.0311C3.7999 1.78065 3.76755 1.49075 3.74915 1.3241C3.745 1.28695 3.75685 1.2497 3.7818 1.2218C3.80675 1.1939 3.84235 1.17795 3.8798 1.1779C3.91865 1.1772 3.95445 1.1933 3.9795 1.22135C4.00455 1.2494 4.0164 1.2868 4.01215 1.32415L3.93305 2.031C3.9161 2.02785 3.8986 2.02625 3.88075 2.02625C3.8627 2.02625 3.845 2.0279 3.82785 2.0311ZM8.4967 2.0311C8.4687 1.78065 8.4364 1.49075 8.41795 1.3241C8.4138 1.28695 8.4257 1.2497 8.4506 1.2218C8.47555 1.1939 8.5112 1.17795 8.5486 1.1779C8.5875 1.1772 8.6233 1.1933 8.6483 1.22135C8.67335 1.2494 8.68525 1.2868 8.681 1.32415L8.6019 2.031C8.5849 2.02785 8.56745 2.02625 8.54955 2.02625C8.5315 2.02625 8.51385 2.0279 8.4967 2.0311ZM14.8757 0.4598H2.3264L2.25225 0H14.9485L14.8757 0.4598Z" fill="#FECC09"/>
</svg>
