<svg width="296" height="85" viewBox="0 0 296 85" fill="none" xmlns="http://www.w3.org/2000/svg">
<path d="M142.683 30.5018V58.2384C142.683 58.706 142.633 59.1636 142.524 59.5914C142.504 59.671 142.484 59.7506 142.464 59.8302C142.424 60.0093 142.364 60.1684 142.295 60.3375C141.996 61.1533 141.519 61.8796 140.922 62.4864C139.837 63.5708 138.335 64.2374 136.674 64.2374H126.098C125.064 64.2374 124.029 64.0683 123.054 63.73C122.547 63.5609 122.049 63.3719 121.791 63.2227C121.522 63.0734 120.696 62.5163 120.557 62.4168C118.776 61.0738 117.423 59.1935 116.747 57.0147C116.637 56.6765 116.558 56.3283 116.488 55.99C116.339 55.2837 116.269 54.5574 116.269 53.8212V43.4946L116.05 41.5248C115.453 37.6548 112.966 34.3021 109.405 32.5711C105.803 30.8102 101.734 30.9296 98.2224 32.8994L56.3389 51.3341C56.2991 51.3639 56.2394 51.3739 56.1896 51.4037C54.4486 52.0405 52.5385 51.8813 50.897 50.9262C48.957 49.7821 47.803 47.7725 47.803 45.5241L47.7831 25.816L32.124 34.4315V68.2666C31.9151 69.53 31.3182 70.6542 30.4527 71.5297C29.3683 72.6141 27.866 73.2807 26.2046 73.2807H26.1449C25.2396 73.2707 24.3641 73.1613 23.5185 72.9424C23.3891 72.9126 23.2598 72.8827 23.1305 72.833C22.3744 72.6141 21.6481 72.3057 20.9716 71.9277C20.703 71.7784 20.4344 71.6093 20.1957 71.4501C20.1857 71.4402 20.1658 71.4302 20.1559 71.4203C20.0166 71.3208 19.8773 71.2313 19.738 71.1218C17.9572 69.7788 16.6042 67.8985 15.9277 65.7197C15.8183 65.3815 15.7387 65.0333 15.669 64.695C15.5198 63.9887 15.4502 63.2624 15.4502 62.5262L15.4402 40.4006H3.1338C1.46244 40.4006 0.0795887 41.7138 0 43.3852V61.4419V63.0436C0 70.3856 5.94925 76.3448 13.3013 76.3448H34.3525C36.2228 76.3448 38.0136 75.9568 39.6253 75.2505C44.4105 73.2409 47.7831 68.5053 47.7831 62.9839V59.2333L87.8759 42.062C92.6512 39.3858 97.7847 41.6044 100.003 45.2854C100.411 45.9718 100.769 47.4144 100.769 48.8271C100.769 50.2398 100.829 53.9904 100.829 53.9904C100.829 61.3424 106.788 67.2916 114.13 67.2916C114.13 67.2916 145.239 67.2817 145.339 67.2817H145.369C150.602 67.0827 155.069 63.8494 157.048 59.283C157.486 58.2782 157.814 57.1938 157.984 56.0597C158.023 55.7911 158.053 55.5125 158.083 55.234L158.143 55.1942V23.9258L142.683 30.5018Z" fill="#E4BE8A"/>
<path d="M115.045 75.8374L111.583 84.045H140.354L144.602 76.6333L145.269 75.8374H115.045Z" fill="#E4BE8A"/>
<path d="M277.278 1.0542L251.023 15.987V18.3747L277.278 3.38216V1.0542Z" fill="#E4BE8A"/>
<path d="M276.979 27.8158C276.929 27.8058 270.771 27.8058 263.996 27.8058C261.091 27.8058 260.086 23.9358 262.623 22.5132L296 3.82973C294.996 3.60091 293.971 3.49147 292.946 3.53127C291.036 3.58101 289.146 4.09835 287.385 5.08326L252.784 24.284C249.62 26.025 250.864 30.8401 254.475 30.8302L269 30.7904C270.343 30.87 271.606 31.437 272.581 32.412C273.626 33.4665 274.203 34.8593 274.203 36.3616L274.103 58.7857C274.094 60.1685 273.546 61.4817 272.571 62.4666L272.542 62.4865C271.457 63.5809 269.945 64.2474 268.293 64.2474C268.194 64.2474 247.581 64.2574 247.581 64.2574C242.049 64.1181 237.532 59.7805 237.125 54.3088L237.343 0.95459L221.655 7.5704L221.674 58.2485C221.674 59.9099 220.998 61.4121 219.904 62.4965C218.809 63.5908 217.307 64.2574 215.656 64.2574H213.487C208.741 64.138 204.752 60.9345 203.439 56.5771V37.2271C203.439 35.9039 203.25 34.6405 202.891 33.4367C202.603 32.4717 202.205 31.5465 201.728 30.6909C199.489 26.7313 195.271 24.0253 190.416 23.9259L190.456 23.9059H171.772V26.9801C171.862 26.9701 171.961 26.9602 172.041 26.9602H181.95C183.601 26.9602 185.103 27.6267 186.198 28.7211C187.292 29.8154 187.969 31.3176 187.969 32.979L187.75 60.1785C187.471 61.2032 186.934 62.1284 186.198 62.8546C185.103 63.949 183.601 64.6155 181.95 64.6155H162.968V67.6698H190.117C193.609 67.6698 196.783 66.3267 199.161 64.1081C201.489 66.1178 204.513 67.3116 207.816 67.3116H223.813C224.241 67.3116 224.679 67.2917 225.097 67.2519C228.081 66.9733 230.777 65.6999 232.867 63.7599C235.234 65.9685 238.428 67.3116 241.92 67.3116C241.92 67.3116 277.158 67.2718 277.227 67.2718H277.237C277.934 67.232 278.61 67.1524 279.277 67.0032C284.888 65.8094 289.195 61.0738 289.733 55.2241C289.772 54.8062 289.763 38.6299 289.733 38.5105C288.529 32.5115 283.296 27.9749 276.979 27.8158Z" fill="#E4BE8A"/>
</svg>
