<svg width="196" height="55" viewBox="0 0 196 55" fill="none" xmlns="http://www.w3.org/2000/svg">
<path d="M94.4791 19.5555V37.9217C94.4791 38.2313 94.4461 38.5343 94.3737 38.8176C94.3605 38.8703 94.3473 38.923 94.3342 38.9757C94.3078 39.0943 94.2683 39.1997 94.2222 39.3117C94.0245 39.8518 93.7083 40.3327 93.3131 40.7346C92.595 41.4526 91.6003 41.894 90.5002 41.894H83.4976C82.8125 41.894 82.1274 41.782 81.4818 41.558C81.1458 41.446 80.8164 41.3209 80.6452 41.2221C80.4673 41.1233 79.9205 40.7544 79.8283 40.6885C78.6491 39.7992 77.7532 38.5541 77.3053 37.1114C77.2328 36.8874 77.1801 36.6569 77.134 36.4329C77.0352 35.9652 76.989 35.4843 76.989 34.9968V28.1589L76.8441 26.8546C76.4489 24.292 74.802 22.072 72.4436 20.9258C70.0589 19.7598 67.3646 19.8388 65.0392 21.1432L37.3055 33.3499C37.2791 33.3697 37.2396 33.3763 37.2067 33.396C36.0538 33.8176 34.789 33.7122 33.7021 33.0798C32.4175 32.3223 31.6533 30.9916 31.6533 29.5028L31.6401 16.4528L21.2713 22.1576V44.5619C21.133 45.3986 20.7377 46.143 20.1646 46.7227C19.4465 47.4407 18.4518 47.8821 17.3517 47.8821H17.3122C16.7127 47.8755 16.133 47.803 15.573 47.6581C15.4874 47.6384 15.4018 47.6186 15.3161 47.5857C14.8155 47.4407 14.3346 47.2365 13.8866 46.9862C13.7088 46.8874 13.5309 46.7754 13.3728 46.67C13.3662 46.6634 13.353 46.6568 13.3464 46.6502C13.2542 46.5843 13.162 46.5251 13.0698 46.4526C11.8906 45.5633 10.9947 44.3182 10.5467 42.8755C10.4743 42.6516 10.4216 42.421 10.3754 42.197C10.2766 41.7293 10.2305 41.2484 10.2305 40.7609L10.2239 26.1102H2.07508C0.96837 26.1102 0.0527006 26.9797 0 28.0865V40.0429V41.1035C0 45.9651 3.93937 49.9111 8.80759 49.9111H22.7469C23.9854 49.9111 25.1712 49.6542 26.2383 49.1864C29.407 47.8557 31.6401 44.7201 31.6401 41.064V38.5804L58.1881 27.2103C61.3501 25.4382 64.7493 26.9073 66.2184 29.3447C66.4885 29.7992 66.7256 30.7544 66.7256 31.6899C66.7256 32.6253 66.7651 35.1088 66.7651 35.1088C66.7651 39.977 70.7111 43.9164 75.5727 43.9164C75.5727 43.9164 96.1721 43.9098 96.238 43.9098H96.2577C99.7228 43.778 102.681 41.6371 103.992 38.6134C104.281 37.948 104.499 37.23 104.611 36.479C104.637 36.3011 104.657 36.1167 104.677 35.9323L104.716 35.9059V15.2012L94.4791 19.5555Z" fill="#E4BE8A"/>
<path d="M76.1792 49.5747L73.8867 55.0095H92.938L95.7509 50.1017L96.1923 49.5747H76.1792Z" fill="#E4BE8A"/>
<path d="M183.602 0.0561523L166.218 9.94409V11.5251L183.602 1.59764V0.0561523Z" fill="#E4BE8A"/>
<path d="M183.405 17.7767C183.372 17.7701 179.294 17.7701 174.808 17.7701C172.884 17.7701 172.219 15.2075 173.899 14.2655L196 1.89404C195.335 1.74253 194.656 1.67006 193.978 1.69641C192.713 1.72935 191.461 2.07191 190.295 2.72408L167.384 15.4381C165.289 16.5909 166.112 19.7793 168.504 19.7727L178.122 19.7464C179.011 19.7991 179.848 20.1746 180.493 20.8201C181.185 21.5184 181.567 22.4407 181.567 23.4354L181.501 38.2838C181.494 39.1994 181.132 40.069 180.486 40.7212L180.467 40.7343C179.749 41.459 178.747 41.9004 177.654 41.9004C177.588 41.9004 163.938 41.9069 163.938 41.9069C160.276 41.8147 157.285 38.9425 157.015 35.3194L157.16 -0.00976562L146.771 4.37097L146.784 37.9281C146.784 39.0282 146.336 40.0229 145.612 40.7409C144.887 41.4656 143.893 41.9069 142.799 41.9069H141.363C138.221 41.8279 135.579 39.7067 134.709 36.8213V24.0085C134.709 23.1324 134.584 22.2957 134.347 21.4987C134.156 20.8597 133.893 20.247 133.576 19.6805C132.094 17.0586 129.301 15.2668 126.086 15.2009L126.113 15.1877H113.741V17.2233C113.8 17.2167 113.866 17.2101 113.919 17.2101H120.48C121.574 17.2101 122.569 17.6515 123.293 18.3761C124.018 19.1008 124.466 20.0955 124.466 21.1956L124.321 39.206C124.136 39.8846 123.781 40.4972 123.293 40.9781C122.569 41.7027 121.574 42.1441 120.48 42.1441H107.911V44.1665H125.889C128.201 44.1665 130.302 43.2771 131.877 41.8081C133.418 43.1388 135.421 43.9293 137.608 43.9293H148.201C148.484 43.9293 148.774 43.9161 149.051 43.8898C151.027 43.7053 152.812 42.8621 154.195 41.5775C155.763 43.04 157.878 43.9293 160.19 43.9293C160.19 43.9293 183.523 43.903 183.57 43.903H183.576C184.037 43.8766 184.485 43.8239 184.927 43.7251C188.642 42.9346 191.494 39.7989 191.85 35.9254C191.876 35.6487 191.87 24.9374 191.85 24.8583C191.053 20.886 187.588 17.8821 183.405 17.7767Z" fill="#E4BE8A"/>
</svg>
