<svg width="96" height="27" viewBox="0 0 96 27" fill="none" xmlns="http://www.w3.org/2000/svg">
<path d="M46.2755 9.60883V18.6045C46.2755 18.7561 46.2593 18.9046 46.2238 19.0433C46.2174 19.0691 46.2109 19.0949 46.2045 19.1207C46.1916 19.1788 46.1722 19.2304 46.1496 19.2853C46.0528 19.5499 45.8979 19.7854 45.7044 19.9822C45.3527 20.3339 44.8655 20.5501 44.3266 20.5501H40.8968C40.5612 20.5501 40.2256 20.4953 39.9094 20.3856C39.7449 20.3307 39.5836 20.2694 39.4997 20.221C39.4126 20.1726 39.1447 19.9919 39.0996 19.9597C38.522 19.5241 38.0832 18.9142 37.8638 18.2076C37.8283 18.0979 37.8025 17.985 37.7799 17.8753C37.7315 17.6462 37.7089 17.4107 37.7089 17.1719V13.8227L37.6379 13.1839C37.4443 11.9287 36.6377 10.8414 35.4826 10.28C34.3146 9.70886 32.9949 9.74757 31.8559 10.3864L18.2721 16.3653C18.2592 16.3749 18.2398 16.3782 18.2237 16.3878C17.659 16.5943 17.0395 16.5427 16.5071 16.233C15.8779 15.8619 15.5037 15.2101 15.5037 14.4809L15.4972 8.08912L10.4186 10.8833V21.8569C10.3508 22.2666 10.1572 22.6312 9.87653 22.9152C9.52484 23.2669 9.03762 23.4831 8.49878 23.4831H8.47942C8.18581 23.4798 7.90187 23.4443 7.62762 23.3734C7.58567 23.3637 7.54372 23.354 7.50177 23.3379C7.25656 23.2669 7.02102 23.1669 6.80161 23.0442C6.7145 22.9959 6.62738 22.941 6.54994 22.8894C6.54672 22.8861 6.54026 22.8829 6.53703 22.8797C6.49186 22.8474 6.44668 22.8184 6.40151 22.7829C5.82396 22.3473 5.38515 21.7375 5.16574 21.0309C5.13025 20.9212 5.10443 20.8082 5.08185 20.6985C5.03345 20.4694 5.01086 20.2339 5.01086 19.9951L5.00764 12.8193H1.01637C0.474304 12.8193 0.0258126 13.2452 0 13.7872V19.6434V20.1629C0 22.5441 1.92949 24.4768 4.31392 24.4768H11.1413C11.7479 24.4768 12.3287 24.351 12.8514 24.1219C14.4034 23.4702 15.4972 21.9343 15.4972 20.1436V18.9271L28.5003 13.3581C30.049 12.4901 31.714 13.2097 32.4335 14.4035C32.5658 14.6261 32.6819 15.094 32.6819 15.5522C32.6819 16.0103 32.7013 17.2268 32.7013 17.2268C32.7013 19.6112 34.634 21.5407 37.0152 21.5407C37.0152 21.5407 47.1047 21.5374 47.137 21.5374H47.1466C48.8438 21.4729 50.2925 20.4243 50.9346 18.9433C51.0766 18.6174 51.1831 18.2657 51.2379 17.8979C51.2508 17.8108 51.2605 17.7204 51.2702 17.6301L51.2895 17.6172V7.47607L46.2755 9.60883Z" fill="#E4BE8A"/>
<path d="M37.3123 24.312L36.1895 26.9739H45.5207L46.8984 24.5701L47.1146 24.312H37.3123Z" fill="#E4BE8A"/>
<path d="M89.928 0.0581055L81.4131 4.90118V5.67555L89.928 0.81312V0.0581055Z" fill="#E4BE8A"/>
<path d="M89.831 8.73761C89.8149 8.73438 87.8176 8.73438 85.6203 8.73438C84.6781 8.73438 84.3523 7.47924 85.175 7.01784L96.0002 0.958356C95.6743 0.884145 95.342 0.848652 95.0096 0.861558C94.3901 0.877691 93.7771 1.04548 93.206 1.36491L81.984 7.59217C80.9579 8.15682 81.3612 9.71848 82.5325 9.71526L87.2433 9.70235C87.6789 9.72816 88.0886 9.91208 88.4048 10.2283C88.7436 10.5703 88.9308 11.022 88.9308 11.5092L88.8985 18.7819C88.8953 19.2304 88.7178 19.6563 88.4016 19.9757L88.3919 19.9822C88.0402 20.3371 87.5498 20.5533 87.0142 20.5533C86.9819 20.5533 80.2965 20.5565 80.2965 20.5565C78.5025 20.5113 77.0376 19.1046 76.9053 17.3299L76.9763 0.0258789L71.888 2.17155L71.8945 18.6077C71.8945 19.1465 71.6751 19.6337 71.3202 19.9854C70.9652 20.3403 70.478 20.5565 69.9424 20.5565H69.239C67.6999 20.5178 66.4061 19.4788 65.9802 18.0656V11.7899C65.9802 11.3608 65.9189 10.951 65.8027 10.5606C65.7091 10.2476 65.5801 9.94757 65.4252 9.67008C64.6992 8.38591 63.3312 7.50829 61.7566 7.47602L61.7695 7.46956H55.71V8.46657C55.739 8.46334 55.7713 8.46012 55.7971 8.46012H59.0108C59.5464 8.46012 60.0336 8.67629 60.3885 9.03122C60.7435 9.38614 60.9629 9.87335 60.9629 10.4122L60.8919 19.2336C60.8015 19.566 60.6273 19.866 60.3885 20.1016C60.0336 20.4565 59.5464 20.6727 59.0108 20.6727H52.8545V21.6632H61.6598C62.7923 21.6632 63.8216 21.2276 64.5928 20.5081C65.3478 21.1599 66.3287 21.5471 67.3999 21.5471H72.5882C72.7269 21.5471 72.8689 21.5406 73.0044 21.5277C73.9724 21.4374 74.8468 21.0244 75.5244 20.3952C76.2923 21.1115 77.328 21.5471 78.4605 21.5471C78.4605 21.5471 89.8891 21.5342 89.9117 21.5342H89.9149C90.1407 21.5212 90.3601 21.4954 90.5763 21.447C92.3961 21.0599 93.7932 19.524 93.9674 17.6268C93.9803 17.4913 93.9771 12.2449 93.9674 12.2062C93.577 10.2605 91.8799 8.78923 89.831 8.73761Z" fill="#E4BE8A"/>
</svg>
