<svg width="48" height="48" viewBox="0 0 48 48" fill="none" xmlns="http://www.w3.org/2000/svg">
<g clip-path="url(#clip0_1425_15626)">
<path d="M38.6391 48H9.3609C4.19107 48 0 43.8089 0 38.6391V9.3609C0 4.19107 4.19107 0 9.3609 0H38.6391C43.8089 0 48 4.19107 48 9.3609V38.6391C48 43.8089 43.8089 48 38.6391 48Z" fill="#0C2647"/>
<path d="M35.2245 23.6125C35.0179 22.2748 34.156 21.1148 32.925 20.5137C31.6803 19.9041 30.2698 19.9464 29.0556 20.6255L23.3541 23.135V24.7031L25.4759 23.7954C27.1811 23.0334 28.9049 23.6379 29.672 24.9114C29.7093 24.974 29.8854 25.3093 29.8854 25.8461L29.8566 32.2013C29.8532 32.6771 29.6652 33.1326 29.3283 33.473L29.3198 33.4798C28.9439 33.8557 28.424 34.086 27.8516 34.086C27.833 34.086 22.3381 34.0877 21.6302 34.086C20.8868 34.0606 20.1993 33.8167 19.6287 33.4171C18.6431 32.7262 18.0928 31.5663 18.0911 30.3623L18.086 18.3293L18.1165 15.7215C18.1707 15.3371 18.3468 14.9781 18.6245 14.697L18.633 14.6902C19.0089 14.3143 19.5288 14.084 20.1011 14.084C20.135 14.084 31.7159 14.0806 31.7159 14.0806V12.6836C31.7159 12.6836 17.0412 12.6954 17.0209 12.6954H17.0175C16.7771 12.7073 16.5434 12.7378 16.3131 12.7903C14.3742 13.2035 12.8874 14.8392 12.7028 16.856C12.6876 16.9983 12.6876 31.0041 12.7028 31.1463C12.8874 33.1648 14.3742 34.7989 16.3131 35.2121C16.5434 35.2629 16.7771 35.2933 17.0175 35.3069H17.0209C17.0277 35.3069 30.9217 35.3069 30.9285 35.3069H30.9319C31.1723 35.295 31.406 35.2646 31.6363 35.2121C33.5752 34.7989 35.062 33.1631 35.2465 31.1463C35.2567 31.087 35.2245 23.6125 35.2245 23.6125Z" fill="#FF7F33"/>
</g>
<defs>
<clipPath id="clip0_1425_15626">
<rect width="48" height="48" fill="white"/>
</clipPath>
</defs>
</svg>
