<svg width="16" height="16" viewBox="0 0 16 16" fill="none" xmlns="http://www.w3.org/2000/svg">
<g clip-path="url(#clip0_48_2031)">
<path d="M12.8797 16H3.1203C1.39702 16 0 14.603 0 12.8797V3.1203C0 1.39702 1.39702 0 3.1203 0H12.8797C14.603 0 16 1.39702 16 3.1203V12.8797C16 14.603 14.603 16 12.8797 16Z" fill="#AF6F22"/>
<path d="M11.7415 7.87052C11.6726 7.4246 11.3853 7.03795 10.975 6.83757C10.5601 6.63437 10.0899 6.64848 9.68521 6.87483L7.78469 7.71135V8.23403L8.49195 7.93148C9.06036 7.67748 9.63497 7.87899 9.89067 8.30346C9.90309 8.32434 9.96179 8.4361 9.96179 8.61504L9.95219 10.7334C9.95107 10.892 9.88841 11.0439 9.77608 11.1573L9.77326 11.1596C9.64795 11.2849 9.47467 11.3617 9.28388 11.3617C9.27767 11.3617 7.44602 11.3622 7.21008 11.3617C6.96228 11.3532 6.73311 11.2719 6.54289 11.1387C6.21438 10.9084 6.03093 10.5218 6.03037 10.1204L6.02868 6.10943L6.03884 5.24017C6.0569 5.11204 6.1156 4.99237 6.20817 4.89867L6.211 4.89642C6.3363 4.77111 6.50959 4.69434 6.70038 4.69434C6.71167 4.69434 10.572 4.69321 10.572 4.69321V4.22754C10.572 4.22754 5.68041 4.23149 5.67364 4.23149H5.67251C5.59235 4.23544 5.51446 4.2456 5.43769 4.2631C4.79139 4.40083 4.2958 4.94609 4.23428 5.61835C4.2292 5.66577 4.2292 10.3344 4.23428 10.3818C4.2958 11.0546 4.79139 11.5993 5.43769 11.737C5.51446 11.754 5.59235 11.7641 5.67251 11.7686H5.67364C5.67589 11.7686 10.3072 11.7686 10.3095 11.7686H10.3106C10.3908 11.7647 10.4687 11.7545 10.5454 11.737C11.1917 11.5993 11.6873 11.054 11.7488 10.3818C11.7522 10.362 11.7415 7.87052 11.7415 7.87052Z" fill="#FFFFFE"/>
</g>
<defs>
<clipPath id="clip0_48_2031">
<rect width="16" height="16" fill="white"/>
</clipPath>
</defs>
</svg>
