<svg width="24" height="24" viewBox="0 0 24 24" fill="none" xmlns="http://www.w3.org/2000/svg">
<g clip-path="url(#clip0_48_2032)">
<path d="M19.3196 24H4.68045C2.09553 24 0 21.9045 0 19.3196V4.68045C0 2.09553 2.09553 0 4.68045 0H19.3196C21.9045 0 24 2.09553 24 4.68045V19.3196C24 21.9045 21.9045 24 19.3196 24Z" fill="#AF6F22"/>
<path d="M17.6123 11.8063C17.509 11.1374 17.078 10.5574 16.4625 10.2568C15.8402 9.95204 15.1349 9.97321 14.5278 10.3127L11.677 11.5675V12.3515L12.7379 11.8977C13.5905 11.5167 14.4525 11.819 14.836 12.4557C14.8546 12.487 14.9427 12.6546 14.9427 12.923L14.9283 16.1006C14.9266 16.3386 14.8326 16.5663 14.6641 16.7365L14.6599 16.7399C14.4719 16.9278 14.212 17.043 13.9258 17.043C13.9165 17.043 11.169 17.0438 10.8151 17.043C10.4434 17.0303 10.0997 16.9084 9.81434 16.7086C9.32157 16.3631 9.0464 15.7831 9.04556 15.1811L9.04302 9.16463L9.05826 7.86074C9.08535 7.66854 9.1734 7.48905 9.31226 7.3485L9.31649 7.34511C9.50446 7.15715 9.76439 7.042 10.0506 7.042C10.0675 7.042 15.8579 7.04031 15.8579 7.04031V6.3418C15.8579 6.3418 8.52061 6.34772 8.51045 6.34772H8.50876C8.38853 6.35365 8.27169 6.36889 8.15654 6.39514C7.18709 6.60173 6.44371 7.41962 6.35142 8.42802C6.3438 8.49914 6.3438 15.502 6.35142 15.5732C6.44371 16.5824 7.18709 17.3994 8.15654 17.606C8.27169 17.6314 8.38853 17.6467 8.50876 17.6534H8.51045C8.51384 17.6534 15.4609 17.6534 15.4642 17.6534H15.4659C15.5862 17.6475 15.703 17.6323 15.8182 17.606C16.7876 17.3994 17.531 16.5815 17.6233 15.5732C17.6284 15.5435 17.6123 11.8063 17.6123 11.8063Z" fill="#FFFFFE"/>
</g>
<defs>
<clipPath id="clip0_48_2032">
<rect width="24" height="24" fill="white"/>
</clipPath>
</defs>
</svg>
