<svg width="32" height="32" viewBox="0 0 32 32" fill="none" xmlns="http://www.w3.org/2000/svg">
<g clip-path="url(#clip0_48_2033)">
<path d="M25.7594 32H6.2406C2.79404 32 0 29.206 0 25.7594V6.2406C0 2.79404 2.79404 0 6.2406 0H25.7594C29.206 0 32 2.79404 32 6.2406V25.7594C32 29.206 29.206 32 25.7594 32Z" fill="#AF6F22"/>
<path d="M23.484 15.7415C23.3463 14.8497 22.7717 14.0764 21.9509 13.6756C21.1212 13.2692 20.1808 13.2974 19.3714 13.7501L15.5704 15.4232V16.4685L16.9849 15.8635C18.1217 15.3554 19.2709 15.7585 19.7823 16.6074C19.8071 16.6492 19.9246 16.8727 19.9246 17.2306L19.9054 21.4673C19.9031 21.7846 19.7778 22.0882 19.5531 22.3152L19.5475 22.3197C19.2969 22.5703 18.9503 22.7238 18.5687 22.7238C18.5563 22.7238 14.893 22.725 14.4211 22.7238C13.9255 22.7069 13.4672 22.5443 13.0868 22.2779C12.4297 21.8173 12.0628 21.044 12.0617 20.2414L12.0583 12.2193L12.0787 10.4808C12.1148 10.2246 12.2322 9.98524 12.4173 9.79784L12.423 9.79332C12.6736 9.5427 13.0202 9.38917 13.4017 9.38917C13.4243 9.38917 21.1449 9.38691 21.1449 9.38691V8.45557C21.1449 8.45557 11.3618 8.46347 11.3482 8.46347H11.346C11.1857 8.47137 11.0299 8.49169 10.8764 8.52669C9.58377 8.80214 8.59259 9.89267 8.46953 11.2372C8.45937 11.332 8.45937 20.6692 8.46953 20.764C8.59259 22.1097 9.58377 23.1991 10.8764 23.4745C11.0299 23.5084 11.1857 23.5287 11.346 23.5378H11.3482C11.3528 23.5378 20.6154 23.5378 20.62 23.5378H20.6222C20.7825 23.5299 20.9383 23.5095 21.0918 23.4745C22.3844 23.1991 23.3756 22.1086 23.4987 20.764C23.5054 20.7245 23.484 15.7415 23.484 15.7415Z" fill="#FFFFFE"/>
</g>
<defs>
<clipPath id="clip0_48_2033">
<rect width="32" height="32" fill="white"/>
</clipPath>
</defs>
</svg>
